{
copyright = "Copyright \U00A9 2019 IBM Corp. with Reserved Font Name \"Plex\"\012This Font Software is licensed under the SIL Open Font License, Version 1.1.\012This license is copied below, and is also available with a FAQ at: http://scripts.sil.org/OFL.";
customParameters = (
{
name = licenseURL;
value = "http://scripts.sil.org/OFL";
},
{
name = vendorID;
value = "";
},
{
name = glyphOrder;
value = (
    ".notdef",
    uni0000,
    uni000D,
    space,
    a,
    b,
    c,
    d,
    e,
    f,
    g,
    "g.alt02",
    h,
    i,
    j,
    k,
    l,
    m,
    n,
    o,
    p,
    q,
    r,
    s,
    t,
    u,
    v,
    w,
    x,
    y,
    z,
    A,
    B,
    C,
    D,
    E,
    F,
    G,
    H,
    I,
    J,
    K,
    L,
    M,
    N,
    O,
    P,
    Q,
    R,
    S,
    T,
    U,
    V,
    W,
    X,
    Y,
    Z,
    zero,
    one,
    two,
    three,
    four,
    five,
    six,
    seven,
    eight,
    nine,
    ampersand,
    at,
    hyphen,
    uni00AD,
    endash,
    emdash,
    underscore,
    period,
    ellipsis,
    colon,
    comma,
    semicolon,
    quotesingle,
    quotedbl,
    quoteleft,
    quoteright,
    quotedblleft,
    quotedblright,
    quotesinglbase,
    quotedblbase,
    guilsinglleft,
    guilsinglright,
    guillemotleft,
    guillemotright,
    exclamdown,
    exclam,
    questiondown,
    question,
    parenleft,
    parenright,
    bracketleft,
    bracketright,
    braceleft,
    braceright,
    slash,
    backslash,
    fraction,
    percent,
    perthousand,
    bar,
    brokenbar,
    section,
    paragraph,
    copyright,
    registered,
    trademark,
    ordfeminine,
    ordmasculine,
    degree,
    asterisk,
    dagger,
    daggerdbl,
    numbersign,
    asciicircum,
    asciitilde,
    plus,
    minus,
    plusminus,
    multiply,
    divide,
    equal,
    approxequal,
    notequal,
    less,
    greater,
    lessequal,
    greaterequal,
    periodcentered,
    bullet,
    lozenge,
    logicalnot,

glyphs = (
{
glyphname = .notdef;
layers = (
{
layerId = "19C89ACC-DE1B-4ED2-AD26-76EE6DB054A2";
name = Regular;
paths = (
{
closed = 1;
nodes = (
"32 0 LINE",
"32 780 LINE",
"440 780 LINE",
"440 0 LINE"
);
},
{
closed = 1;
nodes = (
"109 77 LINE",
"363 77 LINE",
"363 703 LINE",
"109 703 LINE"
);
}
);
width = 472;
}
);
},
{
glyphname = a;
lastChange = "2018-11-02 02:13:11 +0000";
layers = (
{
layerId = "19C89ACC-DE1B-4ED2-AD26-76EE6DB054A2";
name = Regular;
paths = (
{
closed = 1;
nodes = (
"155 532 OFFCURVE",
"95 490 OFFCURVE",
"60 431 CURVE",
"125 372 LINE",
"152 413 OFFCURVE",
"188 443 OFFCURVE",
"249 443 CURVE SMOOTH",
"322 443 OFFCURVE",
"356 407 OFFCURVE",
"356 343 CURVE SMOOTH",
"356 299 LINE",
"262 299 LINE SMOOTH",
"117 299 OFFCURVE",
"40 247 OFFCURVE",
"40 143 CURVE SMOOTH",
"40 48 OFFCURVE",
"100 -12 OFFCURVE",
"208 -12 CURVE SMOOTH",
"284 -12 OFFCURVE",
"340 22 OFFCURVE",
"360 87 CURVE",
"365 87 LINE",
"365 0 LINE",
"465 0 LINE",
"465 350 LINE SMOOTH",
"465 467 OFFCURVE",
"391 532 OFFCURVE",
"256 532 CURVE SMOOTH"
);
},
{
closed = 1;
nodes = (
"356 103 OFFCURVE",
"307 71 OFFCURVE",
"239 71 CURVE SMOOTH",
"184 71 OFFCURVE",
"151 94 OFFCURVE",
"151 141 CURVE SMOOTH",
"151 159 LINE SMOOTH",
"151 206 OFFCURVE",
"189 229 OFFCURVE",
"264 229 CURVE SMOOTH",
"356 229 LINE",
"356 154 LINE SMOOTH"
);
}
);
width = 538;
}
);
leftKerningGroup = a;
rightKerningGroup = a;
unicode = 0061;
},
{
glyphname = b;
layers = (
{
layerId = "19C89ACC-DE1B-4ED2-AD26-76EE6DB054A2";
name = Regular;
paths = (
{
closed = 1;
nodes = (
"78 740 LINE",
"187 740 LINE",
"187 434 LINE",
"192 434 LINE",
"215 497 OFFCURVE",
"269 532 OFFCURVE",
"338 532 CURVE SMOOTH",
"470 532 OFFCURVE",
"545 432 OFFCURVE",
"545 260 CURVE SMOOTH",
"545 88 OFFCURVE",
"470 -12 OFFCURVE",
"338 -12 CURVE SMOOTH",
"269 -12 OFFCURVE",
"215 25 OFFCURVE",
"192 86 CURVE",
"187 86 LINE",
"187 0 LINE",
"78 0 LINE"
);
},
{
closed = 1;
nodes = (
"381 82 OFFCURVE",
"430 135 OFFCURVE",
"430 215 CURVE SMOOTH",
"430 305 LINE SMOOTH",
"430 385 OFFCURVE",
"381 438 OFFCURVE",
"305 438 CURVE SMOOTH",
"238 438 OFFCURVE",
"187 402 OFFCURVE",
"187 349 CURVE SMOOTH",
"187 171 LINE SMOOTH",
"187 118 OFFCURVE",
"238 82 OFFCURVE",
"305 82 CURVE SMOOTH"
);
}
);
width = 592;
}
);
leftKerningGroup = b;
rightKerningGroup = b;
unicode = 0062;
},
{
glyphname = c;
layers = (
{
layerId = "19C89ACC-DE1B-4ED2-AD26-76EE6DB054A2";
name = Regular;
paths = (
{
closed = 1;
nodes = (
"204 -12 OFFCURVE",
"145 14 OFFCURVE",
"105 62 CURVE SMOOTH",
"65 109 OFFCURVE",
"43 177 OFFCURVE",
"43 260 CURVE SMOOTH",
"43 343 OFFCURVE",
"65 411 OFFCURVE",
"105 459 CURVE SMOOTH",
"145 506 OFFCURVE",
"204 532 OFFCURVE",
"279 532 CURVE SMOOTH",
"383 532 OFFCURVE",
"449 481 OFFCURVE",
"480 404 CURVE",
"390 362 LINE",
"375 410 OFFCURVE",
"339 441 OFFCURVE",
"279 441 CURVE SMOOTH",
"199 441 OFFCURVE",
"158 386 OFFCURVE",
"158 306 CURVE SMOOTH",
"158 213 LINE SMOOTH",
"158 133 OFFCURVE",
"199 78 OFFCURVE",
"279 78 CURVE SMOOTH",
"343 78 OFFCURVE",
"378 112 OFFCURVE",
"401 164 CURVE",
"484 120 LINE",
"449 35 OFFCURVE",
"379 -12 OFFCURVE",
"279 -12 CURVE SMOOTH"
);
}
);
width = 510;
}
);
leftKerningGroup = c;
rightKerningGroup = c;
unicode = 0063;
},
{
glyphname = d;
layers = (
{
layerId = "19C89ACC-DE1B-4ED2-AD26-76EE6DB054A2";
name = Regular;
paths = (
{
closed = 1;
nodes = (
"405 86 LINE",
"400 86 LINE",
"377 25 OFFCURVE",
"323 -12 OFFCURVE",
"254 -12 CURVE SMOOTH",
"122 -12 OFFCURVE",
"47 88 OFFCURVE",
"47 260 CURVE SMOOTH",
"47 432 OFFCURVE",
"122 532 OFFCURVE",
"254 532 CURVE SMOOTH",
"323 532 OFFCURVE",
"377 497 OFFCURVE",
"400 434 CURVE",
"405 434 LINE",
"405 740 LINE",
"514 740 LINE",
"514 0 LINE",
"405 0 LINE"
);
},
{
closed = 1;
nodes = (
"354 82 OFFCURVE",
"405 118 OFFCURVE",
"405 171 CURVE SMOOTH",
"405 349 LINE SMOOTH",
"405 402 OFFCURVE",
"354 438 OFFCURVE",
"287 438 CURVE SMOOTH",
"211 438 OFFCURVE",
"162 385 OFFCURVE",
"162 305 CURVE SMOOTH",
"162 215 LINE SMOOTH",
"162 135 OFFCURVE",
"211 82 OFFCURVE",
"287 82 CURVE SMOOTH"
);
}
);
width = 592;
}
);
leftKerningGroup = d;
unicode = 0064;
},
{
glyphname = e;
layers = (
{
layerId = "19C89ACC-DE1B-4ED2-AD26-76EE6DB054A2";
name = Regular;
paths = (
{
closed = 1;
nodes = (
"207 -12 OFFCURVE",
"148 14 OFFCURVE",
"107 62 CURVE SMOOTH",
"66 109 OFFCURVE",
"43 177 OFFCURVE",
"43 260 CURVE SMOOTH",
"43 343 OFFCURVE",
"66 411 OFFCURVE",
"107 459 CURVE SMOOTH",
"148 506 OFFCURVE",
"207 532 OFFCURVE",
"282 532 CURVE SMOOTH",
"358 532 OFFCURVE",
"416 504 OFFCURVE",
"455 457 CURVE SMOOTH",
"494 409 OFFCURVE",
"513 345 OFFCURVE",
"513 273 CURVE SMOOTH",
"513 232 LINE",
"156 232 LINE",
"156 215 LINE SMOOTH",
"156 135 OFFCURVE",
"205 78 OFFCURVE",
"293 78 CURVE SMOOTH",
"357 78 OFFCURVE",
"399 108 OFFCURVE",
"430 156 CURVE",
"494 93 LINE",
"455 29 OFFCURVE",
"379 -12 OFFCURVE",
"282 -12 CURVE SMOOTH"
);
},
{
closed = 1;
nodes = (
"245 447 OFFCURVE",
"213 433 OFFCURVE",
"191 409 CURVE SMOOTH",
"169 385 OFFCURVE",
"156 351 OFFCURVE",
"156 311 CURVE SMOOTH",
"156 304 LINE",
"398 304 LINE",
"398 314 LINE SMOOTH",
"398 394 OFFCURVE",
"354 447 OFFCURVE",
"282 447 CURVE SMOOTH"
);
}
);
width = 556;
}
);
leftKerningGroup = c;
rightKerningGroup = e;
unicode = 0065;
},
{
glyphname = f;
layers = (
{
layerId = "19C89ACC-DE1B-4ED2-AD26-76EE6DB054A2";
name = Regular;
paths = (
{
closed = 1;
nodes = (
"105 431 LINE",
"26 431 LINE",
"26 520 LINE",
"105 520 LINE",
"105 606 LINE SMOOTH",
"105 690 OFFCURVE",
"149 740 OFFCURVE",
"237 740 CURVE SMOOTH",
"323 740 LINE",
"323 651 LINE",
"214 651 LINE",
"214 520 LINE",
"323 520 LINE",
"323 431 LINE",
"214 431 LINE",
"214 0 LINE",
"105 0 LINE"
);
}
);
width = 340;
}
);
leftKerningGroup = f;
rightKerningGroup = f;
unicode = 0066;
},
{
glyphname = g;
lastChange = "2018-11-05 19:21:25 +0000";
layers = (
{
layerId = "19C89ACC-DE1B-4ED2-AD26-76EE6DB054A2";
name = Regular;
paths = (
{
closed = 1;
nodes = (
"514 520 LINE",
"405 520 LINE",
"405 434 LINE",
"400 434 LINE",
"378 496 OFFCURVE",
"323 532 OFFCURVE",
"254 532 CURVE SMOOTH",
"123 532 OFFCURVE",
"47 432 OFFCURVE",
"47 262 CURVE SMOOTH",
"47 92 OFFCURVE",
"123 -8 OFFCURVE",
"254 -8 CURVE SMOOTH",
"323 -8 OFFCURVE",
"378 29 OFFCURVE",
"400 90 CURVE",
"405 90 LINE",
"405 15 LINE SMOOTH",
"405 -73 OFFCURVE",
"358 -122 OFFCURVE",
"272 -122 CURVE SMOOTH",
"217 -122 OFFCURVE",
"173 -103 OFFCURVE",
"140 -68 CURVE",
"79 -139 LINE",
"119 -182 OFFCURVE",
"181 -212 OFFCURVE",
"273 -212 CURVE SMOOTH",
"429 -212 OFFCURVE",
"514 -124 OFFCURVE",
"514 23 CURVE SMOOTH"
);
},
{
closed = 1;
nodes = (
"212 86 OFFCURVE",
"162 139 OFFCURVE",
"162 219 CURVE SMOOTH",
"162 305 LINE SMOOTH",
"162 385 OFFCURVE",
"212 438 OFFCURVE",
"287 438 CURVE SMOOTH",
"353 438 OFFCURVE",
"405 402 OFFCURVE",
"405 349 CURVE SMOOTH",
"405 175 LINE SMOOTH",
"405 122 OFFCURVE",
"353 86 OFFCURVE",
"287 86 CURVE SMOOTH"
);
}
);
width = 592;
}
);
leftKerningGroup = g;
rightKerningGroup = g;
unicode = 0067;
},
{
glyphname = h;
layers = (
{
layerId = "19C89ACC-DE1B-4ED2-AD26-76EE6DB054A2";
name = Regular;
paths = (
{
closed = 1;
nodes = (
"78 740 LINE",
"187 740 LINE",
"187 434 LINE",
"192 434 LINE",
"215 490 OFFCURVE",
"258 532 OFFCURVE",
"338 532 CURVE SMOOTH",
"445 532 OFFCURVE",
"507 459 OFFCURVE",
"507 330 CURVE SMOOTH",
"507 0 LINE",
"398 0 LINE",
"398 317 LINE SMOOTH",
"398 398 OFFCURVE",
"365 438 OFFCURVE",
"300 438 CURVE SMOOTH",
"272 438 OFFCURVE",
"243 431 OFFCURVE",
"222 416 CURVE SMOOTH",
"201 401 OFFCURVE",
"187 378 OFFCURVE",
"187 349 CURVE SMOOTH",
"187 0 LINE",
"78 0 LINE"
);
}
);
width = 580;
}
);
leftKerningGroup = b;
rightKerningGroup = h;
unicode = 0068;
},
{
glyphname = i;
lastChange = "2018-11-07 04:31:05 +0000";
layers = (
{
layerId = "19C89ACC-DE1B-4ED2-AD26-76EE6DB054A2";
name = Regular;
paths = (
{
closed = 1;
nodes = (
"88 613 OFFCURVE",
"68 637 OFFCURVE",
"68 670 CURVE SMOOTH",
"68 687 LINE SMOOTH",
"68 720 OFFCURVE",
"88 744 OFFCURVE",
"133 744 CURVE SMOOTH",
"178 744 OFFCURVE",
"197 720 OFFCURVE",
"197 687 CURVE SMOOTH",
"197 670 LINE SMOOTH",
"197 637 OFFCURVE",
"178 613 OFFCURVE",
"133 613 CURVE SMOOTH"
);
},
{
closed = 1;
nodes = (
"78 520 LINE",
"187 520 LINE",
"187 0 LINE",
"78 0 LINE"
);
}
);
width = 265;
}
);
leftKerningGroup = i;
rightKerningGroup = i;
unicode = 0069;
},
{
glyphname = j;
layers = (
{
layerId = "19C89ACC-DE1B-4ED2-AD26-76EE6DB054A2";
name = Regular;
paths = (
{
closed = 1;
nodes = (
"78 520 LINE",
"187 520 LINE",
"187 -70 LINE SMOOTH",
"187 -150 OFFCURVE",
"148 -200 OFFCURVE",
"60 -200 CURVE SMOOTH",
"-3 -200 LINE",
"-3 -111 LINE",
"78 -111 LINE"
);
},
{
closed = 1;
nodes = (
"88 613 OFFCURVE",
"68 637 OFFCURVE",
"68 670 CURVE SMOOTH",
"68 687 LINE SMOOTH",
"68 720 OFFCURVE",
"88 744 OFFCURVE",
"133 744 CURVE SMOOTH",
"178 744 OFFCURVE",
"197 720 OFFCURVE",
"197 687 CURVE SMOOTH",
"197 670 LINE SMOOTH",
"197 637 OFFCURVE",
"178 613 OFFCURVE",
"133 613 CURVE SMOOTH"
);
}
);
width = 265;
}
);
leftKerningGroup = j;
rightKerningGroup = j;
unicode = 006A;
},
{
glyphname = k;
layers = (
{
layerId = "19C89ACC-DE1B-4ED2-AD26-76EE6DB054A2";
name = Regular;
paths = (
{
closed = 1;
nodes = (
"78 740 LINE",
"187 740 LINE",
"187 286 LINE",
"192 286 LINE",
"264 379 LINE",
"389 520 LINE",
"516 520 LINE",
"334 319 LINE",
"538 0 LINE",
"408 0 LINE",
"259 248 LINE",
"187 170 LINE",
"187 0 LINE",
"78 0 LINE"
);
}
);
width = 547;
}
);
leftKerningGroup = b;
rightKerningGroup = k;
unicode = 006B;
},
{
glyphname = l;
lastChange = "2018-11-02 14:46:09 +0000";
layers = (
{
layerId = "19C89ACC-DE1B-4ED2-AD26-76EE6DB054A2";
name = Regular;
paths = (
{
closed = 1;
nodes = (
"189 0 LINE SMOOTH",
"114 0 OFFCURVE",
"78 40 OFFCURVE",
"78 108 CURVE SMOOTH",
"78 740 LINE",
"187 740 LINE",
"187 89 LINE",
"259 89 LINE",
"259 0 LINE"
);
}
);
width = 285;
}
);
leftKerningGroup = l;
rightKerningGroup = l;
unicode = 006C;
},
{
glyphname = m;
layers = (
{
layerId = "19C89ACC-DE1B-4ED2-AD26-76EE6DB054A2";
name = Regular;
paths = (
{
closed = 1;
nodes = (
"78 0 LINE",
"78 520 LINE",
"187 520 LINE",
"187 434 LINE",
"192 434 LINE",
"203 461 OFFCURVE",
"218 486 OFFCURVE",
"240 504 CURVE SMOOTH",
"262 522 OFFCURVE",
"291 532 OFFCURVE",
"331 532 CURVE SMOOTH",
"402 532 OFFCURVE",
"460 498 OFFCURVE",
"485 426 CURVE",
"488 426 LINE",
"507 485 OFFCURVE",
"561 532 OFFCURVE",
"645 532 CURVE SMOOTH",
"749 532 OFFCURVE",
"809 459 OFFCURVE",
"809 330 CURVE SMOOTH",
"809 0 LINE",
"700 0 LINE",
"700 317 LINE SMOOTH",
"700 397 OFFCURVE",
"671 438 OFFCURVE",
"604 438 CURVE SMOOTH",
"576 438 OFFCURVE",
"550 431 OFFCURVE",
"531 416 CURVE SMOOTH",
"511 401 OFFCURVE",
"498 378 OFFCURVE",
"498 349 CURVE SMOOTH",
"498 0 LINE",
"389 0 LINE",
"389 317 LINE SMOOTH",
"389 398 OFFCURVE",
"357 438 OFFCURVE",
"294 438 CURVE SMOOTH",
"267 438 OFFCURVE",
"240 431 OFFCURVE",
"220 416 CURVE SMOOTH",
"200 401 OFFCURVE",
"187 378 OFFCURVE",
"187 349 CURVE SMOOTH",
"187 0 LINE"
);
}
);
width = 882;
}
);
leftKerningGroup = m;
rightKerningGroup = h;
unicode = 006D;
},
{
glyphname = n;
layers = (
{
layerId = "19C89ACC-DE1B-4ED2-AD26-76EE6DB054A2";
name = Regular;
paths = (
{
closed = 1;
nodes = (
"78 0 LINE",
"78 520 LINE",
"187 520 LINE",
"187 434 LINE",
"192 434 LINE",
"215 490 OFFCURVE",
"258 532 OFFCURVE",
"338 532 CURVE SMOOTH",
"445 532 OFFCURVE",
"507 459 OFFCURVE",
"507 330 CURVE SMOOTH",
"507 0 LINE",
"398 0 LINE",
"398 316 LINE SMOOTH",
"398 397 OFFCURVE",
"365 438 OFFCURVE",
"300 438 CURVE SMOOTH",
"272 438 OFFCURVE",
"243 431 OFFCURVE",
"222 416 CURVE SMOOTH",
"201 401 OFFCURVE",
"187 379 OFFCURVE",
"187 348 CURVE SMOOTH",
"187 0 LINE"
);
}
);
width = 580;
}
);
leftKerningGroup = m;
rightKerningGroup = h;
unicode = 006E;
},
{
glyphname = o;
lastChange = "2018-11-07 04:30:59 +0000";
layers = (
{
layerId = "19C89ACC-DE1B-4ED2-AD26-76EE6DB054A2";
name = Regular;
paths = (
{
closed = 1;
nodes = (
"210 -12 OFFCURVE",
"149 14 OFFCURVE",
"108 62 CURVE SMOOTH",
"67 109 OFFCURVE",
"43 177 OFFCURVE",
"43 260 CURVE SMOOTH",
"43 343 OFFCURVE",
"67 411 OFFCURVE",
"108 459 CURVE SMOOTH",
"149 506 OFFCURVE",
"210 532 OFFCURVE",
"282 532 CURVE SMOOTH",
"354 532 OFFCURVE",
"415 506 OFFCURVE",
"456 459 CURVE SMOOTH",
"497 411 OFFCURVE",
"521 343 OFFCURVE",
"521 260 CURVE SMOOTH",
"521 177 OFFCURVE",
"497 109 OFFCURVE",
"456 62 CURVE SMOOTH",
"415 14 OFFCURVE",
"354 -12 OFFCURVE",
"282 -12 CURVE SMOOTH"
);
},
{
closed = 1;
nodes = (
"357 78 OFFCURVE",
"406 124 OFFCURVE",
"406 216 CURVE SMOOTH",
"406 304 LINE SMOOTH",
"406 396 OFFCURVE",
"357 442 OFFCURVE",
"282 442 CURVE SMOOTH",
"207 442 OFFCURVE",
"158 396 OFFCURVE",
"158 304 CURVE SMOOTH",
"158 216 LINE SMOOTH",
"158 124 OFFCURVE",
"207 78 OFFCURVE",
"282 78 CURVE SMOOTH"
);
}
);
width = 564;
}
);
leftKerningGroup = c;
rightKerningGroup = o;
unicode = 006F;
},
{
glyphname = p;
layers = (
{
layerId = "19C89ACC-DE1B-4ED2-AD26-76EE6DB054A2";
name = Regular;
paths = (
{
closed = 1;
nodes = (
"78 520 LINE",
"187 520 LINE",
"187 434 LINE",
"192 434 LINE",
"215 497 OFFCURVE",
"269 532 OFFCURVE",
"338 532 CURVE SMOOTH",
"470 532 OFFCURVE",
"545 432 OFFCURVE",
"545 260 CURVE SMOOTH",
"545 88 OFFCURVE",
"470 -12 OFFCURVE",
"338 -12 CURVE SMOOTH",
"269 -12 OFFCURVE",
"215 25 OFFCURVE",
"192 86 CURVE",
"187 86 LINE",
"187 -200 LINE",
"78 -200 LINE"
);
},
{
closed = 1;
nodes = (
"381 82 OFFCURVE",
"430 135 OFFCURVE",
"430 215 CURVE SMOOTH",
"430 305 LINE SMOOTH",
"430 385 OFFCURVE",
"381 438 OFFCURVE",
"305 438 CURVE SMOOTH",
"238 438 OFFCURVE",
"187 402 OFFCURVE",
"187 349 CURVE SMOOTH",
"187 171 LINE SMOOTH",
"187 118 OFFCURVE",
"238 82 OFFCURVE",
"305 82 CURVE SMOOTH"
);
}
);
width = 592;
}
);
leftKerningGroup = p;
rightKerningGroup = b;
unicode = 0070;
},
{
glyphname = q;
layers = (
{
layerId = "19C89ACC-DE1B-4ED2-AD26-76EE6DB054A2";
name = Regular;
paths = (
{
closed = 1;
nodes = (
"405 86 LINE",
"400 86 LINE",
"377 25 OFFCURVE",
"323 -12 OFFCURVE",
"254 -12 CURVE SMOOTH",
"122 -12 OFFCURVE",
"47 88 OFFCURVE",
"47 260 CURVE SMOOTH",
"47 432 OFFCURVE",
"122 532 OFFCURVE",
"254 532 CURVE SMOOTH",
"323 532 OFFCURVE",
"377 497 OFFCURVE",
"400 434 CURVE",
"405 434 LINE",
"405 520 LINE",
"514 520 LINE",
"514 -200 LINE",
"405 -200 LINE"
);
},
{
closed = 1;
nodes = (
"354 82 OFFCURVE",
"405 118 OFFCURVE",
"405 171 CURVE SMOOTH",
"405 349 LINE SMOOTH",
"405 402 OFFCURVE",
"354 438 OFFCURVE",
"287 438 CURVE SMOOTH",
"211 438 OFFCURVE",
"162 385 OFFCURVE",
"162 305 CURVE SMOOTH",
"162 215 LINE SMOOTH",
"162 135 OFFCURVE",
"211 82 OFFCURVE",
"287 82 CURVE SMOOTH"
);
}
);
width = 592;
}
);
leftKerningGroup = d;
rightKerningGroup = j;
unicode = 0071;
},
{
glyphname = r;
layers = (
{
layerId = "19C89ACC-DE1B-4ED2-AD26-76EE6DB054A2";
name = Regular;
paths = (
{
closed = 1;
nodes = (
"78 0 LINE",
"78 520 LINE",
"187 520 LINE",
"187 420 LINE",
"192 420 LINE",
"207 473 OFFCURVE",
"252 520 OFFCURVE",
"335 520 CURVE SMOOTH",
"364 520 LINE",
"364 415 LINE",
"321 415 LINE SMOOTH",
"234 415 OFFCURVE",
"187 387 OFFCURVE",
"187 332 CURVE SMOOTH",
"187 0 LINE"
);
}
);
width = 383;
}
);
leftKerningGroup = m;
rightKerningGroup = r;
unicode = 0072;
},
{
glyphname = s;
layers = (
{
layerId = "19C89ACC-DE1B-4ED2-AD26-76EE6DB054A2";
name = Regular;
paths = (
{
closed = 1;
nodes = (
"144 -12 OFFCURVE",
"81 25 OFFCURVE",
"32 86 CURVE",
"102 150 LINE",
"141 103 OFFCURVE",
"186 76 OFFCURVE",
"249 76 CURVE SMOOTH",
"313 76 OFFCURVE",
"344 102 OFFCURVE",
"344 146 CURVE SMOOTH",
"344 179 OFFCURVE",
"325 204 OFFCURVE",
"270 211 CURVE SMOOTH",
"222 217 LINE SMOOTH",
"115 230 OFFCURVE",
"51 276 OFFCURVE",
"51 372 CURVE SMOOTH",
"51 423 OFFCURVE",
"71 462 OFFCURVE",
"105 490 CURVE SMOOTH",
"139 517 OFFCURVE",
"187 532 OFFCURVE",
"244 532 CURVE SMOOTH",
"337 532 OFFCURVE",
"391 501 OFFCURVE",
"438 449 CURVE",
"371 385 LINE",
"344 417 OFFCURVE",
"300 444 OFFCURVE",
"244 444 CURVE SMOOTH",
"184 444 OFFCURVE",
"156 418 OFFCURVE",
"156 379 CURVE SMOOTH",
"156 339 OFFCURVE",
"180 321 OFFCURVE",
"236 312 CURVE",
"284 306 LINE SMOOTH",
"399 289 OFFCURVE",
"449 239 OFFCURVE",
"449 155 CURVE SMOOTH",
"449 104 OFFCURVE",
"429 63 OFFCURVE",
"393 34 CURVE SMOOTH",
"357 5 OFFCURVE",
"306 -12 OFFCURVE",
"243 -12 CURVE SMOOTH"
);
}
);
width = 494;
}
);
leftKerningGroup = s;
rightKerningGroup = s;
unicode = 0073;
},
{
glyphname = t;
layers = (
{
layerId = "19C89ACC-DE1B-4ED2-AD26-76EE6DB054A2";
name = Regular;
paths = (
{
closed = 1;
nodes = (
"222 0 LINE SMOOTH",
"146 0 OFFCURVE",
"107 41 OFFCURVE",
"107 113 CURVE SMOOTH",
"107 431 LINE",
"26 431 LINE",
"26 520 LINE",
"70 520 LINE SMOOTH",
"106 520 OFFCURVE",
"118 535 OFFCURVE",
"118 571 CURVE SMOOTH",
"118 662 LINE",
"216 662 LINE",
"216 520 LINE",
"325 520 LINE",
"325 431 LINE",
"216 431 LINE",
"216 89 LINE",
"317 89 LINE",
"317 0 LINE"
);
}
);
width = 365;
}
);
leftKerningGroup = t;
rightKerningGroup = t;
unicode = 0074;
},
{
glyphname = u;
layers = (
{
layerId = "19C89ACC-DE1B-4ED2-AD26-76EE6DB054A2";
name = Regular;
paths = (
{
closed = 1;
nodes = (
"393 86 LINE",
"389 86 LINE",
"380 61 OFFCURVE",
"365 36 OFFCURVE",
"342 18 CURVE SMOOTH",
"318 0 OFFCURVE",
"286 -12 OFFCURVE",
"243 -12 CURVE SMOOTH",
"135 -12 OFFCURVE",
"73 60 OFFCURVE",
"73 189 CURVE SMOOTH",
"73 520 LINE",
"182 520 LINE",
"182 203 LINE SMOOTH",
"182 122 OFFCURVE",
"215 82 OFFCURVE",
"282 82 CURVE SMOOTH",
"310 82 OFFCURVE",
"338 89 OFFCURVE",
"359 104 CURVE SMOOTH",
"379 119 OFFCURVE",
"393 141 OFFCURVE",
"393 172 CURVE SMOOTH",
"393 520 LINE",
"502 520 LINE",
"502 0 LINE",
"393 0 LINE"
);
}
);
width = 580;
}
);
leftKerningGroup = u;
rightKerningGroup = u;
unicode = 0075;
},
{
glyphname = v;
layers = (
{
layerId = "19C89ACC-DE1B-4ED2-AD26-76EE6DB054A2";
name = Regular;
paths = (
{
closed = 1;
nodes = (
"191 0 LINE",
"14 520 LINE",
"122 520 LINE",
"201 283 LINE",
"254 101 LINE",
"260 101 LINE",
"313 283 LINE",
"394 520 LINE",
"498 520 LINE",
"319 0 LINE"
);
}
);
width = 512;
}
);
leftKerningGroup = v;
rightKerningGroup = v;
unicode = 0076;
},
{
glyphname = w;
layers = (
{
layerId = "19C89ACC-DE1B-4ED2-AD26-76EE6DB054A2";
name = Regular;
paths = (
{
closed = 1;
nodes = (
"26 520 LINE",
"132 520 LINE",
"185 302 LINE",
"232 105 LINE",
"235 105 LINE",
"289 302 LINE",
"352 520 LINE",
"450 520 LINE",
"514 302 LINE",
"569 105 LINE",
"572 105 LINE",
"618 302 LINE",
"672 520 LINE",
"773 520 LINE",
"633 0 LINE",
"510 0 LINE",
"442 237 LINE",
"400 383 LINE",
"398 383 LINE",
"357 237 LINE",
"288 0 LINE",
"168 0 LINE"
);
}
);
width = 799;
}
);
leftKerningGroup = w;
rightKerningGroup = w;
unicode = 0077;
},
{
glyphname = x;
layers = (
{
layerId = "19C89ACC-DE1B-4ED2-AD26-76EE6DB054A2";
name = Regular;
paths = (
{
closed = 1;
nodes = (
"20 0 LINE",
"203 263 LINE",
"25 520 LINE",
"151 520 LINE",
"268 339 LINE",
"271 339 LINE",
"391 520 LINE",
"507 520 LINE",
"329 264 LINE",
"510 0 LINE",
"384 0 LINE",
"264 189 LINE",
"261 189 LINE",
"136 0 LINE"
);
}
);
width = 530;
}
);
leftKerningGroup = x;
rightKerningGroup = x;
unicode = 0078;
},
{
glyphname = y;
layers = (
{
layerId = "19C89ACC-DE1B-4ED2-AD26-76EE6DB054A2";
name = Regular;
paths = (
{
closed = 1;
nodes = (
"397 520 LINE",
"502 520 LINE",
"283 -103 LINE SMOOTH",
"271 -138 OFFCURVE",
"256 -162 OFFCURVE",
"236 -177 CURVE SMOOTH",
"215 -193 OFFCURVE",
"186 -200 OFFCURVE",
"146 -200 CURVE SMOOTH",
"83 -200 LINE",
"83 -111 LINE",
"171 -111 LINE",
"201 -23 LINE",
"12 520 LINE",
"121 520 LINE",
"225 214 LINE",
"255 101 LINE",
"260 101 LINE",
"293 214 LINE"
);
}
);
width = 514;
}
);
leftKerningGroup = y;
rightKerningGroup = y;
unicode = 0079;
},
{
glyphname = z;
layers = (
{
layerId = "19C89ACC-DE1B-4ED2-AD26-76EE6DB054A2";
name = Regular;
paths = (
{
closed = 1;
nodes = (
"36 0 LINE",
"36 88 LINE",
"315 431 LINE",
"45 431 LINE",
"45 520 LINE",
"444 520 LINE",
"444 436 LINE",
"161 89 LINE",
"451 89 LINE",
"451 0 LINE"
);
}
);
width = 487;
}
);
leftKerningGroup = z;
rightKerningGroup = z;
unicode = 007A;
},
{
glyphname = A;
layers = (
{
layerId = "19C89ACC-DE1B-4ED2-AD26-76EE6DB054A2";
name = Regular;
paths = (
{
closed = 1;
nodes = (
"522 0 LINE",
"459 189 LINE",
"198 189 LINE",
"137 0 LINE",
"22 0 LINE",
"260 698 LINE",
"402 698 LINE",
"640 0 LINE"
);
},
{
closed = 1;
nodes = (
"331 594 LINE",
"326 594 LINE",
"225 286 LINE",
"431 286 LINE"
);
}
);
width = 662;
}
);
leftKerningGroup = A;
rightKerningGroup = A;
unicode = 0041;
},
{
glyphname = B;
layers = (
{
layerId = "19C89ACC-DE1B-4ED2-AD26-76EE6DB054A2";
name = Regular;
paths = (
{
closed = 1;
nodes = (
"86 698 LINE",
"395 698 LINE SMOOTH",
"511 698 OFFCURVE",
"581 627 OFFCURVE",
"581 518 CURVE SMOOTH",
"581 466 OFFCURVE",
"565 430 OFFCURVE",
"542 407 CURVE SMOOTH",
"519 383 OFFCURVE",
"488 373 OFFCURVE",
"460 370 CURVE",
"460 364 LINE",
"488 363 OFFCURVE",
"525 352 OFFCURVE",
"554 326 CURVE SMOOTH",
"583 300 OFFCURVE",
"606 260 OFFCURVE",
"606 201 CURVE SMOOTH",
"606 145 OFFCURVE",
"587 94 OFFCURVE",
"555 58 CURVE SMOOTH",
"523 22 OFFCURVE",
"478 0 OFFCURVE",
"426 0 CURVE SMOOTH",
"86 0 LINE"
);
},
{
closed = 1;
nodes = (
"199 97 LINE",
"393 97 LINE SMOOTH",
"452 97 OFFCURVE",
"487 129 OFFCURVE",
"487 186 CURVE SMOOTH",
"487 220 LINE SMOOTH",
"487 277 OFFCURVE",
"452 309 OFFCURVE",
"393 309 CURVE SMOOTH",
"199 309 LINE"
);
},
{
closed = 1;
nodes = (
"199 403 LINE",
"374 403 LINE SMOOTH",
"430 403 OFFCURVE",
"462 433 OFFCURVE",
"462 486 CURVE SMOOTH",
"462 518 LINE SMOOTH",
"462 571 OFFCURVE",
"430 601 OFFCURVE",
"374 601 CURVE SMOOTH",
"199 601 LINE"
);
}
);
width = 659;
}
);
unicode = 0042;
},
{
glyphname = C;
layers = (
{
layerId = "19C89ACC-DE1B-4ED2-AD26-76EE6DB054A2";
name = Regular;
paths = (
{
closed = 1;
nodes = (
"165 -12 OFFCURVE",
"55 114 OFFCURVE",
"55 349 CURVE SMOOTH",
"55 466 OFFCURVE",
"82 556 OFFCURVE",
"133 617 CURVE SMOOTH",
"184 678 OFFCURVE",
"257 710 OFFCURVE",
"348 710 CURVE SMOOTH",
"469 710 OFFCURVE",
"550 656 OFFCURVE",
"597 552 CURVE",
"502 500 LINE",
"478 567 OFFCURVE",
"429 609 OFFCURVE",
"348 609 CURVE SMOOTH",
"240 609 OFFCURVE",
"175 531 OFFCURVE",
"175 402 CURVE SMOOTH",
"175 296 LINE SMOOTH",
"175 167 OFFCURVE",
"240 89 OFFCURVE",
"348 89 CURVE SMOOTH",
"432 89 OFFCURVE",
"484 137 OFFCURVE",
"509 205 CURVE",
"600 150 LINE",
"553 49 OFFCURVE",
"469 -12 OFFCURVE",
"348 -12 CURVE SMOOTH"
);
}
);
width = 634;
}
);
leftKerningGroup = C;
rightKerningGroup = C;
unicode = 0043;
},
{
glyphname = D;
layers = (
{
layerId = "19C89ACC-DE1B-4ED2-AD26-76EE6DB054A2";
name = Regular;
paths = (
{
closed = 1;
nodes = (
"86 698 LINE",
"333 698 LINE SMOOTH",
"422 698 OFFCURVE",
"496 669 OFFCURVE",
"548 611 CURVE SMOOTH",
"599 553 OFFCURVE",
"628 465 OFFCURVE",
"628 349 CURVE SMOOTH",
"628 233 OFFCURVE",
"599 146 OFFCURVE",
"548 88 CURVE SMOOTH",
"496 30 OFFCURVE",
"422 0 OFFCURVE",
"333 0 CURVE SMOOTH",
"86 0 LINE"
);
},
{
closed = 1;
nodes = (
"333 100 LINE SMOOTH",
"437 100 OFFCURVE",
"507 166 OFFCURVE",
"507 293 CURVE SMOOTH",
"507 405 LINE SMOOTH",
"507 532 OFFCURVE",
"437 598 OFFCURVE",
"333 598 CURVE SMOOTH",
"199 598 LINE",
"199 100 LINE"
);
}
);
width = 683;
}
);
rightKerningGroup = D;
unicode = 0044;
},
{
glyphname = E;
layers = (
{
layerId = "19C89ACC-DE1B-4ED2-AD26-76EE6DB054A2";
name = Regular;
paths = (
{
closed = 1;
nodes = (
"86 0 LINE",
"86 698 LINE",
"533 698 LINE",
"533 598 LINE",
"199 598 LINE",
"199 404 LINE",
"502 404 LINE",
"502 304 LINE",
"199 304 LINE",
"199 100 LINE",
"533 100 LINE",
"533 0 LINE"
);
}
);
width = 593;
}
);
rightKerningGroup = E;
unicode = 0045;
},
{
glyphname = F;
layers = (
{
layerId = "19C89ACC-DE1B-4ED2-AD26-76EE6DB054A2";
name = Regular;
paths = (
{
closed = 1;
nodes = (
"86 0 LINE",
"86 698 LINE",
"522 698 LINE",
"522 598 LINE",
"199 598 LINE",
"199 404 LINE",
"486 404 LINE",
"486 304 LINE",
"199 304 LINE",
"199 0 LINE"
);
}
);
width = 570;
}
);
rightKerningGroup = F;
unicode = 0046;
},
{
glyphname = G;
layers = (
{
layerId = "19C89ACC-DE1B-4ED2-AD26-76EE6DB054A2";
name = Regular;
paths = (
{
closed = 1;
nodes = (
"535 106 LINE",
"531 106 LINE",
"516 38 OFFCURVE",
"450 -12 OFFCURVE",
"343 -12 CURVE SMOOTH",
"260 -12 OFFCURVE",
"188 20 OFFCURVE",
"137 81 CURVE SMOOTH",
"85 141 OFFCURVE",
"55 232 OFFCURVE",
"55 349 CURVE SMOOTH",
"55 465 OFFCURVE",
"86 556 OFFCURVE",
"139 617 CURVE SMOOTH",
"192 678 OFFCURVE",
"268 710 OFFCURVE",
"360 710 CURVE SMOOTH",
"485 710 OFFCURVE",
"572 652 OFFCURVE",
"620 553 CURVE",
"528 499 LINE",
"501 564 OFFCURVE",
"445 609 OFFCURVE",
"360 609 CURVE SMOOTH",
"249 609 OFFCURVE",
"176 535 OFFCURVE",
"176 406 CURVE SMOOTH",
"176 292 LINE SMOOTH",
"176 163 OFFCURVE",
"249 89 OFFCURVE",
"360 89 CURVE SMOOTH",
"404 89 OFFCURVE",
"446 101 OFFCURVE",
"476 123 CURVE SMOOTH",
"506 145 OFFCURVE",
"525 177 OFFCURVE",
"525 221 CURVE SMOOTH",
"525 275 LINE",
"381 275 LINE",
"381 372 LINE",
"634 372 LINE",
"634 0 LINE",
"535 0 LINE"
);
}
);
width = 705;
}
);
leftKerningGroup = C;
rightKerningGroup = G;
unicode = 0047;
},
{
glyphname = H;
layers = (
{
layerId = "19C89ACC-DE1B-4ED2-AD26-76EE6DB054A2";
name = Regular;
paths = (
{
closed = 1;
nodes = (
"515 304 LINE",
"199 304 LINE",
"199 0 LINE",
"86 0 LINE",
"86 698 LINE",
"199 698 LINE",
"199 404 LINE",
"515 404 LINE",
"515 698 LINE",
"628 698 LINE",
"628 0 LINE",
"515 0 LINE"
);
}
);
width = 714;
}
);
unicode = 0048;
},
{
glyphname = I;
lastChange = "2018-11-02 04:17:57 +0000";
layers = (
{
layerId = "19C89ACC-DE1B-4ED2-AD26-76EE6DB054A2";
name = Regular;
paths = (
{
closed = 1;
nodes = (
"86 698 LINE",
"199 698 LINE",
"199 0 LINE",
"86 0 LINE"
);
}
);
width = 285;
}
);
leftKerningGroup = I;
rightKerningGroup = I;
unicode = 0049;
},
{
glyphname = J;
lastChange = "2018-11-02 03:39:02 +0000";
layers = (
{
layerId = "19C89ACC-DE1B-4ED2-AD26-76EE6DB054A2";
name = Regular;
paths = (
{
closed = 1;
nodes = (
"336 202 LINE SMOOTH",
"336 126 OFFCURVE",
"297 89 OFFCURVE",
"237 89 CURVE SMOOTH",
"176 89 OFFCURVE",
"143 126 OFFCURVE",
"131 186 CURVE",
"27 163 LINE",
"46 59 OFFCURVE",
"116 -12 OFFCURVE",
"237 -12 CURVE SMOOTH",
"301 -12 OFFCURVE",
"355 8 OFFCURVE",
"392 44 CURVE SMOOTH",
"428 79 OFFCURVE",
"449 129 OFFCURVE",
"449 190 CURVE SMOOTH",
"449 698 LINE",
"336 698 LINE"
);
}
);
width = 531;
}
);
leftKerningGroup = J;
rightKerningGroup = J;
unicode = 004A;
},
{
glyphname = K;
layers = (
{
layerId = "19C89ACC-DE1B-4ED2-AD26-76EE6DB054A2";
name = Regular;
paths = (
{
closed = 1;
nodes = (
"295 326 LINE",
"199 216 LINE",
"199 0 LINE",
"86 0 LINE",
"86 698 LINE",
"199 698 LINE",
"199 344 LINE",
"203 344 LINE",
"303 471 LINE",
"491 698 LINE",
"623 698 LINE",
"374 404 LINE",
"643 0 LINE",
"507 0 LINE"
);
}
);
width = 660;
}
);
rightKerningGroup = K;
unicode = 004B;
},
{
glyphname = L;
layers = (
{
layerId = "19C89ACC-DE1B-4ED2-AD26-76EE6DB054A2";
name = Regular;
paths = (
{
closed = 1;
nodes = (
"86 0 LINE",
"86 698 LINE",
"199 698 LINE",
"199 100 LINE",
"483 100 LINE",
"483 0 LINE"
);
}
);
width = 513;
}
);
rightKerningGroup = L;
unicode = 004C;
},
{
glyphname = M;
layers = (
{
layerId = "19C89ACC-DE1B-4ED2-AD26-76EE6DB054A2";
name = Regular;
paths = (
{
closed = 1;
nodes = (
"620 534 LINE",
"615 534 LINE",
"560 421 LINE",
"407 142 LINE",
"254 421 LINE",
"199 534 LINE",
"194 534 LINE",
"194 0 LINE",
"86 0 LINE",
"86 698 LINE",
"220 698 LINE",
"407 343 LINE",
"413 343 LINE",
"600 698 LINE",
"728 698 LINE",
"728 0 LINE",
"620 0 LINE"
);
}
);
width = 814;
}
);
unicode = 004D;
},
{
glyphname = N;
layers = (
{
layerId = "19C89ACC-DE1B-4ED2-AD26-76EE6DB054A2";
name = Regular;
paths = (
{
closed = 1;
nodes = (
"274 386 LINE",
"197 534 LINE",
"194 534 LINE",
"194 0 LINE",
"86 0 LINE",
"86 698 LINE",
"212 698 LINE",
"440 312 LINE",
"517 164 LINE",
"520 164 LINE",
"520 698 LINE",
"628 698 LINE",
"628 0 LINE",
"502 0 LINE"
);
}
);
width = 714;
}
);
unicode = 004E;
},
{
glyphname = O;
layers = (
{
layerId = "19C89ACC-DE1B-4ED2-AD26-76EE6DB054A2";
name = Regular;
paths = (
{
closed = 1;
nodes = (
"265 -12 OFFCURVE",
"190 20 OFFCURVE",
"138 81 CURVE SMOOTH",
"85 141 OFFCURVE",
"55 232 OFFCURVE",
"55 349 CURVE SMOOTH",
"55 466 OFFCURVE",
"85 557 OFFCURVE",
"138 618 CURVE SMOOTH",
"190 678 OFFCURVE",
"265 710 OFFCURVE",
"356 710 CURVE SMOOTH",
"447 710 OFFCURVE",
"522 678 OFFCURVE",
"575 618 CURVE SMOOTH",
"627 557 OFFCURVE",
"657 466 OFFCURVE",
"657 349 CURVE SMOOTH",
"657 232 OFFCURVE",
"627 141 OFFCURVE",
"575 81 CURVE SMOOTH",
"522 20 OFFCURVE",
"447 -12 OFFCURVE",
"356 -12 CURVE SMOOTH"
);
},
{
closed = 1;
nodes = (
"409 89 OFFCURVE",
"455 108 OFFCURVE",
"487 144 CURVE SMOOTH",
"518 179 OFFCURVE",
"536 230 OFFCURVE",
"536 294 CURVE SMOOTH",
"536 404 LINE SMOOTH",
"536 468 OFFCURVE",
"518 519 OFFCURVE",
"487 555 CURVE SMOOTH",
"455 590 OFFCURVE",
"409 609 OFFCURVE",
"356 609 CURVE SMOOTH",
"301 609 OFFCURVE",
"257 590 OFFCURVE",
"226 555 CURVE SMOOTH",
"194 519 OFFCURVE",
"176 468 OFFCURVE",
"176 404 CURVE SMOOTH",
"176 294 LINE SMOOTH",
"176 230 OFFCURVE",
"194 179 OFFCURVE",
"226 144 CURVE SMOOTH",
"257 108 OFFCURVE",
"301 89 OFFCURVE",
"356 89 CURVE SMOOTH"
);
}
);
width = 712;
}
);
leftKerningGroup = C;
rightKerningGroup = O;
unicode = 004F;
},
{
glyphname = P;
layers = (
{
layerId = "19C89ACC-DE1B-4ED2-AD26-76EE6DB054A2";
name = Regular;
paths = (
{
closed = 1;
nodes = (
"86 0 LINE",
"86 698 LINE",
"386 698 LINE SMOOTH",
"515 698 OFFCURVE",
"589 616 OFFCURVE",
"589 488 CURVE SMOOTH",
"589 360 OFFCURVE",
"515 278 OFFCURVE",
"386 278 CURVE SMOOTH",
"199 278 LINE",
"199 0 LINE"
);
},
{
closed = 1;
nodes = (
"199 377 LINE",
"379 377 LINE SMOOTH",
"436 377 OFFCURVE",
"470 408 OFFCURVE",
"470 464 CURVE SMOOTH",
"470 512 LINE SMOOTH",
"470 568 OFFCURVE",
"436 599 OFFCURVE",
"379 599 CURVE SMOOTH",
"199 599 LINE"
);
}
);
width = 627;
}
);
rightKerningGroup = P;
unicode = 0050;
},
{
glyphname = Q;
layers = (
{
layerId = "19C89ACC-DE1B-4ED2-AD26-76EE6DB054A2";
name = Regular;
paths = (
{
closed = 1;
nodes = (
"523 -173 LINE",
"424 -173 LINE SMOOTH",
"345 -173 OFFCURVE",
"310 -130 OFFCURVE",
"310 -62 CURVE SMOOTH",
"310 -9 LINE",
"231 0 OFFCURVE",
"168 37 OFFCURVE",
"124 97 CURVE SMOOTH",
"80 157 OFFCURVE",
"55 242 OFFCURVE",
"55 349 CURVE SMOOTH",
"55 466 OFFCURVE",
"85 557 OFFCURVE",
"138 618 CURVE SMOOTH",
"190 678 OFFCURVE",
"265 710 OFFCURVE",
"356 710 CURVE SMOOTH",
"447 710 OFFCURVE",
"522 678 OFFCURVE",
"575 618 CURVE SMOOTH",
"627 557 OFFCURVE",
"657 466 OFFCURVE",
"657 349 CURVE SMOOTH",
"657 141 OFFCURVE",
"564 18 OFFCURVE",
"416 -7 CURVE",
"416 -79 LINE",
"523 -79 LINE"
);
},
{
closed = 1;
nodes = (
"409 89 OFFCURVE",
"455 108 OFFCURVE",
"487 144 CURVE SMOOTH",
"518 179 OFFCURVE",
"536 230 OFFCURVE",
"536 294 CURVE SMOOTH",
"536 404 LINE SMOOTH",
"536 468 OFFCURVE",
"518 519 OFFCURVE",
"487 555 CURVE SMOOTH",
"455 590 OFFCURVE",
"409 609 OFFCURVE",
"356 609 CURVE SMOOTH",
"301 609 OFFCURVE",
"257 590 OFFCURVE",
"226 555 CURVE SMOOTH",
"194 519 OFFCURVE",
"176 468 OFFCURVE",
"176 404 CURVE SMOOTH",
"176 294 LINE SMOOTH",
"176 230 OFFCURVE",
"194 179 OFFCURVE",
"226 144 CURVE SMOOTH",
"257 108 OFFCURVE",
"301 89 OFFCURVE",
"356 89 CURVE SMOOTH"
);
}
);
width = 712;
}
);
leftKerningGroup = C;
rightKerningGroup = O;
unicode = 0051;
},
{
glyphname = R;
layers = (
{
layerId = "19C89ACC-DE1B-4ED2-AD26-76EE6DB054A2";
name = Regular;
paths = (
{
closed = 1;
nodes = (
"199 0 LINE",
"86 0 LINE",
"86 698 LINE",
"387 698 LINE SMOOTH",
"512 698 OFFCURVE",
"589 617 OFFCURVE",
"589 488 CURVE SMOOTH",
"589 388 OFFCURVE",
"542 321 OFFCURVE",
"453 294 CURVE",
"604 0 LINE",
"478 0 LINE",
"338 282 LINE",
"199 282 LINE"
);
},
{
closed = 1;
nodes = (
"379 377 LINE SMOOTH",
"436 377 OFFCURVE",
"470 408 OFFCURVE",
"470 464 CURVE SMOOTH",
"470 512 LINE SMOOTH",
"470 568 OFFCURVE",
"436 599 OFFCURVE",
"379 599 CURVE SMOOTH",
"199 599 LINE",
"199 377 LINE"
);
}
);
width = 655;
}
);
rightKerningGroup = R;
unicode = 0052;
},
{
glyphname = S;
layers = (
{
layerId = "19C89ACC-DE1B-4ED2-AD26-76EE6DB054A2";
name = Regular;
paths = (
{
closed = 1;
nodes = (
"178 -12 OFFCURVE",
"99 34 OFFCURVE",
"40 106 CURVE",
"118 179 LINE",
"167 119 OFFCURVE",
"225 88 OFFCURVE",
"301 88 CURVE SMOOTH",
"390 88 OFFCURVE",
"436 131 OFFCURVE",
"436 199 CURVE SMOOTH",
"436 254 OFFCURVE",
"408 284 OFFCURVE",
"327 300 CURVE SMOOTH",
"265 311 LINE SMOOTH",
"129 336 OFFCURVE",
"61 398 OFFCURVE",
"61 510 CURVE SMOOTH",
"61 571 OFFCURVE",
"86 623 OFFCURVE",
"128 657 CURVE SMOOTH",
"170 691 OFFCURVE",
"230 710 OFFCURVE",
"305 710 CURVE SMOOTH",
"410 710 OFFCURVE",
"486 672 OFFCURVE",
"541 603 CURVE",
"462 533 LINE",
"426 580 OFFCURVE",
"376 610 OFFCURVE",
"299 610 CURVE SMOOTH",
"219 610 OFFCURVE",
"173 577 OFFCURVE",
"173 516 CURVE SMOOTH",
"173 457 OFFCURVE",
"208 433 OFFCURVE",
"284 418 CURVE SMOOTH",
"346 405 LINE SMOOTH",
"486 378 OFFCURVE",
"548 317 OFFCURVE",
"548 205 CURVE SMOOTH",
"548 140 OFFCURVE",
"525 86 OFFCURVE",
"482 48 CURVE SMOOTH",
"438 10 OFFCURVE",
"375 -12 OFFCURVE",
"295 -12 CURVE SMOOTH"
);
}
);
width = 598;
}
);
leftKerningGroup = S;
rightKerningGroup = S;
unicode = 0053;
},
{
glyphname = T;
layers = (
{
layerId = "19C89ACC-DE1B-4ED2-AD26-76EE6DB054A2";
name = Regular;
paths = (
{
closed = 1;
nodes = (
"345 598 LINE",
"345 0 LINE",
"232 0 LINE",
"232 598 LINE",
"24 598 LINE",
"24 698 LINE",
"553 698 LINE",
"553 598 LINE"
);
}
);
width = 577;
}
);
leftKerningGroup = T;
rightKerningGroup = T;
unicode = 0054;
},
{
glyphname = U;
layers = (
{
layerId = "19C89ACC-DE1B-4ED2-AD26-76EE6DB054A2";
name = Regular;
paths = (
{
closed = 1;
nodes = (
"193 698 LINE",
"193 268 LINE SMOOTH",
"193 149 OFFCURVE",
"234 89 OFFCURVE",
"343 89 CURVE SMOOTH",
"452 89 OFFCURVE",
"493 149 OFFCURVE",
"493 268 CURVE SMOOTH",
"493 698 LINE",
"604 698 LINE",
"604 286 LINE SMOOTH",
"604 183 OFFCURVE",
"586 109 OFFCURVE",
"545 61 CURVE SMOOTH",
"504 12 OFFCURVE",
"439 -12 OFFCURVE",
"343 -12 CURVE SMOOTH",
"247 -12 OFFCURVE",
"182 12 OFFCURVE",
"141 61 CURVE SMOOTH",
"100 109 OFFCURVE",
"82 183 OFFCURVE",
"82 286 CURVE SMOOTH",
"82 698 LINE"
);
}
);
width = 686;
}
);
leftKerningGroup = U;
rightKerningGroup = U;
unicode = 0055;
},
{
glyphname = V;
layers = (
{
layerId = "19C89ACC-DE1B-4ED2-AD26-76EE6DB054A2";
name = Regular;
paths = (
{
closed = 1;
nodes = (
"247 0 LINE",
"18 698 LINE",
"135 698 LINE",
"246 353 LINE",
"313 110 LINE",
"317 110 LINE",
"385 353 LINE",
"496 698 LINE",
"610 698 LINE",
"378 0 LINE"
);
}
);
width = 628;
}
);
leftKerningGroup = V;
rightKerningGroup = V;
unicode = 0056;
},
{
glyphname = W;
layers = (
{
layerId = "19C89ACC-DE1B-4ED2-AD26-76EE6DB054A2";
name = Regular;
paths = (
{
closed = 1;
nodes = (
"189 0 LINE",
"24 698 LINE",
"139 698 LINE",
"210 362 LINE",
"259 130 LINE",
"262 130 LINE",
"318 362 LINE",
"401 698 LINE",
"527 698 LINE",
"609 362 LINE",
"664 131 LINE",
"667 131 LINE",
"718 362 LINE",
"791 698 LINE",
"902 698 LINE",
"730 0 LINE",
"603 0 LINE",
"514 361 LINE",
"462 573 LINE",
"460 573 LINE",
"407 361 LINE",
"316 0 LINE"
);
}
);
width = 926;
}
);
leftKerningGroup = W;
rightKerningGroup = W;
unicode = 0057;
},
{
glyphname = X;
layers = (
{
layerId = "19C89ACC-DE1B-4ED2-AD26-76EE6DB054A2";
name = Regular;
paths = (
{
closed = 1;
nodes = (
"618 0 LINE",
"485 0 LINE",
"316 278 LINE",
"313 278 LINE",
"146 0 LINE",
"21 0 LINE",
"247 357 LINE",
"29 698 LINE",
"162 698 LINE",
"321 438 LINE",
"323 438 LINE",
"484 698 LINE",
"609 698 LINE",
"389 358 LINE"
);
}
);
width = 639;
}
);
leftKerningGroup = X;
rightKerningGroup = X;
unicode = 0058;
},
{
glyphname = Y;
layers = (
{
layerId = "19C89ACC-DE1B-4ED2-AD26-76EE6DB054A2";
name = Regular;
paths = (
{
closed = 1;
nodes = (
"251 0 LINE",
"251 275 LINE",
"11 698 LINE",
"140 698 LINE",
"310 387 LINE",
"313 387 LINE",
"482 698 LINE",
"606 698 LINE",
"364 277 LINE",
"364 0 LINE"
);
}
);
width = 617;
}
);
leftKerningGroup = Y;
rightKerningGroup = Y;
unicode = 0059;
},
{
glyphname = Z;
layers = (
{
layerId = "19C89ACC-DE1B-4ED2-AD26-76EE6DB054A2";
name = Regular;
paths = (
{
closed = 1;
nodes = (
"554 0 LINE",
"37 0 LINE",
"37 101 LINE",
"416 598 LINE",
"57 598 LINE",
"57 698 LINE",
"543 698 LINE",
"543 597 LINE",
"164 100 LINE",
"554 100 LINE"
);
}
);
width = 591;
}
);
leftKerningGroup = Z;
rightKerningGroup = Z;
unicode = 005A;
},
{
glyphname = zero;
layers = (
{
layerId = "19C89ACC-DE1B-4ED2-AD26-76EE6DB054A2";
name = Regular;
paths = (
{
closed = 1;
nodes = (
"213 -12 OFFCURVE",
"149 22 OFFCURVE",
"108 83 CURVE SMOOTH",
"67 144 OFFCURVE",
"47 234 OFFCURVE",
"47 349 CURVE SMOOTH",
"47 462 OFFCURVE",
"67 554 OFFCURVE",
"108 615 CURVE SMOOTH",
"149 676 OFFCURVE",
"213 710 OFFCURVE",
"300 710 CURVE SMOOTH",
"473 710 OFFCURVE",
"553 577 OFFCURVE",
"553 349 CURVE SMOOTH",
"553 121 OFFCURVE",
"473 -12 OFFCURVE",
"300 -12 CURVE SMOOTH"
);
},
{
closed = 1;
nodes = (
"348 84 OFFCURVE",
"382 104 OFFCURVE",
"403 140 CURVE SMOOTH",
"424 176 OFFCURVE",
"433 227 OFFCURVE",
"433 288 CURVE SMOOTH",
"433 410 LINE SMOOTH",
"433 471 OFFCURVE",
"424 522 OFFCURVE",
"403 558 CURVE SMOOTH",
"382 594 OFFCURVE",
"348 614 OFFCURVE",
"300 614 CURVE SMOOTH",
"252 614 OFFCURVE",
"218 594 OFFCURVE",
"197 558 CURVE SMOOTH",
"176 522 OFFCURVE",
"167 471 OFFCURVE",
"167 410 CURVE SMOOTH",
"167 288 LINE SMOOTH",
"167 227 OFFCURVE",
"176 176 OFFCURVE",
"197 140 CURVE SMOOTH",
"218 104 OFFCURVE",
"252 84 OFFCURVE",
"300 84 CURVE SMOOTH"
);
}
);
width = 600;
}
);
unicode = 0030;
},
{
glyphname = one;
lastChange = "2018-11-04 17:13:36 +0000";
layers = (
{
layerId = "19C89ACC-DE1B-4ED2-AD26-76EE6DB054A2";
name = Regular;
paths = (
{
closed = 1;
nodes = (
"66 617 LINE",
"66 509 LINE",
"216 596 LINE",
"216 0 LINE",
"327 0 LINE",
"327 698 LINE",
"208 698 LINE"
);
}
);
width = 450;
}
);
unicode = 0031;
},
{
glyphname = two;
layers = (
{
layerId = "19C89ACC-DE1B-4ED2-AD26-76EE6DB054A2";
name = Regular;
paths = (
{
closed = 1;
nodes = (
"541 0 LINE",
"67 0 LINE",
"67 108 LINE",
"290 307 LINE SMOOTH",
"361 371 OFFCURVE",
"400 426 OFFCURVE",
"400 490 CURVE SMOOTH",
"400 503 LINE SMOOTH",
"400 571 OFFCURVE",
"356 612 OFFCURVE",
"287 612 CURVE SMOOTH",
"248 612 OFFCURVE",
"220 600 OFFCURVE",
"199 580 CURVE SMOOTH",
"178 560 OFFCURVE",
"164 533 OFFCURVE",
"156 502 CURVE",
"57 540 LINE",
"72 584 OFFCURVE",
"96 626 OFFCURVE",
"135 658 CURVE SMOOTH",
"174 690 OFFCURVE",
"225 710 OFFCURVE",
"296 710 CURVE SMOOTH",
"367 710 OFFCURVE",
"424 688 OFFCURVE",
"462 652 CURVE SMOOTH",
"500 615 OFFCURVE",
"520 563 OFFCURVE",
"520 503 CURVE SMOOTH",
"520 447 OFFCURVE",
"502 400 OFFCURVE",
"471 357 CURVE SMOOTH",
"440 314 OFFCURVE",
"398 277 OFFCURVE",
"353 237 CURVE SMOOTH",
"189 96 LINE",
"541 96 LINE"
);
}
);
width = 600;
}
);
unicode = 0032;
},
{
glyphname = three;
layers = (
{
layerId = "19C89ACC-DE1B-4ED2-AD26-76EE6DB054A2";
name = Regular;
paths = (
{
closed = 1;
nodes = (
"262 411 LINE SMOOTH",
"349 411 OFFCURVE",
"389 452 OFFCURVE",
"389 509 CURVE SMOOTH",
"389 516 LINE SMOOTH",
"389 580 OFFCURVE",
"346 615 OFFCURVE",
"278 615 CURVE SMOOTH",
"211 615 OFFCURVE",
"166 583 OFFCURVE",
"134 530 CURVE",
"59 595 LINE",
"80 626 OFFCURVE",
"106 655 OFFCURVE",
"142 676 CURVE SMOOTH",
"178 696 OFFCURVE",
"222 710 OFFCURVE",
"281 710 CURVE SMOOTH",
"346 710 OFFCURVE",
"404 694 OFFCURVE",
"444 663 CURVE SMOOTH",
"484 631 OFFCURVE",
"508 586 OFFCURVE",
"508 530 CURVE SMOOTH",
"508 486 OFFCURVE",
"493 450 OFFCURVE",
"469 423 CURVE SMOOTH",
"444 395 OFFCURVE",
"410 378 OFFCURVE",
"374 370 CURVE",
"374 365 LINE",
"414 357 OFFCURVE",
"450 339 OFFCURVE",
"477 311 CURVE SMOOTH",
"504 282 OFFCURVE",
"520 243 OFFCURVE",
"520 192 CURVE SMOOTH",
"520 131 OFFCURVE",
"495 80 OFFCURVE",
"452 44 CURVE SMOOTH",
"408 8 OFFCURVE",
"346 -12 OFFCURVE",
"271 -12 CURVE SMOOTH",
"206 -12 OFFCURVE",
"158 3 OFFCURVE",
"120 27 CURVE SMOOTH",
"82 50 OFFCURVE",
"53 81 OFFCURVE",
"32 113 CURVE",
"115 178 LINE",
"132 150 OFFCURVE",
"151 126 OFFCURVE",
"176 110 CURVE",
"200 93 OFFCURVE",
"231 83 OFFCURVE",
"271 83 CURVE SMOOTH",
"356 83 OFFCURVE",
"403 126 OFFCURVE",
"403 198 CURVE SMOOTH",
"403 205 LINE SMOOTH",
"403 277 OFFCURVE",
"353 315 OFFCURVE",
"265 315 CURVE SMOOTH",
"191 315 LINE",
"191 411 LINE"
);
}
);
width = 600;
}
);
unicode = 0033;
},
{
glyphname = four;
layers = (
{
layerId = "19C89ACC-DE1B-4ED2-AD26-76EE6DB054A2";
name = Regular;
paths = (
{
closed = 1;
nodes = (
"359 0 LINE",
"359 136 LINE",
"35 136 LINE",
"35 233 LINE",
"318 698 LINE",
"466 698 LINE",
"466 225 LINE",
"561 225 LINE",
"561 136 LINE",
"466 136 LINE",
"466 0 LINE"
);
},
{
closed = 1;
nodes = (
"131 225 LINE",
"359 225 LINE",
"359 595 LINE",
"352 595 LINE"
);
}
);
width = 600;
}
);
unicode = 0034;
},
{
glyphname = five;
layers = (
{
layerId = "19C89ACC-DE1B-4ED2-AD26-76EE6DB054A2";
name = Regular;
paths = (
{
closed = 1;
nodes = (
"508 600 LINE",
"198 600 LINE",
"180 353 LINE",
"187 353 LINE",
"203 381 OFFCURVE",
"219 403 OFFCURVE",
"242 419 CURVE SMOOTH",
"265 435 OFFCURVE",
"293 444 OFFCURVE",
"333 444 CURVE SMOOTH",
"393 444 OFFCURVE",
"446 423 OFFCURVE",
"484 386 CURVE SMOOTH",
"522 349 OFFCURVE",
"544 294 OFFCURVE",
"544 226 CURVE SMOOTH",
"544 157 OFFCURVE",
"522 97 OFFCURVE",
"479 55 CURVE SMOOTH",
"436 13 OFFCURVE",
"374 -12 OFFCURVE",
"295 -12 CURVE SMOOTH",
"232 -12 OFFCURVE",
"185 3 OFFCURVE",
"149 27 CURVE SMOOTH",
"112 50 OFFCURVE",
"85 81 OFFCURVE",
"64 113 CURVE",
"146 178 LINE",
"163 150 OFFCURVE",
"181 127 OFFCURVE",
"205 110 CURVE SMOOTH",
"229 93 OFFCURVE",
"258 83 OFFCURVE",
"297 83 CURVE SMOOTH",
"380 83 OFFCURVE",
"426 131 OFFCURVE",
"426 211 CURVE SMOOTH",
"426 223 LINE SMOOTH",
"426 303 OFFCURVE",
"380 351 OFFCURVE",
"297 351 CURVE SMOOTH",
"237 351 OFFCURVE",
"204 324 OFFCURVE",
"179 296 CURVE",
"86 309 LINE",
"112 698 LINE",
"508 698 LINE"
);
}
);
width = 600;
}
);
unicode = 0035;
},
{
glyphname = six;
layers = (
{
layerId = "19C89ACC-DE1B-4ED2-AD26-76EE6DB054A2";
name = Regular;
paths = (
{
closed = 1;
nodes = (
"225 -12 OFFCURVE",
"164 14 OFFCURVE",
"122 62 CURVE SMOOTH",
"80 109 OFFCURVE",
"56 176 OFFCURVE",
"56 260 CURVE SMOOTH",
"56 361 OFFCURVE",
"90 451 OFFCURVE",
"138 526 CURVE SMOOTH",
"186 601 OFFCURVE",
"249 659 OFFCURVE",
"306 698 CURVE",
"456 698 LINE",
"377 641 OFFCURVE",
"315 589 OFFCURVE",
"268 533 CURVE SMOOTH",
"221 477 OFFCURVE",
"190 416 OFFCURVE",
"173 341 CURVE",
"180 339 LINE",
"195 367 OFFCURVE",
"214 392 OFFCURVE",
"240 411 CURVE SMOOTH",
"266 430 OFFCURVE",
"298 441 OFFCURVE",
"342 441 CURVE SMOOTH",
"401 441 OFFCURVE",
"452 421 OFFCURVE",
"489 383 CURVE SMOOTH",
"525 345 OFFCURVE",
"547 290 OFFCURVE",
"547 225 CURVE SMOOTH",
"547 154 OFFCURVE",
"523 95 OFFCURVE",
"480 54 CURVE SMOOTH",
"437 13 OFFCURVE",
"375 -12 OFFCURVE",
"302 -12 CURVE SMOOTH"
);
},
{
closed = 1;
nodes = (
"383 80 OFFCURVE",
"431 124 OFFCURVE",
"431 208 CURVE SMOOTH",
"431 222 LINE SMOOTH",
"431 306 OFFCURVE",
"383 350 OFFCURVE",
"302 350 CURVE SMOOTH",
"221 350 OFFCURVE",
"173 306 OFFCURVE",
"173 222 CURVE SMOOTH",
"173 208 LINE SMOOTH",
"173 124 OFFCURVE",
"221 80 OFFCURVE",
"302 80 CURVE SMOOTH"
);
}
);
width = 600;
}
);
unicode = 0036;
},
{
glyphname = seven;
lastChange = "2018-11-02 04:43:34 +0000";
layers = (
{
layerId = "19C89ACC-DE1B-4ED2-AD26-76EE6DB054A2";
name = Regular;
paths = (
{
closed = 1;
nodes = (
"63 605 LINE",
"424 605 LINE",
"171 0 LINE",
"290 0 LINE",
"536 600 LINE",
"536 698 LINE",
"63 698 LINE"
);
}
);
width = 600;
}
);
unicode = 0037;
},
{
glyphname = eight;
layers = (
{
layerId = "19C89ACC-DE1B-4ED2-AD26-76EE6DB054A2";
name = Regular;
paths = (
{
closed = 1;
nodes = (
"219 -12 OFFCURVE",
"157 10 OFFCURVE",
"115 46 CURVE SMOOTH",
"73 82 OFFCURVE",
"50 133 OFFCURVE",
"50 190 CURVE SMOOTH",
"50 283 OFFCURVE",
"106 339 OFFCURVE",
"190 362 CURVE",
"190 370 LINE",
"118 395 OFFCURVE",
"71 451 OFFCURVE",
"71 531 CURVE SMOOTH",
"71 584 OFFCURVE",
"92 629 OFFCURVE",
"131 661 CURVE SMOOTH",
"170 692 OFFCURVE",
"228 710 OFFCURVE",
"300 710 CURVE SMOOTH",
"372 710 OFFCURVE",
"430 692 OFFCURVE",
"469 661 CURVE SMOOTH",
"508 629 OFFCURVE",
"529 584 OFFCURVE",
"529 531 CURVE SMOOTH",
"529 451 OFFCURVE",
"482 395 OFFCURVE",
"410 370 CURVE",
"410 362 LINE",
"494 339 OFFCURVE",
"550 283 OFFCURVE",
"550 190 CURVE SMOOTH",
"550 133 OFFCURVE",
"528 82 OFFCURVE",
"486 46 CURVE SMOOTH",
"444 10 OFFCURVE",
"381 -12 OFFCURVE",
"300 -12 CURVE SMOOTH"
);
},
{
closed = 1;
nodes = (
"384 79 OFFCURVE",
"432 120 OFFCURVE",
"432 189 CURVE SMOOTH",
"432 209 LINE SMOOTH",
"432 278 OFFCURVE",
"384 319 OFFCURVE",
"300 319 CURVE SMOOTH",
"216 319 OFFCURVE",
"168 278 OFFCURVE",
"168 209 CURVE SMOOTH",
"168 189 LINE SMOOTH",
"168 120 OFFCURVE",
"216 79 OFFCURVE",
"300 79 CURVE SMOOTH"
);
},
{
closed = 1;
nodes = (
"377 406 OFFCURVE",
"419 440 OFFCURVE",
"419 504 CURVE SMOOTH",
"419 521 LINE SMOOTH",
"419 585 OFFCURVE",
"377 619 OFFCURVE",
"300 619 CURVE SMOOTH",
"223 619 OFFCURVE",
"181 585 OFFCURVE",
"181 521 CURVE SMOOTH",
"181 504 LINE SMOOTH",
"181 440 OFFCURVE",
"223 406 OFFCURVE",
"300 406 CURVE SMOOTH"
);
}
);
width = 600;
}
);
unicode = 0038;
},
{
glyphname = nine;
layers = (
{
layerId = "19C89ACC-DE1B-4ED2-AD26-76EE6DB054A2";
name = Regular;
paths = (
{
closed = 1;
nodes = (
"544 337 OFFCURVE",
"510 247 OFFCURVE",
"462 172 CURVE SMOOTH",
"414 97 OFFCURVE",
"351 37 OFFCURVE",
"294 0 CURVE",
"144 0 LINE",
"223 57 OFFCURVE",
"285 109 OFFCURVE",
"332 165 CURVE SMOOTH",
"379 221 OFFCURVE",
"410 282 OFFCURVE",
"427 357 CURVE",
"420 359 LINE",
"405 331 OFFCURVE",
"387 306 OFFCURVE",
"361 287 CURVE SMOOTH",
"335 268 OFFCURVE",
"302 257 OFFCURVE",
"258 257 CURVE SMOOTH",
"199 257 OFFCURVE",
"148 278 OFFCURVE",
"112 316 CURVE SMOOTH",
"75 354 OFFCURVE",
"53 406 OFFCURVE",
"53 473 CURVE SMOOTH",
"53 542 OFFCURVE",
"77 603 OFFCURVE",
"120 644 CURVE SMOOTH",
"163 685 OFFCURVE",
"223 710 OFFCURVE",
"298 710 CURVE SMOOTH",
"375 710 OFFCURVE",
"437 684 OFFCURVE",
"479 637 CURVE SMOOTH",
"521 589 OFFCURVE",
"544 522 OFFCURVE",
"544 438 CURVE SMOOTH"
);
},
{
closed = 1;
nodes = (
"379 348 OFFCURVE",
"427 392 OFFCURVE",
"427 476 CURVE SMOOTH",
"427 490 LINE SMOOTH",
"427 574 OFFCURVE",
"379 618 OFFCURVE",
"298 618 CURVE SMOOTH",
"217 618 OFFCURVE",
"169 574 OFFCURVE",
"169 490 CURVE SMOOTH",
"169 476 LINE SMOOTH",
"169 392 OFFCURVE",
"217 348 OFFCURVE",
"298 348 CURVE SMOOTH"
);
}
);
width = 600;
}
);
unicode = 0039;
},
{
glyphname = ampersand;
layers = (
{
layerId = "19C89ACC-DE1B-4ED2-AD26-76EE6DB054A2";
name = Regular;
paths = (
{
closed = 1;
nodes = (
"489 71 LINE",
"472 54 OFFCURVE",
"447 33 OFFCURVE",
"415 17 CURVE SMOOTH",
"382 0 OFFCURVE",
"340 -12 OFFCURVE",
"287 -12 CURVE SMOOTH",
"215 -12 OFFCURVE",
"159 9 OFFCURVE",
"121 44 CURVE SMOOTH",
"83 79 OFFCURVE",
"63 127 OFFCURVE",
"63 182 CURVE SMOOTH",
"63 231 OFFCURVE",
"80 270 OFFCURVE",
"106 302 CURVE SMOOTH",
"132 333 OFFCURVE",
"166 357 OFFCURVE",
"205 378 CURVE",
"161 425 OFFCURVE",
"126 479 OFFCURVE",
"126 542 CURVE SMOOTH",
"126 589 OFFCURVE",
"145 632 OFFCURVE",
"178 662 CURVE SMOOTH",
"211 692 OFFCURVE",
"260 710 OFFCURVE",
"317 710 CURVE SMOOTH",
"370 710 OFFCURVE",
"417 695 OFFCURVE",
"450 668 CURVE SMOOTH",
"483 641 OFFCURVE",
"502 603 OFFCURVE",
"502 556 CURVE SMOOTH",
"502 511 OFFCURVE",
"485 475 OFFCURVE",
"457 445 CURVE SMOOTH",
"429 415 OFFCURVE",
"391 389 OFFCURVE",
"350 365 CURVE",
"486 218 LINE",
"505 266 OFFCURVE",
"515 320 OFFCURVE",
"518 375 CURVE",
"667 375 LINE",
"667 283 LINE",
"599 283 LINE",
"589 232 OFFCURVE",
"574 187 OFFCURVE",
"553 148 CURVE",
"690 0 LINE",
"554 0 LINE"
);
},
{
closed = 1;
nodes = (
"269 623 OFFCURVE",
"231 592 OFFCURVE",
"231 545 CURVE SMOOTH",
"231 537 LINE SMOOTH",
"231 502 OFFCURVE",
"254 470 OFFCURVE",
"295 425 CURVE",
"351 456 OFFCURVE",
"397 493 OFFCURVE",
"397 542 CURVE SMOOTH",
"397 550 LINE SMOOTH",
"397 597 OFFCURVE",
"365 623 OFFCURVE",
"317 623 CURVE SMOOTH"
);
},
{
closed = 1;
nodes = (
"356 81 OFFCURVE",
"398 101 OFFCURVE",
"430 134 CURVE",
"260 317 LINE",
"209 289 OFFCURVE",
"175 259 OFFCURVE",
"175 199 CURVE SMOOTH",
"175 186 LINE SMOOTH",
"175 122 OFFCURVE",
"221 81 OFFCURVE",
"300 81 CURVE SMOOTH"
);
}
);
width = 707;
}
);
leftKerningGroup = ampersand;
rightKerningGroup = ampersand;
unicode = 0026;
},
{
glyphname = at;
layers = (
{
layerId = "19C89ACC-DE1B-4ED2-AD26-76EE6DB054A2";
name = Regular;
paths = (
{
closed = 1;
nodes = (
"676 -121 LINE",
"453 -121 LINE SMOOTH",
"333 -121 OFFCURVE",
"236 -80 OFFCURVE",
"169 -8 CURVE SMOOTH",
"101 64 OFFCURVE",
"63 166 OFFCURVE",
"63 289 CURVE SMOOTH",
"63 412 OFFCURVE",
"102 517 OFFCURVE",
"171 591 CURVE SMOOTH",
"239 665 OFFCURVE",
"339 708 OFFCURVE",
"459 708 CURVE SMOOTH",
"562 708 OFFCURVE",
"656 677 OFFCURVE",
"724 614 CURVE SMOOTH",
"792 550 OFFCURVE",
"835 456 OFFCURVE",
"835 328 CURVE SMOOTH",
"835 255 OFFCURVE",
"821 191 OFFCURVE",
"791 146 CURVE SMOOTH",
"761 101 OFFCURVE",
"715 74 OFFCURVE",
"655 74 CURVE SMOOTH",
"587 74 OFFCURVE",
"549 110 OFFCURVE",
"544 163 CURVE",
"539 163 LINE",
"519 108 OFFCURVE",
"480 74 OFFCURVE",
"419 74 CURVE SMOOTH",
"374 74 OFFCURVE",
"333 92 OFFCURVE",
"303 128 CURVE SMOOTH",
"273 163 OFFCURVE",
"254 217 OFFCURVE",
"254 289 CURVE SMOOTH",
"254 361 OFFCURVE",
"273 415 OFFCURVE",
"303 451 CURVE SMOOTH",
"333 486 OFFCURVE",
"374 504 OFFCURVE",
"419 504 CURVE SMOOTH",
"480 504 OFFCURVE",
"513 470 OFFCURVE",
"528 427 CURVE",
"533 427 LINE",
"533 495 LINE",
"620 495 LINE",
"620 205 LINE SMOOTH",
"620 161 OFFCURVE",
"637 146 OFFCURVE",
"670 146 CURVE SMOOTH",
"726 146 OFFCURVE",
"757 206 OFFCURVE",
"757 314 CURVE SMOOTH",
"757 353 LINE SMOOTH",
"757 440 OFFCURVE",
"725 511 OFFCURVE",
"672 560 CURVE SMOOTH",
"619 608 OFFCURVE",
"543 636 OFFCURVE",
"458 636 CURVE SMOOTH",
"363 636 OFFCURVE",
"284 601 OFFCURVE",
"229 545 CURVE SMOOTH",
"173 488 OFFCURVE",
"141 408 OFFCURVE",
"141 316 CURVE SMOOTH",
"141 266 LINE SMOOTH",
"141 173 OFFCURVE",
"172 95 OFFCURVE",
"227 40 CURVE SMOOTH",
"282 -16 OFFCURVE",
"359 -48 OFFCURVE",
"454 -48 CURVE SMOOTH",
"676 -48 LINE"
);
},
{
closed = 1;
nodes = (
"501 151 OFFCURVE",
"533 185 OFFCURVE",
"533 233 CURVE SMOOTH",
"533 353 LINE SMOOTH",
"533 396 OFFCURVE",
"501 428 OFFCURVE",
"445 428 CURVE SMOOTH",
"384 428 OFFCURVE",
"351 388 OFFCURVE",
"351 328 CURVE SMOOTH",
"351 251 LINE SMOOTH",
"351 191 OFFCURVE",
"384 151 OFFCURVE",
"445 151 CURVE SMOOTH"
);
}
);
width = 896;
}
);
leftKerningGroup = at;
rightKerningGroup = at;
unicode = 0040;
},
{
glyphname = hyphen;
layers = (
{
layerId = "19C89ACC-DE1B-4ED2-AD26-76EE6DB054A2";
name = Regular;
paths = (
{
closed = 1;
nodes = (
"62 249 LINE",
"62 360 LINE",
"339 360 LINE",
"339 249 LINE"
);
}
);
width = 401;
}
);
leftKerningGroup = hyphen;
rightKerningGroup = hyphen;
unicode = 002D;
},
{
glyphname = uni00AD;
layers = (
{
layerId = "19C89ACC-DE1B-4ED2-AD26-76EE6DB054A2";
name = Regular;
paths = (
{
closed = 1;
nodes = (
"62 249 LINE",
"62 360 LINE",
"339 360 LINE",
"339 249 LINE"
);
}
);
width = 401;
}
);
leftKerningGroup = hyphen;
rightKerningGroup = hyphen;
unicode = 00AD;
},
{
glyphname = endash;
layers = (
{
layerId = "19C89ACC-DE1B-4ED2-AD26-76EE6DB054A2";
name = Regular;
paths = (
{
closed = 1;
nodes = (
"36 257 LINE",
"36 351 LINE",
"552 351 LINE",
"552 257 LINE"
);
}
);
width = 588;
}
);
leftKerningGroup = hyphen;
rightKerningGroup = hyphen;
unicode = 2013;
},
{
glyphname = emdash;
layers = (
{
layerId = "19C89ACC-DE1B-4ED2-AD26-76EE6DB054A2";
name = Regular;
paths = (
{
closed = 1;
nodes = (
"36 257 LINE",
"36 351 LINE",
"744 351 LINE",
"744 257 LINE"
);
}
);
width = 780;
}
);
leftKerningGroup = hyphen;
rightKerningGroup = hyphen;
unicode = 2014;
},
{
glyphname = underscore;
layers = (
{
layerId = "19C89ACC-DE1B-4ED2-AD26-76EE6DB054A2";
name = Regular;
paths = (
{
closed = 1;
nodes = (
"30 -176 LINE",
"30 -82 LINE",
"531 -82 LINE",
"531 -176 LINE"
);
}
);
width = 561;
}
);
leftKerningGroup = underscore;
rightKerningGroup = underscore;
unicode = 005F;
},
{
glyphname = period;
layers = (
{
layerId = "19C89ACC-DE1B-4ED2-AD26-76EE6DB054A2";
name = Regular;
paths = (
{
closed = 1;
nodes = (
"96 -12 OFFCURVE",
"72 17 OFFCURVE",
"72 56 CURVE SMOOTH",
"72 71 LINE SMOOTH",
"72 110 OFFCURVE",
"96 139 OFFCURVE",
"145 139 CURVE SMOOTH",
"194 139 OFFCURVE",
"218 110 OFFCURVE",
"218 71 CURVE SMOOTH",
"218 56 LINE SMOOTH",
"218 17 OFFCURVE",
"194 -12 OFFCURVE",
"145 -12 CURVE SMOOTH"
);
}
);
width = 290;
}
);
leftKerningGroup = period;
rightKerningGroup = period;
unicode = 002E;
},
{
glyphname = ellipsis;
layers = (
{
layerId = "19C89ACC-DE1B-4ED2-AD26-76EE6DB054A2";
name = Regular;
paths = (
{
closed = 1;
nodes = (
"96 -12 OFFCURVE",
"72 17 OFFCURVE",
"72 56 CURVE SMOOTH",
"72 71 LINE SMOOTH",
"72 110 OFFCURVE",
"96 139 OFFCURVE",
"145 139 CURVE SMOOTH",
"194 139 OFFCURVE",
"218 110 OFFCURVE",
"218 71 CURVE SMOOTH",
"218 56 LINE SMOOTH",
"218 17 OFFCURVE",
"194 -12 OFFCURVE",
"145 -12 CURVE SMOOTH"
);
},
{
closed = 1;
nodes = (
"373 -12 OFFCURVE",
"349 17 OFFCURVE",
"349 56 CURVE SMOOTH",
"349 71 LINE SMOOTH",
"349 110 OFFCURVE",
"373 139 OFFCURVE",
"422 139 CURVE SMOOTH",
"471 139 OFFCURVE",
"495 110 OFFCURVE",
"495 71 CURVE SMOOTH",
"495 56 LINE SMOOTH",
"495 17 OFFCURVE",
"471 -12 OFFCURVE",
"422 -12 CURVE SMOOTH"
);
},
{
closed = 1;
nodes = (
"652 -12 OFFCURVE",
"628 17 OFFCURVE",
"628 56 CURVE SMOOTH",
"628 71 LINE SMOOTH",
"628 110 OFFCURVE",
"652 139 OFFCURVE",
"701 139 CURVE SMOOTH",
"750 139 OFFCURVE",
"774 110 OFFCURVE",
"774 71 CURVE SMOOTH",
"774 56 LINE SMOOTH",
"774 17 OFFCURVE",
"750 -12 OFFCURVE",
"701 -12 CURVE SMOOTH"
);
}
);
width = 846;
}
);
leftKerningGroup = period;
rightKerningGroup = period;
unicode = 2026;
},
{
glyphname = colon;
layers = (
{
layerId = "19C89ACC-DE1B-4ED2-AD26-76EE6DB054A2";
name = Regular;
paths = (
{
closed = 1;
nodes = (
"106 -12 OFFCURVE",
"82 17 OFFCURVE",
"82 56 CURVE SMOOTH",
"82 71 LINE SMOOTH",
"82 110 OFFCURVE",
"106 139 OFFCURVE",
"155 139 CURVE SMOOTH",
"204 139 OFFCURVE",
"228 110 OFFCURVE",
"228 71 CURVE SMOOTH",
"228 56 LINE SMOOTH",
"228 17 OFFCURVE",
"204 -12 OFFCURVE",
"155 -12 CURVE SMOOTH"
);
},
{
closed = 1;
nodes = (
"106 376 OFFCURVE",
"82 405 OFFCURVE",
"82 444 CURVE SMOOTH",
"82 459 LINE SMOOTH",
"82 498 OFFCURVE",
"106 527 OFFCURVE",
"155 527 CURVE SMOOTH",
"204 527 OFFCURVE",
"228 498 OFFCURVE",
"228 459 CURVE SMOOTH",
"228 444 LINE SMOOTH",
"228 405 OFFCURVE",
"204 376 OFFCURVE",
"155 376 CURVE SMOOTH"
);
}
);
width = 310;
}
);
leftKerningGroup = colon;
unicode = 003A;
},
{
glyphname = comma;
layers = (
{
layerId = "19C89ACC-DE1B-4ED2-AD26-76EE6DB054A2";
name = Regular;
paths = (
{
closed = 1;
nodes = (
"194 139 OFFCURVE",
"218 111 OFFCURVE",
"218 71 CURVE SMOOTH",
"218 55 LINE SMOOTH",
"218 -10 OFFCURVE",
"180 -89 OFFCURVE",
"120 -138 CURVE",
"39 -138 LINE",
"82 -95 OFFCURVE",
"109 -58 OFFCURVE",
"124 -9 CURVE",
"89 -2 OFFCURVE",
"72 23 OFFCURVE",
"72 55 CURVE SMOOTH",
"72 71 LINE SMOOTH",
"72 111 OFFCURVE",
"96 139 OFFCURVE",
"145 139 CURVE SMOOTH"
);
}
);
width = 289;
}
);
leftKerningGroup = period;
rightKerningGroup = period;
unicode = 002C;
},
{
glyphname = semicolon;
layers = (
{
layerId = "19C89ACC-DE1B-4ED2-AD26-76EE6DB054A2";
name = Regular;
paths = (
{
closed = 1;
nodes = (
"203 139 OFFCURVE",
"227 111 OFFCURVE",
"227 71 CURVE SMOOTH",
"227 55 LINE SMOOTH",
"227 -10 OFFCURVE",
"189 -89 OFFCURVE",
"129 -138 CURVE",
"48 -138 LINE",
"91 -95 OFFCURVE",
"118 -58 OFFCURVE",
"133 -9 CURVE",
"98 -2 OFFCURVE",
"81 23 OFFCURVE",
"81 55 CURVE SMOOTH",
"81 71 LINE SMOOTH",
"81 111 OFFCURVE",
"105 139 OFFCURVE",
"154 139 CURVE SMOOTH"
);
},
{
closed = 1;
nodes = (
"106 376 OFFCURVE",
"82 405 OFFCURVE",
"82 444 CURVE SMOOTH",
"82 459 LINE SMOOTH",
"82 498 OFFCURVE",
"106 527 OFFCURVE",
"155 527 CURVE SMOOTH",
"204 527 OFFCURVE",
"228 498 OFFCURVE",
"228 459 CURVE SMOOTH",
"228 444 LINE SMOOTH",
"228 405 OFFCURVE",
"204 376 OFFCURVE",
"155 376 CURVE SMOOTH"
);
}
);
width = 309;
}
);
leftKerningGroup = colon;
unicode = 003B;
},
{
glyphname = quotesingle;
layers = (
{
layerId = "19C89ACC-DE1B-4ED2-AD26-76EE6DB054A2";
name = Regular;
paths = (
{
closed = 1;
nodes = (
"78 440 LINE",
"78 740 LINE",
"175 740 LINE",
"175 440 LINE"
);
}
);
width = 253;
}
);
leftKerningGroup = quotesingle;
rightKerningGroup = quotesingle;
unicode = 0027;
},
{
glyphname = quotedbl;
layers = (
{
layerId = "19C89ACC-DE1B-4ED2-AD26-76EE6DB054A2";
name = Regular;
paths = (
{
closed = 1;
nodes = (
"78 440 LINE",
"78 740 LINE",
"175 740 LINE",
"175 440 LINE"
);
},
{
closed = 1;
nodes = (
"276 440 LINE",
"276 740 LINE",
"373 740 LINE",
"373 440 LINE"
);
}
);
width = 451;
}
);
leftKerningGroup = quotesingle;
rightKerningGroup = quotesingle;
unicode = 0022;
},
{
glyphname = quoteleft;
layers = (
{
layerId = "19C89ACC-DE1B-4ED2-AD26-76EE6DB054A2";
name = Regular;
paths = (
{
closed = 1;
nodes = (
"90 469 OFFCURVE",
"67 496 OFFCURVE",
"67 533 CURVE SMOOTH",
"67 550 LINE SMOOTH",
"67 582 OFFCURVE",
"78 618 OFFCURVE",
"95 651 CURVE SMOOTH",
"112 684 OFFCURVE",
"137 716 OFFCURVE",
"166 740 CURVE",
"243 740 LINE",
"202 699 OFFCURVE",
"174 662 OFFCURVE",
"161 614 CURVE",
"196 607 OFFCURVE",
"211 582 OFFCURVE",
"211 551 CURVE SMOOTH",
"211 533 LINE SMOOTH",
"211 496 OFFCURVE",
"188 469 OFFCURVE",
"139 469 CURVE SMOOTH"
);
}
);
width = 284;
}
);
leftKerningGroup = quoteleft;
rightKerningGroup = quoteleft;
unicode = 2018;
},
{
glyphname = quoteright;
layers = (
{
layerId = "19C89ACC-DE1B-4ED2-AD26-76EE6DB054A2";
name = Regular;
paths = (
{
closed = 1;
nodes = (
"196 750 OFFCURVE",
"217 724 OFFCURVE",
"217 685 CURVE SMOOTH",
"217 668 LINE SMOOTH",
"217 636 OFFCURVE",
"207 601 OFFCURVE",
"190 568 CURVE SMOOTH",
"173 535 OFFCURVE",
"148 503 OFFCURVE",
"119 479 CURVE",
"41 479 LINE",
"84 520 OFFCURVE",
"109 558 OFFCURVE",
"124 605 CURVE",
"89 612 OFFCURVE",
"73 636 OFFCURVE",
"73 667 CURVE SMOOTH",
"73 685 LINE SMOOTH",
"73 724 OFFCURVE",
"94 750 OFFCURVE",
"145 750 CURVE SMOOTH"
);
}
);
width = 284;
}
);
leftKerningGroup = quoteright;
rightKerningGroup = quoteright;
unicode = 2019;
},
{
glyphname = quotedblleft;
layers = (
{
layerId = "19C89ACC-DE1B-4ED2-AD26-76EE6DB054A2";
name = Regular;
paths = (
{
closed = 1;
nodes = (
"90 469 OFFCURVE",
"67 496 OFFCURVE",
"67 533 CURVE SMOOTH",
"67 550 LINE SMOOTH",
"67 582 OFFCURVE",
"78 618 OFFCURVE",
"95 651 CURVE SMOOTH",
"112 684 OFFCURVE",
"137 716 OFFCURVE",
"166 740 CURVE",
"243 740 LINE",
"202 699 OFFCURVE",
"174 662 OFFCURVE",
"161 614 CURVE",
"196 607 OFFCURVE",
"211 582 OFFCURVE",
"211 551 CURVE SMOOTH",
"211 533 LINE SMOOTH",
"211 496 OFFCURVE",
"188 469 OFFCURVE",
"139 469 CURVE SMOOTH"
);
},
{
closed = 1;
nodes = (
"307 469 OFFCURVE",
"284 496 OFFCURVE",
"284 533 CURVE SMOOTH",
"284 550 LINE SMOOTH",
"284 582 OFFCURVE",
"295 618 OFFCURVE",
"312 651 CURVE SMOOTH",
"329 684 OFFCURVE",
"354 716 OFFCURVE",
"383 740 CURVE",
"460 740 LINE",
"419 699 OFFCURVE",
"391 662 OFFCURVE",
"378 614 CURVE",
"413 607 OFFCURVE",
"428 582 OFFCURVE",
"428 551 CURVE SMOOTH",
"428 533 LINE SMOOTH",
"428 496 OFFCURVE",
"405 469 OFFCURVE",
"356 469 CURVE SMOOTH"
);
}
);
width = 501;
}
);
leftKerningGroup = quoteleft;
rightKerningGroup = quoteleft;
unicode = 201C;
},
{
glyphname = quotedblright;
layers = (
{
layerId = "19C89ACC-DE1B-4ED2-AD26-76EE6DB054A2";
name = Regular;
paths = (
{
closed = 1;
nodes = (
"196 750 OFFCURVE",
"217 724 OFFCURVE",
"217 685 CURVE SMOOTH",
"217 668 LINE SMOOTH",
"217 636 OFFCURVE",
"207 601 OFFCURVE",
"190 568 CURVE SMOOTH",
"173 535 OFFCURVE",
"148 503 OFFCURVE",
"119 479 CURVE",
"41 479 LINE",
"84 520 OFFCURVE",
"109 558 OFFCURVE",
"124 605 CURVE",
"89 612 OFFCURVE",
"73 636 OFFCURVE",
"73 667 CURVE SMOOTH",
"73 685 LINE SMOOTH",
"73 724 OFFCURVE",
"94 750 OFFCURVE",
"145 750 CURVE SMOOTH"
);
},
{
closed = 1;
nodes = (
"412 750 OFFCURVE",
"433 724 OFFCURVE",
"433 685 CURVE SMOOTH",
"433 668 LINE SMOOTH",
"433 636 OFFCURVE",
"423 601 OFFCURVE",
"406 568 CURVE SMOOTH",
"389 535 OFFCURVE",
"364 503 OFFCURVE",
"335 479 CURVE",
"257 479 LINE",
"300 520 OFFCURVE",
"325 558 OFFCURVE",
"340 605 CURVE",
"305 612 OFFCURVE",
"289 636 OFFCURVE",
"289 667 CURVE SMOOTH",
"289 685 LINE SMOOTH",
"289 724 OFFCURVE",
"310 750 OFFCURVE",
"361 750 CURVE SMOOTH"
);
}
);
width = 500;
}
);
leftKerningGroup = quoteright;
rightKerningGroup = quoteright;
unicode = 201D;
},
{
glyphname = quotesinglbase;
layers = (
{
layerId = "19C89ACC-DE1B-4ED2-AD26-76EE6DB054A2";
name = Regular;
paths = (
{
closed = 1;
nodes = (
"191 155 OFFCURVE",
"212 129 OFFCURVE",
"212 90 CURVE SMOOTH",
"212 73 LINE SMOOTH",
"212 41 OFFCURVE",
"202 6 OFFCURVE",
"185 -27 CURVE SMOOTH",
"168 -60 OFFCURVE",
"143 -92 OFFCURVE",
"114 -116 CURVE",
"36 -116 LINE",
"79 -75 OFFCURVE",
"104 -37 OFFCURVE",
"119 10 CURVE",
"84 17 OFFCURVE",
"68 41 OFFCURVE",
"68 72 CURVE SMOOTH",
"68 90 LINE SMOOTH",
"68 129 OFFCURVE",
"89 155 OFFCURVE",
"140 155 CURVE SMOOTH"
);
}
);
width = 286;
}
);
leftKerningGroup = period;
rightKerningGroup = period;
unicode = 201A;
},
{
glyphname = quotedblbase;
layers = (
{
layerId = "19C89ACC-DE1B-4ED2-AD26-76EE6DB054A2";
name = Regular;
paths = (
{
closed = 1;
nodes = (
"191 155 OFFCURVE",
"212 129 OFFCURVE",
"212 90 CURVE SMOOTH",
"212 73 LINE SMOOTH",
"212 41 OFFCURVE",
"202 6 OFFCURVE",
"185 -27 CURVE SMOOTH",
"168 -60 OFFCURVE",
"143 -92 OFFCURVE",
"114 -116 CURVE",
"36 -116 LINE",
"79 -75 OFFCURVE",
"104 -37 OFFCURVE",
"119 10 CURVE",
"84 17 OFFCURVE",
"68 41 OFFCURVE",
"68 72 CURVE SMOOTH",
"68 90 LINE SMOOTH",
"68 129 OFFCURVE",
"89 155 OFFCURVE",
"140 155 CURVE SMOOTH"
);
},
{
closed = 1;
nodes = (
"407 155 OFFCURVE",
"428 129 OFFCURVE",
"428 90 CURVE SMOOTH",
"428 73 LINE SMOOTH",
"428 41 OFFCURVE",
"418 6 OFFCURVE",
"401 -27 CURVE SMOOTH",
"384 -60 OFFCURVE",
"359 -92 OFFCURVE",
"330 -116 CURVE",
"252 -116 LINE",
"295 -75 OFFCURVE",
"320 -37 OFFCURVE",
"335 10 CURVE",
"300 17 OFFCURVE",
"284 41 OFFCURVE",
"284 72 CURVE SMOOTH",
"284 90 LINE SMOOTH",
"284 129 OFFCURVE",
"305 155 OFFCURVE",
"356 155 CURVE SMOOTH"
);
}
);
width = 502;
}
);
leftKerningGroup = period;
rightKerningGroup = period;
unicode = 201E;
},
{
glyphname = guilsinglleft;
layers = (
{
layerId = "19C89ACC-DE1B-4ED2-AD26-76EE6DB054A2";
name = Regular;
paths = (
{
closed = 1;
nodes = (
"226 67 LINE",
"37 230 LINE",
"37 328 LINE",
"226 491 LINE",
"258 421 LINE",
"129 279 LINE",
"258 137 LINE"
);
}
);
width = 309;
}
);
leftKerningGroup = guilsinglleft;
rightKerningGroup = guilsinglleft;
unicode = 2039;
},
{
glyphname = guilsinglright;
layers = (
{
layerId = "19C89ACC-DE1B-4ED2-AD26-76EE6DB054A2";
name = Regular;
paths = (
{
closed = 1;
nodes = (
"51 137 LINE",
"180 279 LINE",
"51 421 LINE",
"83 491 LINE",
"272 328 LINE",
"272 230 LINE",
"83 67 LINE"
);
}
);
width = 309;
}
);
leftKerningGroup = guilsinglright;
rightKerningGroup = guilsinglright;
unicode = 203A;
},
{
glyphname = guillemotleft;
layers = (
{
layerId = "19C89ACC-DE1B-4ED2-AD26-76EE6DB054A2";
name = Regular;
paths = (
{
closed = 1;
nodes = (
"226 67 LINE",
"37 230 LINE",
"37 328 LINE",
"226 491 LINE",
"258 421 LINE",
"129 279 LINE",
"258 137 LINE"
);
},
{
closed = 1;
nodes = (
"449 67 LINE",
"260 230 LINE",
"260 328 LINE",
"449 491 LINE",
"481 421 LINE",
"352 279 LINE",
"481 137 LINE"
);
}
);
width = 532;
}
);
leftKerningGroup = guilsinglleft;
rightKerningGroup = guilsinglleft;
unicode = 00AB;
},
{
glyphname = guillemotright;
layers = (
{
layerId = "19C89ACC-DE1B-4ED2-AD26-76EE6DB054A2";
name = Regular;
paths = (
{
closed = 1;
nodes = (
"51 137 LINE",
"180 279 LINE",
"51 421 LINE",
"83 491 LINE",
"272 328 LINE",
"272 230 LINE",
"83 67 LINE"
);
},
{
closed = 1;
nodes = (
"274 137 LINE",
"403 279 LINE",
"274 421 LINE",
"306 491 LINE",
"495 328 LINE",
"495 230 LINE",
"306 67 LINE"
);
}
);
width = 532;
}
);
leftKerningGroup = guilsinglright;
rightKerningGroup = guilsinglright;
unicode = 00BB;
},
{
glyphname = exclamdown;
layers = (
{
layerId = "19C89ACC-DE1B-4ED2-AD26-76EE6DB054A2";
name = Regular;
paths = (
{
closed = 1;
nodes = (
"91 -178 LINE",
"91 21 LINE",
"124 320 LINE",
"174 320 LINE",
"209 21 LINE",
"209 -178 LINE"
);
},
{
closed = 1;
nodes = (
"98 383 OFFCURVE",
"76 410 OFFCURVE",
"76 449 CURVE SMOOTH",
"76 466 LINE SMOOTH",
"76 505 OFFCURVE",
"98 532 OFFCURVE",
"149 532 CURVE SMOOTH",
"200 532 OFFCURVE",
"222 505 OFFCURVE",
"222 466 CURVE SMOOTH",
"222 449 LINE SMOOTH",
"222 410 OFFCURVE",
"200 383 OFFCURVE",
"149 383 CURVE SMOOTH"
);
}
);
width = 298;
}
);
rightKerningGroup = exclamdown;
unicode = 00A1;
},
{
glyphname = exclam;
layers = (
{
layerId = "19C89ACC-DE1B-4ED2-AD26-76EE6DB054A2";
name = Regular;
paths = (
{
closed = 1;
nodes = (
"124 200 LINE",
"89 499 LINE",
"89 698 LINE",
"207 698 LINE",
"207 499 LINE",
"174 200 LINE"
);
},
{
closed = 1;
nodes = (
"98 -12 OFFCURVE",
"76 15 OFFCURVE",
"76 54 CURVE SMOOTH",
"76 71 LINE SMOOTH",
"76 110 OFFCURVE",
"98 137 OFFCURVE",
"149 137 CURVE SMOOTH",
"200 137 OFFCURVE",
"222 110 OFFCURVE",
"222 71 CURVE SMOOTH",
"222 54 LINE SMOOTH",
"222 15 OFFCURVE",
"200 -12 OFFCURVE",
"149 -12 CURVE SMOOTH"
);
}
);
width = 298;
}
);
leftKerningGroup = exclam;
unicode = 0021;
},
{
glyphname = questiondown;
layers = (
{
layerId = "19C89ACC-DE1B-4ED2-AD26-76EE6DB054A2";
name = Regular;
paths = (
{
closed = 1;
nodes = (
"183 -190 OFFCURVE",
"128 -170 OFFCURVE",
"91 -136 CURVE SMOOTH",
"54 -102 OFFCURVE",
"33 -53 OFFCURVE",
"33 6 CURVE SMOOTH",
"33 66 OFFCURVE",
"56 114 OFFCURVE",
"90 147 CURVE SMOOTH",
"124 180 OFFCURVE",
"168 201 OFFCURVE",
"213 209 CURVE",
"213 301 LINE",
"317 301 LINE",
"317 142 LINE",
"209 137 OFFCURVE",
"149 97 OFFCURVE",
"149 17 CURVE SMOOTH",
"149 3 LINE SMOOTH",
"149 -58 OFFCURVE",
"189 -94 OFFCURVE",
"252 -94 CURVE SMOOTH",
"319 -94 OFFCURVE",
"358 -51 OFFCURVE",
"373 9 CURVE",
"468 -29 LINE",
"456 -70 OFFCURVE",
"433 -110 OFFCURVE",
"397 -140 CURVE SMOOTH",
"361 -170 OFFCURVE",
"312 -190 OFFCURVE",
"248 -190 CURVE SMOOTH"
);
},
{
closed = 1;
nodes = (
"213 383 OFFCURVE",
"191 410 OFFCURVE",
"191 449 CURVE SMOOTH",
"191 466 LINE SMOOTH",
"191 505 OFFCURVE",
"213 532 OFFCURVE",
"264 532 CURVE SMOOTH",
"315 532 OFFCURVE",
"337 505 OFFCURVE",
"337 466 CURVE SMOOTH",
"337 449 LINE SMOOTH",
"337 410 OFFCURVE",
"315 383 OFFCURVE",
"264 383 CURVE SMOOTH"
);
}
);
width = 479;
}
);
leftKerningGroup = questiondown;
rightKerningGroup = questiondown;
unicode = 00BF;
},
{
glyphname = question;
layers = (
{
layerId = "19C89ACC-DE1B-4ED2-AD26-76EE6DB054A2";
name = Regular;
paths = (
{
closed = 1;
nodes = (
"170 219 LINE",
"170 378 LINE",
"278 383 OFFCURVE",
"338 423 OFFCURVE",
"338 503 CURVE SMOOTH",
"338 517 LINE SMOOTH",
"338 578 OFFCURVE",
"298 614 OFFCURVE",
"235 614 CURVE SMOOTH",
"168 614 OFFCURVE",
"129 571 OFFCURVE",
"114 511 CURVE",
"19 549 LINE",
"31 590 OFFCURVE",
"54 631 OFFCURVE",
"90 661 CURVE SMOOTH",
"126 691 OFFCURVE",
"175 710 OFFCURVE",
"239 710 CURVE SMOOTH",
"304 710 OFFCURVE",
"359 691 OFFCURVE",
"396 657 CURVE SMOOTH",
"433 623 OFFCURVE",
"454 573 OFFCURVE",
"454 514 CURVE SMOOTH",
"454 454 OFFCURVE",
"432 406 OFFCURVE",
"398 373 CURVE SMOOTH",
"364 340 OFFCURVE",
"319 319 OFFCURVE",
"274 311 CURVE",
"274 219 LINE"
);
},
{
closed = 1;
nodes = (
"172 -12 OFFCURVE",
"150 15 OFFCURVE",
"150 54 CURVE SMOOTH",
"150 71 LINE SMOOTH",
"150 110 OFFCURVE",
"172 137 OFFCURVE",
"223 137 CURVE SMOOTH",
"274 137 OFFCURVE",
"296 110 OFFCURVE",
"296 71 CURVE SMOOTH",
"296 54 LINE SMOOTH",
"296 15 OFFCURVE",
"274 -12 OFFCURVE",
"223 -12 CURVE SMOOTH"
);
}
);
width = 487;
}
);
leftKerningGroup = question;
rightKerningGroup = question;
unicode = 003F;
},
{
glyphname = parenleft;
layers = (
{
layerId = "19C89ACC-DE1B-4ED2-AD26-76EE6DB054A2";
name = Regular;
paths = (
{
closed = 1;
nodes = (
"63 408 OFFCURVE",
"82 499 OFFCURVE",
"114 576 CURVE SMOOTH",
"146 653 OFFCURVE",
"190 717 OFFCURVE",
"241 760 CURVE",
"344 760 LINE",
"289 709 OFFCURVE",
"245 646 OFFCURVE",
"214 575 CURVE SMOOTH",
"183 504 OFFCURVE",
"166 427 OFFCURVE",
"166 351 CURVE SMOOTH",
"166 271 LINE SMOOTH",
"166 195 OFFCURVE",
"183 118 OFFCURVE",
"214 47 CURVE SMOOTH",
"245 -24 OFFCURVE",
"289 -89 OFFCURVE",
"344 -138 CURVE",
"241 -138 LINE",
"190 -95 OFFCURVE",
"146 -31 OFFCURVE",
"114 46 CURVE SMOOTH",
"82 123 OFFCURVE",
"63 214 OFFCURVE",
"63 311 CURVE SMOOTH"
);
}
);
width = 336;
}
);
rightKerningGroup = parenleft;
unicode = 0028;
},
{
glyphname = parenright;
layers = (
{
layerId = "19C89ACC-DE1B-4ED2-AD26-76EE6DB054A2";
name = Regular;
paths = (
{
closed = 1;
nodes = (
"273 214 OFFCURVE",
"253 123 OFFCURVE",
"221 46 CURVE SMOOTH",
"189 -31 OFFCURVE",
"144 -95 OFFCURVE",
"95 -138 CURVE",
"-8 -138 LINE",
"47 -89 OFFCURVE",
"91 -24 OFFCURVE",
"122 47 CURVE SMOOTH",
"153 118 OFFCURVE",
"170 195 OFFCURVE",
"170 271 CURVE SMOOTH",
"170 351 LINE SMOOTH",
"170 427 OFFCURVE",
"153 504 OFFCURVE",
"122 575 CURVE SMOOTH",
"91 646 OFFCURVE",
"47 709 OFFCURVE",
"-8 760 CURVE",
"95 760 LINE",
"144 717 OFFCURVE",
"189 653 OFFCURVE",
"221 576 CURVE SMOOTH",
"253 499 OFFCURVE",
"273 408 OFFCURVE",
"273 311 CURVE SMOOTH"
);
}
);
width = 336;
}
);
leftKerningGroup = parenright;
unicode = 0029;
},
{
glyphname = bracketleft;
layers = (
{
layerId = "19C89ACC-DE1B-4ED2-AD26-76EE6DB054A2";
name = Regular;
paths = (
{
closed = 1;
nodes = (
"86 -138 LINE",
"86 760 LINE",
"269 760 LINE",
"269 679 LINE",
"184 679 LINE",
"184 -57 LINE",
"269 -57 LINE",
"269 -138 LINE"
);
}
);
width = 325;
}
);
rightKerningGroup = bracketleft;
unicode = 005B;
},
{
glyphname = bracketright;
layers = (
{
layerId = "19C89ACC-DE1B-4ED2-AD26-76EE6DB054A2";
name = Regular;
paths = (
{
closed = 1;
nodes = (
"239 760 LINE",
"239 -138 LINE",
"56 -138 LINE",
"56 -57 LINE",
"141 -57 LINE",
"141 679 LINE",
"56 679 LINE",
"56 760 LINE"
);
}
);
width = 325;
}
);
leftKerningGroup = bracketright;
unicode = 005D;
},
{
glyphname = braceleft;
layers = (
{
layerId = "19C89ACC-DE1B-4ED2-AD26-76EE6DB054A2";
name = Regular;
paths = (
{
closed = 1;
nodes = (
"204 -138 LINE SMOOTH",
"151 -138 OFFCURVE",
"117 -103 OFFCURVE",
"117 -48 CURVE SMOOTH",
"117 176 LINE SMOOTH",
"117 235 OFFCURVE",
"76 265 OFFCURVE",
"20 265 CURVE",
"20 358 LINE",
"76 358 OFFCURVE",
"117 389 OFFCURVE",
"117 446 CURVE SMOOTH",
"117 670 LINE SMOOTH",
"117 725 OFFCURVE",
"151 760 OFFCURVE",
"204 760 CURVE SMOOTH",
"298 760 LINE",
"298 679 LINE",
"215 679 LINE",
"215 444 LINE SMOOTH",
"215 412 OFFCURVE",
"205 384 OFFCURVE",
"187 361 CURVE SMOOTH",
"169 337 OFFCURVE",
"144 321 OFFCURVE",
"116 316 CURVE",
"116 306 LINE",
"144 301 OFFCURVE",
"169 285 OFFCURVE",
"187 262 CURVE SMOOTH",
"205 238 OFFCURVE",
"215 210 OFFCURVE",
"215 178 CURVE SMOOTH",
"215 -57 LINE",
"298 -57 LINE",
"298 -138 LINE"
);
}
);
width = 354;
}
);
rightKerningGroup = bracketleft;
unicode = 007B;
},
{
glyphname = braceright;
layers = (
{
layerId = "19C89ACC-DE1B-4ED2-AD26-76EE6DB054A2";
name = Regular;
paths = (
{
closed = 1;
nodes = (
"150 760 LINE SMOOTH",
"203 760 OFFCURVE",
"239 725 OFFCURVE",
"239 670 CURVE SMOOTH",
"239 446 LINE SMOOTH",
"239 389 OFFCURVE",
"280 358 OFFCURVE",
"336 358 CURVE",
"336 265 LINE",
"280 265 OFFCURVE",
"239 235 OFFCURVE",
"239 176 CURVE SMOOTH",
"239 -48 LINE SMOOTH",
"239 -103 OFFCURVE",
"203 -138 OFFCURVE",
"150 -138 CURVE SMOOTH",
"56 -138 LINE",
"56 -57 LINE",
"141 -57 LINE",
"141 178 LINE SMOOTH",
"141 210 OFFCURVE",
"152 238 OFFCURVE",
"169 262 CURVE SMOOTH",
"186 285 OFFCURVE",
"211 301 OFFCURVE",
"240 306 CURVE",
"240 316 LINE",
"211 321 OFFCURVE",
"186 337 OFFCURVE",
"169 361 CURVE SMOOTH",
"152 384 OFFCURVE",
"141 412 OFFCURVE",
"141 444 CURVE SMOOTH",
"141 679 LINE",
"56 679 LINE",
"56 760 LINE"
);
}
);
width = 356;
}
);
leftKerningGroup = bracketright;
unicode = 007D;
},
{
glyphname = slash;
layers = (
{
layerId = "19C89ACC-DE1B-4ED2-AD26-76EE6DB054A2";
name = Regular;
paths = (
{
closed = 1;
nodes = (
"7 -151 LINE",
"284 740 LINE",
"378 740 LINE",
"101 -151 LINE"
);
}
);
width = 417;
}
);
leftKerningGroup = slash;
rightKerningGroup = slash;
unicode = 002F;
},
{
glyphname = backslash;
layers = (
{
layerId = "19C89ACC-DE1B-4ED2-AD26-76EE6DB054A2";
name = Regular;
paths = (
{
closed = 1;
nodes = (
"316 -151 LINE",
"39 740 LINE",
"133 740 LINE",
"410 -151 LINE"
);
}
);
width = 417;
}
);
unicode = 005C;
},
{
glyphname = fraction;
layers = (
{
layerId = "19C89ACC-DE1B-4ED2-AD26-76EE6DB054A2";
name = Regular;
paths = (
{
closed = 1;
nodes = (
"-221 0 LINE",
"284 698 LINE",
"372 698 LINE",
"-132 0 LINE"
);
}
);
width = 151;
}
);
unicode = 2044;
},
{
glyphname = percent;
layers = (
{
layerId = "19C89ACC-DE1B-4ED2-AD26-76EE6DB054A2";
name = Regular;
paths = (
{
closed = 1;
nodes = (
"181 0 LINE",
"665 698 LINE",
"766 698 LINE",
"282 0 LINE"
);
},
{
closed = 1;
nodes = (
"118 314 OFFCURVE",
"59 383 OFFCURVE",
"59 512 CURVE SMOOTH",
"59 641 OFFCURVE",
"118 710 OFFCURVE",
"226 710 CURVE SMOOTH",
"334 710 OFFCURVE",
"393 641 OFFCURVE",
"393 512 CURVE SMOOTH",
"393 383 OFFCURVE",
"334 314 OFFCURVE",
"226 314 CURVE SMOOTH"
);
},
{
closed = 1;
nodes = (
"273 381 OFFCURVE",
"297 415 OFFCURVE",
"297 484 CURVE SMOOTH",
"297 540 LINE SMOOTH",
"297 609 OFFCURVE",
"273 643 OFFCURVE",
"226 643 CURVE SMOOTH",
"179 643 OFFCURVE",
"155 609 OFFCURVE",
"155 540 CURVE SMOOTH",
"155 484 LINE SMOOTH",
"155 415 OFFCURVE",
"179 381 OFFCURVE",
"226 381 CURVE SMOOTH"
);
},
{
closed = 1;
nodes = (
"613 -12 OFFCURVE",
"554 57 OFFCURVE",
"554 186 CURVE SMOOTH",
"554 315 OFFCURVE",
"613 384 OFFCURVE",
"721 384 CURVE SMOOTH",
"829 384 OFFCURVE",
"888 315 OFFCURVE",
"888 186 CURVE SMOOTH",
"888 57 OFFCURVE",
"829 -12 OFFCURVE",
"721 -12 CURVE SMOOTH"
);
},
{
closed = 1;
nodes = (
"768 55 OFFCURVE",
"792 89 OFFCURVE",
"792 158 CURVE SMOOTH",
"792 214 LINE SMOOTH",
"792 283 OFFCURVE",
"768 317 OFFCURVE",
"721 317 CURVE SMOOTH",
"674 317 OFFCURVE",
"650 283 OFFCURVE",
"650 214 CURVE SMOOTH",
"650 158 LINE SMOOTH",
"650 89 OFFCURVE",
"674 55 OFFCURVE",
"721 55 CURVE SMOOTH"
);
}
);
width = 947;
}
);
rightKerningGroup = percent;
unicode = 0025;
},
{
glyphname = perthousand;
layers = (
{
layerId = "19C89ACC-DE1B-4ED2-AD26-76EE6DB054A2";
name = Regular;
paths = (
{
closed = 1;
nodes = (
"181 0 LINE",
"665 698 LINE",
"766 698 LINE",
"282 0 LINE"
);
},
{
closed = 1;
nodes = (
"118 314 OFFCURVE",
"59 383 OFFCURVE",
"59 512 CURVE SMOOTH",
"59 641 OFFCURVE",
"118 710 OFFCURVE",
"226 710 CURVE SMOOTH",
"334 710 OFFCURVE",
"393 641 OFFCURVE",
"393 512 CURVE SMOOTH",
"393 383 OFFCURVE",
"334 314 OFFCURVE",
"226 314 CURVE SMOOTH"
);
},
{
closed = 1;
nodes = (
"273 381 OFFCURVE",
"297 415 OFFCURVE",
"297 484 CURVE SMOOTH",
"297 540 LINE SMOOTH",
"297 609 OFFCURVE",
"273 643 OFFCURVE",
"226 643 CURVE SMOOTH",
"179 643 OFFCURVE",
"155 609 OFFCURVE",
"155 540 CURVE SMOOTH",
"155 484 LINE SMOOTH",
"155 415 OFFCURVE",
"179 381 OFFCURVE",
"226 381 CURVE SMOOTH"
);
},
{
closed = 1;
nodes = (
"613 -12 OFFCURVE",
"554 57 OFFCURVE",
"554 186 CURVE SMOOTH",
"554 315 OFFCURVE",
"613 384 OFFCURVE",
"721 384 CURVE SMOOTH",
"829 384 OFFCURVE",
"888 315 OFFCURVE",
"888 186 CURVE SMOOTH",
"888 57 OFFCURVE",
"829 -12 OFFCURVE",
"721 -12 CURVE SMOOTH"
);
},
{
closed = 1;
nodes = (
"768 55 OFFCURVE",
"792 89 OFFCURVE",
"792 158 CURVE SMOOTH",
"792 214 LINE SMOOTH",
"792 283 OFFCURVE",
"768 317 OFFCURVE",
"721 317 CURVE SMOOTH",
"674 317 OFFCURVE",
"650 283 OFFCURVE",
"650 214 CURVE SMOOTH",
"650 158 LINE SMOOTH",
"650 89 OFFCURVE",
"674 55 OFFCURVE",
"721 55 CURVE SMOOTH"
);
},
{
closed = 1;
nodes = (
"1005 -12 OFFCURVE",
"946 57 OFFCURVE",
"946 186 CURVE SMOOTH",
"946 315 OFFCURVE",
"1005 384 OFFCURVE",
"1113 384 CURVE SMOOTH",
"1221 384 OFFCURVE",
"1280 315 OFFCURVE",
"1280 186 CURVE SMOOTH",
"1280 57 OFFCURVE",
"1221 -12 OFFCURVE",
"1113 -12 CURVE SMOOTH"
);
},
{
closed = 1;
nodes = (
"1160 55 OFFCURVE",
"1184 89 OFFCURVE",
"1184 158 CURVE SMOOTH",
"1184 214 LINE SMOOTH",
"1184 283 OFFCURVE",
"1160 317 OFFCURVE",
"1113 317 CURVE SMOOTH",
"1066 317 OFFCURVE",
"1042 283 OFFCURVE",
"1042 214 CURVE SMOOTH",
"1042 158 LINE SMOOTH",
"1042 89 OFFCURVE",
"1066 55 OFFCURVE",
"1113 55 CURVE SMOOTH"
);
}
);
width = 1339;
}
);
rightKerningGroup = perthousand;
unicode = 2030;
},
{
glyphname = bar;
layers = (
{
layerId = "19C89ACC-DE1B-4ED2-AD26-76EE6DB054A2";
name = Regular;
paths = (
{
closed = 1;
nodes = (
"130 -138 LINE",
"130 760 LINE",
"223 760 LINE",
"223 -138 LINE"
);
}
);
width = 353;
}
);
unicode = 007C;
},
{
glyphname = brokenbar;
layers = (
{
layerId = "19C89ACC-DE1B-4ED2-AD26-76EE6DB054A2";
name = Regular;
paths = (
{
closed = 1;
nodes = (
"130 404 LINE",
"130 760 LINE",
"223 760 LINE",
"223 404 LINE"
);
},
{
closed = 1;
nodes = (
"130 -138 LINE",
"130 218 LINE",
"223 218 LINE",
"223 -138 LINE"
);
}
);
width = 353;
}
);
unicode = 00A6;
},
{
glyphname = section;
layers = (
{
layerId = "19C89ACC-DE1B-4ED2-AD26-76EE6DB054A2";
name = Regular;
paths = (
{
closed = 1;
nodes = (
"480 -44 OFFCURVE",
"459 -85 OFFCURVE",
"423 -113 CURVE SMOOTH",
"386 -142 OFFCURVE",
"334 -158 OFFCURVE",
"273 -158 CURVE SMOOTH",
"209 -158 OFFCURVE",
"144 -140 OFFCURVE",
"93 -95 CURVE",
"150 -25 LINE",
"183 -56 OFFCURVE",
"224 -73 OFFCURVE",
"275 -73 CURVE SMOOTH",
"340 -73 OFFCURVE",
"381 -44 OFFCURVE",
"381 4 CURVE SMOOTH",
"381 49 OFFCURVE",
"348 71 OFFCURVE",
"285 90 CURVE SMOOTH",
"216 110 LINE SMOOTH",
"105 141 OFFCURVE",
"64 198 OFFCURVE",
"64 261 CURVE SMOOTH",
"64 322 OFFCURVE",
"100 371 OFFCURVE",
"172 402 CURVE",
"172 413 LINE",
"127 444 OFFCURVE",
"97 487 OFFCURVE",
"97 547 CURVE SMOOTH",
"97 598 OFFCURVE",
"118 639 OFFCURVE",
"154 667 CURVE SMOOTH",
"190 695 OFFCURVE",
"241 710 OFFCURVE",
"302 710 CURVE SMOOTH",
"367 710 OFFCURVE",
"432 694 OFFCURVE",
"484 647 CURVE",
"426 578 LINE",
"393 607 OFFCURVE",
"353 626 OFFCURVE",
"300 626 CURVE SMOOTH",
"236 626 OFFCURVE",
"194 599 OFFCURVE",
"194 550 CURVE SMOOTH",
"194 506 OFFCURVE",
"227 484 OFFCURVE",
"291 465 CURVE SMOOTH",
"360 446 LINE SMOOTH",
"471 414 OFFCURVE",
"513 358 OFFCURVE",
"513 294 CURVE SMOOTH",
"513 233 OFFCURVE",
"476 182 OFFCURVE",
"404 153 CURVE",
"404 143 LINE",
"451 112 OFFCURVE",
"480 68 OFFCURVE",
"480 8 CURVE SMOOTH"
);
},
{
closed = 1;
nodes = (
"415 310 OFFCURVE",
"387 342 OFFCURVE",
"314 362 CURVE SMOOTH",
"246 381 LINE SMOOTH",
"235 384 OFFCURVE",
"225 387 OFFCURVE",
"214 391 CURVE",
"181 364 OFFCURVE",
"161 332 OFFCURVE",
"161 292 CURVE SMOOTH",
"161 245 OFFCURVE",
"189 214 OFFCURVE",
"262 193 CURVE SMOOTH",
"330 175 LINE",
"335 174 OFFCURVE",
"341 172 OFFCURVE",
"346 170 CURVE SMOOTH",
"362 164 LINE",
"395 191 OFFCURVE",
"415 223 OFFCURVE",
"415 263 CURVE SMOOTH"
);
}
);
width = 577;
}
);
unicode = 00A7;
},
{
glyphname = paragraph;
layers = (
{
layerId = "19C89ACC-DE1B-4ED2-AD26-76EE6DB054A2";
name = Regular;
paths = (
{
closed = 1;
nodes = (
"244 282 LINE",
"188 282 OFFCURVE",
"138 306 OFFCURVE",
"102 344 CURVE SMOOTH",
"65 382 OFFCURVE",
"43 433 OFFCURVE",
"43 490 CURVE SMOOTH",
"43 547 OFFCURVE",
"65 599 OFFCURVE",
"102 637 CURVE SMOOTH",
"138 675 OFFCURVE",
"188 698 OFFCURVE",
"244 698 CURVE SMOOTH",
"593 698 LINE",
"593 614 LINE",
"527 614 LINE",
"527 -149 LINE",
"438 -149 LINE",
"438 614 LINE",
"333 614 LINE",
"333 -149 LINE",
"244 -149 LINE"
);
}
);
width = 663;
}
);
unicode = 00B6;
},
{
glyphname = copyright;
layers = (
{
layerId = "19C89ACC-DE1B-4ED2-AD26-76EE6DB054A2";
name = Regular;
paths = (
{
closed = 1;
nodes = (
"295 -11 OFFCURVE",
"209 24 OFFCURVE",
"149 86 CURVE SMOOTH",
"88 148 OFFCURVE",
"51 238 OFFCURVE",
"51 349 CURVE SMOOTH",
"51 460 OFFCURVE",
"88 551 OFFCURVE",
"149 613 CURVE SMOOTH",
"209 675 OFFCURVE",
"295 709 OFFCURVE",
"391 709 CURVE SMOOTH",
"487 709 OFFCURVE",
"573 675 OFFCURVE",
"634 613 CURVE SMOOTH",
"694 551 OFFCURVE",
"731 460 OFFCURVE",
"731 349 CURVE SMOOTH",
"731 238 OFFCURVE",
"694 148 OFFCURVE",
"634 86 CURVE SMOOTH",
"573 24 OFFCURVE",
"487 -11 OFFCURVE",
"391 -11 CURVE SMOOTH"
);
},
{
closed = 1;
nodes = (
"470 50 OFFCURVE",
"537 79 OFFCURVE",
"585 127 CURVE SMOOTH",
"632 174 OFFCURVE",
"660 241 OFFCURVE",
"660 317 CURVE SMOOTH",
"660 381 LINE SMOOTH",
"660 457 OFFCURVE",
"632 524 OFFCURVE",
"585 572 CURVE SMOOTH",
"537 619 OFFCURVE",
"470 648 OFFCURVE",
"391 648 CURVE SMOOTH",
"312 648 OFFCURVE",
"245 619 OFFCURVE",
"198 572 CURVE SMOOTH",
"150 524 OFFCURVE",
"122 457 OFFCURVE",
"122 381 CURVE SMOOTH",
"122 317 LINE SMOOTH",
"122 241 OFFCURVE",
"150 174 OFFCURVE",
"198 127 CURVE SMOOTH",
"245 79 OFFCURVE",
"312 50 OFFCURVE",
"391 50 CURVE SMOOTH"
);
},
{
closed = 1;
nodes = (
"283 146 OFFCURVE",
"216 225 OFFCURVE",
"216 349 CURVE SMOOTH",
"216 473 OFFCURVE",
"283 552 OFFCURVE",
"399 552 CURVE SMOOTH",
"479 552 OFFCURVE",
"527 513 OFFCURVE",
"552 454 CURVE",
"477 415 LINE",
"462 450 OFFCURVE",
"440 472 OFFCURVE",
"399 472 CURVE SMOOTH",
"347 472 OFFCURVE",
"318 436 OFFCURVE",
"318 384 CURVE SMOOTH",
"318 313 LINE SMOOTH",
"318 261 OFFCURVE",
"347 225 OFFCURVE",
"399 225 CURVE SMOOTH",
"442 225 OFFCURVE",
"466 249 OFFCURVE",
"485 284 CURVE",
"559 245 LINE",
"534 189 OFFCURVE",
"484 146 OFFCURVE",
"399 146 CURVE SMOOTH"
);
}
);
width = 782;
}
);
leftKerningGroup = copyright;
unicode = 00A9;
},
{
glyphname = registered;
layers = (
{
layerId = "19C89ACC-DE1B-4ED2-AD26-76EE6DB054A2";
name = Regular;
paths = (
{
closed = 1;
nodes = (
"180 298 OFFCURVE",
"130 320 OFFCURVE",
"94 357 CURVE SMOOTH",
"58 394 OFFCURVE",
"36 445 OFFCURVE",
"36 504 CURVE SMOOTH",
"36 563 OFFCURVE",
"58 614 OFFCURVE",
"94 651 CURVE SMOOTH",
"130 688 OFFCURVE",
"180 710 OFFCURVE",
"236 710 CURVE SMOOTH",
"292 710 OFFCURVE",
"342 688 OFFCURVE",
"378 651 CURVE SMOOTH",
"414 614 OFFCURVE",
"436 563 OFFCURVE",
"436 504 CURVE SMOOTH",
"436 445 OFFCURVE",
"414 394 OFFCURVE",
"378 357 CURVE SMOOTH",
"342 320 OFFCURVE",
"292 298 OFFCURVE",
"236 298 CURVE SMOOTH"
);
},
{
closed = 1;
nodes = (
"280 341 OFFCURVE",
"318 357 OFFCURVE",
"346 385 CURVE SMOOTH",
"373 412 OFFCURVE",
"389 448 OFFCURVE",
"389 491 CURVE SMOOTH",
"389 517 LINE SMOOTH",
"389 558 OFFCURVE",
"373 596 OFFCURVE",
"346 624 CURVE",
"318 651 OFFCURVE",
"280 667 OFFCURVE",
"236 667 CURVE SMOOTH",
"192 667 OFFCURVE",
"154 651 OFFCURVE",
"127 624 CURVE SMOOTH",
"99 596 OFFCURVE",
"83 558 OFFCURVE",
"83 517 CURVE SMOOTH",
"83 491 LINE SMOOTH",
"83 448 OFFCURVE",
"99 412 OFFCURVE",
"127 385 CURVE",
"154 357 OFFCURVE",
"192 341 OFFCURVE",
"236 341 CURVE SMOOTH"
);
},
{
closed = 1;
nodes = (
"206 398 LINE",
"155 398 LINE",
"155 607 LINE",
"250 607 LINE SMOOTH",
"297 607 OFFCURVE",
"321 580 OFFCURVE",
"321 541 CURVE SMOOTH",
"321 508 OFFCURVE",
"306 487 OFFCURVE",
"283 478 CURVE",
"330 398 LINE",
"274 398 LINE",
"235 470 LINE",
"206 470 LINE"
);
},
{
closed = 1;
nodes = (
"244 508 LINE SMOOTH",
"261 508 OFFCURVE",
"269 515 OFFCURVE",
"269 530 CURVE SMOOTH",
"269 545 LINE SMOOTH",
"269 560 OFFCURVE",
"261 567 OFFCURVE",
"244 567 CURVE SMOOTH",
"206 567 LINE",
"206 508 LINE"
);
}
);
width = 472;
}
);
leftKerningGroup = registered;
rightKerningGroup = registered;
unicode = 00AE;
},
{
glyphname = trademark;
layers = (
{
layerId = "19C89ACC-DE1B-4ED2-AD26-76EE6DB054A2";
name = Regular;
paths = (
{
closed = 1;
nodes = (
"109 415 LINE",
"109 646 LINE",
"29 646 LINE",
"29 698 LINE",
"253 698 LINE",
"253 646 LINE",
"174 646 LINE",
"174 415 LINE"
);
},
{
closed = 1;
nodes = (
"286 415 LINE",
"286 698 LINE",
"360 698 LINE",
"423 576 LINE",
"428 576 LINE",
"490 698 LINE",
"560 698 LINE",
"560 415 LINE",
"502 415 LINE",
"502 527 LINE",
"507 615 LINE",
"503 615 LINE",
"423 464 LINE",
"343 615 LINE",
"339 615 LINE",
"344 527 LINE",
"344 415 LINE"
);
}
);
width = 629;
}
);
leftKerningGroup = trademark;
rightKerningGroup = trademark;
unicode = 2122;
},
{
glyphname = ordfeminine;
lastChange = "2018-11-02 02:43:33 +0000";
layers = (
{
layerId = "19C89ACC-DE1B-4ED2-AD26-76EE6DB054A2";
name = Regular;
paths = (
{
closed = 1;
nodes = (
"122 710 OFFCURVE",
"75 677 OFFCURVE",
"54 640 CURVE",
"102 599 LINE",
"118 627 OFFCURVE",
"147 648 OFFCURVE",
"191 648 CURVE SMOOTH",
"238 648 OFFCURVE",
"261 624 OFFCURVE",
"261 575 CURVE SMOOTH",
"261 552 LINE",
"196 552 LINE SMOOTH",
"96 552 OFFCURVE",
"43 517 OFFCURVE",
"43 445 CURVE SMOOTH",
"43 381 OFFCURVE",
"85 342 OFFCURVE",
"154 342 CURVE SMOOTH",
"213 342 OFFCURVE",
"248 369 OFFCURVE",
"263 408 CURVE",
"267 408 LINE",
"267 350 LINE",
"341 350 LINE",
"341 579 LINE SMOOTH",
"341 664 OFFCURVE",
"286 710 OFFCURVE",
"198 710 CURVE SMOOTH"
);
},
{
closed = 1;
nodes = (
"261 421 OFFCURVE",
"223 400 OFFCURVE",
"179 400 CURVE SMOOTH",
"143 400 OFFCURVE",
"122 413 OFFCURVE",
"122 444 CURVE SMOOTH",
"122 456 LINE SMOOTH",
"122 486 OFFCURVE",
"147 501 OFFCURVE",
"196 501 CURVE SMOOTH",
"261 501 LINE",
"261 460 LINE SMOOTH"
);
}
);
width = 400;
}
);
unicode = 00AA;
},
{
glyphname = ordmasculine;
layers = (
{
layerId = "19C89ACC-DE1B-4ED2-AD26-76EE6DB054A2";
name = Regular;
paths = (
{
closed = 1;
nodes = (
"103 342 OFFCURVE",
"41 411 OFFCURVE",
"41 526 CURVE SMOOTH",
"41 641 OFFCURVE",
"103 710 OFFCURVE",
"207 710 CURVE SMOOTH",
"311 710 OFFCURVE",
"373 641 OFFCURVE",
"373 526 CURVE SMOOTH",
"373 411 OFFCURVE",
"311 342 OFFCURVE",
"207 342 CURVE SMOOTH"
);
},
{
closed = 1;
nodes = (
"260 405 OFFCURVE",
"288 440 OFFCURVE",
"288 496 CURVE SMOOTH",
"288 556 LINE SMOOTH",
"288 612 OFFCURVE",
"260 647 OFFCURVE",
"207 647 CURVE SMOOTH",
"154 647 OFFCURVE",
"126 612 OFFCURVE",
"126 556 CURVE SMOOTH",
"126 496 LINE SMOOTH",
"126 440 OFFCURVE",
"154 405 OFFCURVE",
"207 405 CURVE SMOOTH"
);
}
);
width = 414;
}
);
unicode = 00BA;
},
{
glyphname = degree;
layers = (
{
layerId = "19C89ACC-DE1B-4ED2-AD26-76EE6DB054A2";
name = Regular;
paths = (
{
closed = 1;
nodes = (
"184 352 OFFCURVE",
"141 371 OFFCURVE",
"110 403 CURVE SMOOTH",
"78 435 OFFCURVE",
"59 480 OFFCURVE",
"59 531 CURVE SMOOTH",
"59 582 OFFCURVE",
"78 627 OFFCURVE",
"110 659 CURVE SMOOTH",
"141 691 OFFCURVE",
"184 710 OFFCURVE",
"235 710 CURVE SMOOTH",
"284 710 OFFCURVE",
"329 691 OFFCURVE",
"361 659 CURVE SMOOTH",
"392 627 OFFCURVE",
"411 582 OFFCURVE",
"411 531 CURVE SMOOTH",
"411 480 OFFCURVE",
"392 435 OFFCURVE",
"361 403 CURVE SMOOTH",
"329 371 OFFCURVE",
"284 352 OFFCURVE",
"235 352 CURVE SMOOTH"
);
},
{
closed = 1;
nodes = (
"292 430 OFFCURVE",
"327 474 OFFCURVE",
"327 531 CURVE SMOOTH",
"327 588 OFFCURVE",
"292 632 OFFCURVE",
"235 632 CURVE SMOOTH",
"178 632 OFFCURVE",
"143 588 OFFCURVE",
"143 531 CURVE SMOOTH",
"143 474 OFFCURVE",
"178 430 OFFCURVE",
"235 430 CURVE SMOOTH"
);
}
);
width = 470;
}
);
unicode = 00B0;
},
{
glyphname = asterisk;
layers = (
{
layerId = "19C89ACC-DE1B-4ED2-AD26-76EE6DB054A2";
name = Regular;
paths = (
{
closed = 1;
nodes = (
"163 324 LINE",
"87 377 LINE",
"193 509 LINE",
"34 555 LINE",
"63 642 LINE",
"216 582 LINE",
"209 747 LINE",
"304 747 LINE",
"297 582 LINE",
"450 642 LINE",
"480 555 LINE",
"320 509 LINE",
"426 377 LINE",
"350 324 LINE",
"256 464 LINE"
);
}
);
width = 514;
}
);
leftKerningGroup = quotesingle;
rightKerningGroup = quotesingle;
unicode = 002A;
},
{
glyphname = dagger;
layers = (
{
layerId = "19C89ACC-DE1B-4ED2-AD26-76EE6DB054A2";
name = Regular;
paths = (
{
closed = 1;
nodes = (
"223 -200 LINE",
"223 433 LINE",
"40 433 LINE",
"40 516 LINE",
"223 516 LINE",
"223 740 LINE",
"317 740 LINE",
"317 516 LINE",
"500 516 LINE",
"500 433 LINE",
"317 433 LINE",
"317 -200 LINE"
);
}
);
width = 540;
}
);
unicode = 2020;
},
{
glyphname = daggerdbl;
layers = (
{
layerId = "19C89ACC-DE1B-4ED2-AD26-76EE6DB054A2";
name = Regular;
paths = (
{
closed = 1;
nodes = (
"227 -200 LINE",
"227 24 LINE",
"44 24 LINE",
"44 107 LINE",
"227 107 LINE",
"227 433 LINE",
"44 433 LINE",
"44 516 LINE",
"227 516 LINE",
"227 740 LINE",
"321 740 LINE",
"321 516 LINE",
"504 516 LINE",
"504 433 LINE",
"321 433 LINE",
"321 107 LINE",
"504 107 LINE",
"504 24 LINE",
"321 24 LINE",
"321 -200 LINE"
);
}
);
width = 548;
}
);
unicode = 2021;
},
{
glyphname = numbersign;
layers = (
{
layerId = "19C89ACC-DE1B-4ED2-AD26-76EE6DB054A2";
name = Regular;
paths = (
{
closed = 1;
nodes = (
"391 191 LINE",
"233 191 LINE",
"200 0 LINE",
"123 0 LINE",
"156 191 LINE",
"40 191 LINE",
"40 264 LINE",
"169 264 LINE",
"198 434 LINE",
"82 434 LINE",
"82 507 LINE",
"211 507 LINE",
"244 698 LINE",
"320 698 LINE",
"287 507 LINE",
"445 507 LINE",
"478 698 LINE",
"555 698 LINE",
"522 507 LINE",
"638 507 LINE",
"638 434 LINE",
"509 434 LINE",
"480 264 LINE",
"596 264 LINE",
"596 191 LINE",
"467 191 LINE",
"434 0 LINE",
"358 0 LINE"
);
},
{
closed = 1;
nodes = (
"403 264 LINE",
"433 434 LINE",
"275 434 LINE",
"245 264 LINE"
);
}
);
width = 678;
}
);
unicode = 0023;
},
{
glyphname = asciicircum;
layers = (
{
layerId = "19C89ACC-DE1B-4ED2-AD26-76EE6DB054A2";
name = Regular;
paths = (
{
closed = 1;
nodes = (
"467 288 LINE",
"300 587 LINE",
"295 587 LINE",
"129 288 LINE",
"47 331 LINE",
"250 698 LINE",
"350 698 LINE",
"553 331 LINE"
);
}
);
width = 600;
}
);
unicode = 005E;
},
{
glyphname = asciitilde;
layers = (
{
layerId = "19C89ACC-DE1B-4ED2-AD26-76EE6DB054A2";
name = Regular;
paths = (
{
closed = 1;
nodes = (
"369 226 OFFCURVE",
"335 239 OFFCURVE",
"290 262 CURVE SMOOTH",
"253 281 OFFCURVE",
"219 296 OFFCURVE",
"178 296 CURVE SMOOTH",
"147 296 OFFCURVE",
"128 287 OFFCURVE",
"97 266 CURVE",
"58 327 LINE",
"83 362 OFFCURVE",
"119 385 OFFCURVE",
"182 385 CURVE SMOOTH",
"231 385 OFFCURVE",
"265 372 OFFCURVE",
"310 349 CURVE SMOOTH",
"347 330 OFFCURVE",
"381 315 OFFCURVE",
"422 315 CURVE SMOOTH",
"453 315 OFFCURVE",
"472 324 OFFCURVE",
"503 345 CURVE",
"542 284 LINE",
"517 249 OFFCURVE",
"481 226 OFFCURVE",
"418 226 CURVE SMOOTH"
);
}
);
width = 600;
}
);
unicode = 007E;
},
{
glyphname = plus;
layers = (
{
layerId = "19C89ACC-DE1B-4ED2-AD26-76EE6DB054A2";
name = Regular;
paths = (
{
closed = 1;
nodes = (
"251 63 LINE",
"251 261 LINE",
"67 261 LINE",
"67 350 LINE",
"251 350 LINE",
"251 548 LINE",
"349 548 LINE",
"349 350 LINE",
"533 350 LINE",
"533 261 LINE",
"349 261 LINE",
"349 63 LINE"
);
}
);
width = 600;
}
);
unicode = 002B;
},
{
glyphname = minus;
layers = (
{
layerId = "19C89ACC-DE1B-4ED2-AD26-76EE6DB054A2";
name = Regular;
paths = (
{
closed = 1;
nodes = (
"67 261 LINE",
"67 350 LINE",
"533 350 LINE",
"533 261 LINE"
);
}
);
width = 600;
}
);
unicode = 2212;
},
{
glyphname = plusminus;
layers = (
{
layerId = "19C89ACC-DE1B-4ED2-AD26-76EE6DB054A2";
name = Regular;
paths = (
{
closed = 1;
nodes = (
"251 167 LINE",
"251 351 LINE",
"67 351 LINE",
"67 440 LINE",
"251 440 LINE",
"251 625 LINE",
"349 625 LINE",
"349 440 LINE",
"533 440 LINE",
"533 351 LINE",
"349 351 LINE",
"349 167 LINE"
);
},
{
closed = 1;
nodes = (
"67 0 LINE",
"67 89 LINE",
"533 89 LINE",
"533 0 LINE"
);
}
);
width = 600;
}
);
unicode = 00B1;
},
{
glyphname = multiply;
layers = (
{
layerId = "19C89ACC-DE1B-4ED2-AD26-76EE6DB054A2";
name = Regular;
paths = (
{
closed = 1;
nodes = (
"300 238 LINE",
"150 83 LINE",
"86 146 LINE",
"237 302 LINE",
"86 458 LINE",
"150 521 LINE",
"300 366 LINE",
"450 521 LINE",
"514 458 LINE",
"363 302 LINE",
"514 146 LINE",
"450 83 LINE"
);
}
);
width = 600;
}
);
unicode = 00D7;
},
{
glyphname = divide;
layers = (
{
layerId = "19C89ACC-DE1B-4ED2-AD26-76EE6DB054A2";
name = Regular;
paths = (
{
closed = 1;
nodes = (
"67 261 LINE",
"67 350 LINE",
"533 350 LINE",
"533 261 LINE"
);
},
{
closed = 1;
nodes = (
"247 42 OFFCURVE",
"227 68 OFFCURVE",
"227 99 CURVE SMOOTH",
"227 122 LINE SMOOTH",
"227 153 OFFCURVE",
"247 179 OFFCURVE",
"300 179 CURVE SMOOTH",
"353 179 OFFCURVE",
"373 153 OFFCURVE",
"373 122 CURVE SMOOTH",
"373 99 LINE SMOOTH",
"373 68 OFFCURVE",
"353 42 OFFCURVE",
"300 42 CURVE SMOOTH"
);
},
{
closed = 1;
nodes = (
"247 431 OFFCURVE",
"227 457 OFFCURVE",
"227 488 CURVE SMOOTH",
"227 511 LINE SMOOTH",
"227 542 OFFCURVE",
"247 568 OFFCURVE",
"300 568 CURVE SMOOTH",
"353 568 OFFCURVE",
"373 542 OFFCURVE",
"373 511 CURVE SMOOTH",
"373 488 LINE SMOOTH",
"373 457 OFFCURVE",
"353 431 OFFCURVE",
"300 431 CURVE SMOOTH"
);
}
);
width = 600;
}
);
unicode = 00F7;
},
{
glyphname = equal;
layers = (
{
layerId = "19C89ACC-DE1B-4ED2-AD26-76EE6DB054A2";
name = Regular;
paths = (
{
closed = 1;
nodes = (
"67 368 LINE",
"67 457 LINE",
"533 457 LINE",
"533 368 LINE"
);
},
{
closed = 1;
nodes = (
"67 154 LINE",
"67 243 LINE",
"533 243 LINE",
"533 154 LINE"
);
}
);
width = 600;
}
);
unicode = 003D;
},
{
glyphname = approxequal;
layers = (
{
layerId = "19C89ACC-DE1B-4ED2-AD26-76EE6DB054A2";
name = Regular;
paths = (
{
closed = 1;
nodes = (
"369 333 OFFCURVE",
"335 346 OFFCURVE",
"290 369 CURVE SMOOTH",
"253 388 OFFCURVE",
"219 403 OFFCURVE",
"178 403 CURVE SMOOTH",
"147 403 OFFCURVE",
"128 394 OFFCURVE",
"97 373 CURVE",
"58 434 LINE",
"83 469 OFFCURVE",
"119 492 OFFCURVE",
"182 492 CURVE SMOOTH",
"231 492 OFFCURVE",
"265 479 OFFCURVE",
"310 456 CURVE SMOOTH",
"347 437 OFFCURVE",
"381 422 OFFCURVE",
"422 422 CURVE SMOOTH",
"453 422 OFFCURVE",
"472 431 OFFCURVE",
"503 452 CURVE",
"542 391 LINE",
"517 356 OFFCURVE",
"481 333 OFFCURVE",
"418 333 CURVE SMOOTH"
);
},
{
closed = 1;
nodes = (
"369 120 OFFCURVE",
"335 133 OFFCURVE",
"290 156 CURVE SMOOTH",
"253 175 OFFCURVE",
"219 190 OFFCURVE",
"178 190 CURVE SMOOTH",
"147 190 OFFCURVE",
"128 181 OFFCURVE",
"97 160 CURVE",
"58 221 LINE",
"83 256 OFFCURVE",
"119 279 OFFCURVE",
"182 279 CURVE SMOOTH",
"231 279 OFFCURVE",
"265 266 OFFCURVE",
"310 243 CURVE SMOOTH",
"347 224 OFFCURVE",
"381 209 OFFCURVE",
"422 209 CURVE SMOOTH",
"453 209 OFFCURVE",
"472 218 OFFCURVE",
"503 239 CURVE",
"542 178 LINE",
"517 143 OFFCURVE",
"481 120 OFFCURVE",
"418 120 CURVE SMOOTH"
);
}
);
width = 600;
}
);
unicode = 2248;
},
{
glyphname = notequal;
layers = (
{
layerId = "19C89ACC-DE1B-4ED2-AD26-76EE6DB054A2";
name = Regular;
paths = (
{
closed = 1;
nodes = (
"120 56 LINE",
"171 151 LINE",
"67 151 LINE",
"67 240 LINE",
"218 240 LINE",
"287 371 LINE",
"67 371 LINE",
"67 460 LINE",
"335 460 LINE",
"385 555 LINE",
"480 555 LINE",
"429 460 LINE",
"533 460 LINE",
"533 371 LINE",
"381 371 LINE",
"312 240 LINE",
"533 240 LINE",
"533 151 LINE",
"265 151 LINE",
"215 56 LINE"
);
}
);
width = 600;
}
);
unicode = 2260;
},
{
glyphname = less;
layers = (
{
layerId = "19C89ACC-DE1B-4ED2-AD26-76EE6DB054A2";
name = Regular;
paths = (
{
closed = 1;
nodes = (
"96 246 LINE",
"96 328 LINE",
"504 582 LINE",
"504 470 LINE",
"205 291 LINE",
"205 284 LINE",
"504 104 LINE",
"504 -8 LINE"
);
}
);
width = 600;
}
);
unicode = 003C;
},
{
glyphname = greater;
layers = (
{
layerId = "19C89ACC-DE1B-4ED2-AD26-76EE6DB054A2";
name = Regular;
paths = (
{
closed = 1;
nodes = (
"96 104 LINE",
"395 284 LINE",
"395 291 LINE",
"96 470 LINE",
"96 582 LINE",
"504 328 LINE",
"504 246 LINE",
"96 -8 LINE"
);
}
);
width = 600;
}
);
unicode = 003E;
},
{
glyphname = lessequal;
layers = (
{
layerId = "19C89ACC-DE1B-4ED2-AD26-76EE6DB054A2";
name = Regular;
paths = (
{
closed = 1;
nodes = (
"96 0 LINE",
"96 89 LINE",
"504 89 LINE",
"504 0 LINE"
);
},
{
closed = 1;
nodes = (
"504 494 LINE",
"214 367 LINE",
"214 361 LINE",
"504 236 LINE",
"504 131 LINE",
"96 320 LINE",
"96 408 LINE",
"504 599 LINE"
);
}
);
width = 600;
}
);
unicode = 2264;
},
{
glyphname = greaterequal;
layers = (
{
layerId = "19C89ACC-DE1B-4ED2-AD26-76EE6DB054A2";
name = Regular;
paths = (
{
closed = 1;
nodes = (
"96 236 LINE",
"386 361 LINE",
"386 367 LINE",
"96 494 LINE",
"96 599 LINE",
"504 408 LINE",
"504 320 LINE",
"96 131 LINE"
);
},
{
closed = 1;
nodes = (
"96 89 LINE",
"504 89 LINE",
"504 0 LINE",
"96 0 LINE"
);
}
);
width = 600;
}
);
unicode = 2265;
},
{
glyphname = periodcentered;
layers = (
{
layerId = "19C89ACC-DE1B-4ED2-AD26-76EE6DB054A2";
name = Regular;
paths = (
{
closed = 1;
nodes = (
"122 224 OFFCURVE",
"98 253 OFFCURVE",
"98 292 CURVE SMOOTH",
"98 316 LINE SMOOTH",
"98 355 OFFCURVE",
"122 384 OFFCURVE",
"178 384 CURVE SMOOTH",
"234 384 OFFCURVE",
"258 355 OFFCURVE",
"258 316 CURVE SMOOTH",
"258 292 LINE SMOOTH",
"258 253 OFFCURVE",
"234 224 OFFCURVE",
"178 224 CURVE SMOOTH"
);
}
);
width = 356;
}
);
unicode = 00B7;
},
{
glyphname = bullet;
layers = (
{
layerId = "19C89ACC-DE1B-4ED2-AD26-76EE6DB054A2";
name = Regular;
paths = (
{
closed = 1;
nodes = (
"156 165 OFFCURVE",
"122 178 OFFCURVE",
"101 199 CURVE SMOOTH",
"80 219 OFFCURVE",
"70 248 OFFCURVE",
"70 281 CURVE SMOOTH",
"70 312 LINE SMOOTH",
"70 345 OFFCURVE",
"80 374 OFFCURVE",
"101 395 CURVE SMOOTH",
"122 415 OFFCURVE",
"156 428 OFFCURVE",
"205 428 CURVE SMOOTH",
"254 428 OFFCURVE",
"288 415 OFFCURVE",
"309 395 CURVE SMOOTH",
"330 374 OFFCURVE",
"340 345 OFFCURVE",
"340 312 CURVE SMOOTH",
"340 281 LINE SMOOTH",
"340 214 OFFCURVE",
"302 165 OFFCURVE",
"205 165 CURVE SMOOTH"
);
}
);
width = 410;
}
);
unicode = 2022;
},
{
glyphname = lozenge;
layers = (
{
layerId = "19C89ACC-DE1B-4ED2-AD26-76EE6DB054A2";
name = Regular;
paths = (
{
closed = 1;
nodes = (
"260 0 LINE",
"50 349 LINE",
"260 698 LINE",
"340 698 LINE",
"550 349 LINE",
"340 0 LINE"
);
},
{
closed = 1;
nodes = (
"303 104 LINE",
"446 349 LINE",
"303 594 LINE",
"297 594 LINE",
"154 349 LINE",
"297 104 LINE"
);
}
);
width = 600;
}
);
unicode = 25CA;
},
{
glyphname = logicalnot;
layers = (
{
layerId = "19C89ACC-DE1B-4ED2-AD26-76EE6DB054A2";
name = Regular;
paths = (
{
closed = 1;
nodes = (
"458 78 LINE",
"458 261 LINE",
"61 261 LINE",
"61 350 LINE",
"549 350 LINE",
"549 78 LINE"
);
}
);
width = 616;
}
);
unicode = 00AC;
},
{
glyphname = radical;
layers = (
{
layerId = "19C89ACC-DE1B-4ED2-AD26-76EE6DB054A2";
name = Regular;
paths = (
{
closed = 1;
nodes = (
"234 0 LINE",
"113 431 LINE",
"23 431 LINE",
"23 520 LINE",
"189 520 LINE",
"241 328 LINE",
"303 91 LINE",
"309 91 LINE",
"373 328 LINE",
"478 698 LINE",
"576 698 LINE",
"374 0 LINE"
);
}
);
width = 601;
}
);
unicode = 221A;
},
{
glyphname = integral;
layers = (
{
layerId = "19C89ACC-DE1B-4ED2-AD26-76EE6DB054A2";
name = Regular;
paths = (
{
closed = 1;
nodes = (
"44 -111 LINE",
"164 -111 LINE",
"164 609 LINE SMOOTH",
"164 688 OFFCURVE",
"205 740 OFFCURVE",
"296 740 CURVE SMOOTH",
"393 740 LINE",
"393 651 LINE",
"273 651 LINE",
"273 -69 LINE SMOOTH",
"273 -148 OFFCURVE",
"232 -200 OFFCURVE",
"141 -200 CURVE SMOOTH",
"44 -200 LINE"
);
}
);
width = 437;
}
);
unicode = 222B;
},
{
glyphname = infinity;
layers = (
{
layerId = "19C89ACC-DE1B-4ED2-AD26-76EE6DB054A2";
name = Regular;
paths = (
{
closed = 1;
nodes = (
"147 102 OFFCURVE",
"101 121 OFFCURVE",
"69 156 CURVE SMOOTH",
"36 191 OFFCURVE",
"18 240 OFFCURVE",
"18 299 CURVE SMOOTH",
"18 358 OFFCURVE",
"36 407 OFFCURVE",
"69 442 CURVE SMOOTH",
"101 477 OFFCURVE",
"147 496 OFFCURVE",
"206 496 CURVE SMOOTH",
"305 496 OFFCURVE",
"367 454 OFFCURVE",
"400 358 CURVE",
"405 358 LINE",
"420 449 OFFCURVE",
"484 496 OFFCURVE",
"556 496 CURVE SMOOTH",
"613 496 OFFCURVE",
"661 477 OFFCURVE",
"694 442 CURVE SMOOTH",
"726 407 OFFCURVE",
"744 358 OFFCURVE",
"744 299 CURVE SMOOTH",
"744 240 OFFCURVE",
"726 191 OFFCURVE",
"694 156 CURVE SMOOTH",
"661 121 OFFCURVE",
"613 102 OFFCURVE",
"556 102 CURVE SMOOTH",
"457 102 OFFCURVE",
"395 144 OFFCURVE",
"362 240 CURVE",
"357 240 LINE",
"342 149 OFFCURVE",
"278 102 OFFCURVE",
"206 102 CURVE SMOOTH"
);
},
{
closed = 1;
nodes = (
"269 189 OFFCURVE",
"314 225 OFFCURVE",
"334 293 CURVE",
"311 366 OFFCURVE",
"269 409 OFFCURVE",
"206 409 CURVE SMOOTH",
"154 409 OFFCURVE",
"120 374 OFFCURVE",
"120 318 CURVE SMOOTH",
"120 280 LINE SMOOTH",
"120 224 OFFCURVE",
"154 189 OFFCURVE",
"206 189 CURVE SMOOTH"
);
},
{
closed = 1;
nodes = (
"608 189 OFFCURVE",
"642 224 OFFCURVE",
"642 280 CURVE SMOOTH",
"642 318 LINE SMOOTH",
"642 374 OFFCURVE",
"608 409 OFFCURVE",
"556 409 CURVE SMOOTH",
"493 409 OFFCURVE",
"448 373 OFFCURVE",
"428 305 CURVE",
"451 232 OFFCURVE",
"493 189 OFFCURVE",
"556 189 CURVE SMOOTH"
);
}
);
width = 762;
}
);
unicode = 221E;
},
{
glyphname = uni212E;
layers = (
{
layerId = "19C89ACC-DE1B-4ED2-AD26-76EE6DB054A2";
name = Regular;
paths = (
{
closed = 1;
nodes = (
"194 100 LINE",
"234 67 OFFCURVE",
"288 43 OFFCURVE",
"360 43 CURVE SMOOTH",
"480 43 OFFCURVE",
"556 103 OFFCURVE",
"604 192 CURVE",
"654 164 LINE",
"627 113 OFFCURVE",
"589 70 OFFCURVE",
"541 39 CURVE SMOOTH",
"492 7 OFFCURVE",
"431 -12 OFFCURVE",
"360 -12 CURVE SMOOTH",
"265 -12 OFFCURVE",
"185 23 OFFCURVE",
"126 86 CURVE SMOOTH",
"67 149 OFFCURVE",
"33 238 OFFCURVE",
"33 349 CURVE SMOOTH",
"33 458 OFFCURVE",
"67 549 OFFCURVE",
"126 612 CURVE SMOOTH",
"185 675 OFFCURVE",
"265 710 OFFCURVE",
"360 710 CURVE SMOOTH",
"453 710 OFFCURVE",
"535 675 OFFCURVE",
"594 612 CURVE SMOOTH",
"653 549 OFFCURVE",
"687 458 OFFCURVE",
"687 349 CURVE",
"194 349 LINE"
);
},
{
closed = 1;
nodes = (
"526 401 LINE",
"526 601 LINE",
"486 634 OFFCURVE",
"432 658 OFFCURVE",
"360 658 CURVE SMOOTH",
"288 658 OFFCURVE",
"234 634 OFFCURVE",
"194 601 CURVE",
"194 401 LINE"
);
}
);
width = 720;
}
);
unicode = 212E;
},
{
glyphname = uni2113;
layers = (
{
layerId = "19C89ACC-DE1B-4ED2-AD26-76EE6DB054A2";
name = Regular;
paths = (
{
closed = 1;
nodes = (
"187 -12 OFFCURVE",
"121 55 OFFCURVE",
"121 159 CURVE SMOOTH",
"121 167 LINE",
"108 156 OFFCURVE",
"87 142 OFFCURVE",
"72 133 CURVE",
"26 208 LINE",
"57 227 OFFCURVE",
"93 250 OFFCURVE",
"117 269 CURVE",
"117 555 LINE SMOOTH",
"117 628 OFFCURVE",
"134 677 OFFCURVE",
"162 708 CURVE SMOOTH",
"190 739 OFFCURVE",
"230 752 OFFCURVE",
"275 752 CURVE SMOOTH",
"378 752 OFFCURVE",
"432 688 OFFCURVE",
"432 575 CURVE SMOOTH",
"432 511 OFFCURVE",
"414 453 OFFCURVE",
"379 397 CURVE SMOOTH",
"343 340 OFFCURVE",
"290 285 OFFCURVE",
"221 225 CURVE",
"221 182 LINE SMOOTH",
"221 110 OFFCURVE",
"248 83 OFFCURVE",
"293 83 CURVE SMOOTH",
"344 83 OFFCURVE",
"373 118 OFFCURVE",
"406 187 CURVE",
"490 141 LINE",
"471 97 OFFCURVE",
"447 59 OFFCURVE",
"415 32 CURVE SMOOTH",
"382 4 OFFCURVE",
"341 -12 OFFCURVE",
"290 -12 CURVE SMOOTH"
);
},
{
closed = 1;
nodes = (
"247 657 OFFCURVE",
"221 634 OFFCURVE",
"221 561 CURVE SMOOTH",
"221 338 LINE",
"290 409 OFFCURVE",
"332 481 OFFCURVE",
"332 564 CURVE SMOOTH",
"332 578 LINE SMOOTH",
"332 635 OFFCURVE",
"310 657 OFFCURVE",
"278 657 CURVE SMOOTH"
);
}
);
width = 516;
}
);
unicode = 2113;
},
{
glyphname = uni2116;
layers = (
{
layerId = "19C89ACC-DE1B-4ED2-AD26-76EE6DB054A2";
name = Regular;
paths = (
{
closed = 1;
nodes = (
"740 362 OFFCURVE",
"674 425 OFFCURVE",
"674 536 CURVE SMOOTH",
"674 647 OFFCURVE",
"740 710 OFFCURVE",
"837 710 CURVE SMOOTH",
"934 710 OFFCURVE",
"1000 647 OFFCURVE",
"1000 536 CURVE SMOOTH",
"1000 425 OFFCURVE",
"934 362 OFFCURVE",
"837 362 CURVE SMOOTH"
);
},
{
closed = 1;
nodes = (
"86 0 LINE",
"86 698 LINE",
"211 698 LINE",
"409 329 LINE",
"492 163 LINE",
"495 163 LINE",
"495 698 LINE",
"601 698 LINE",
"601 0 LINE",
"475 0 LINE",
"269 377 LINE",
"194 530 LINE",
"191 530 LINE",
"191 0 LINE"
);
},
{
closed = 1;
nodes = (
"885 430 OFFCURVE",
"915 461 OFFCURVE",
"915 510 CURVE SMOOTH",
"915 562 LINE SMOOTH",
"915 611 OFFCURVE",
"885 642 OFFCURVE",
"837 642 CURVE SMOOTH",
"789 642 OFFCURVE",
"759 611 OFFCURVE",
"759 562 CURVE SMOOTH",
"759 510 LINE SMOOTH",
"759 461 OFFCURVE",
"789 430 OFFCURVE",
"837 430 CURVE SMOOTH"
);
},
{
closed = 1;
nodes = (
"690 232 LINE",
"690 304 LINE",
"984 304 LINE",
"984 232 LINE"
);
}
);
width = 1041;
}
);
unicode = 2116;
},
{
glyphname = partialdiff;
layers = (
{
layerId = "19C89ACC-DE1B-4ED2-AD26-76EE6DB054A2";
name = Regular;
paths = (
{
closed = 1;
nodes = (
"534 175 OFFCURVE",
"511 104 OFFCURVE",
"469 57 CURVE SMOOTH",
"427 10 OFFCURVE",
"367 -12 OFFCURVE",
"295 -12 CURVE SMOOTH",
"219 -12 OFFCURVE",
"159 14 OFFCURVE",
"117 59 CURVE SMOOTH",
"75 104 OFFCURVE",
"52 170 OFFCURVE",
"52 250 CURVE SMOOTH",
"52 326 OFFCURVE",
"73 390 OFFCURVE",
"109 435 CURVE SMOOTH",
"145 479 OFFCURVE",
"198 504 OFFCURVE",
"262 504 CURVE SMOOTH",
"326 504 OFFCURVE",
"368 476 OFFCURVE",
"399 431 CURVE",
"405 433 LINE",
"388 484 OFFCURVE",
"350 531 OFFCURVE",
"301 575 CURVE SMOOTH",
"252 619 OFFCURVE",
"188 661 OFFCURVE",
"119 698 CURVE",
"284 698 LINE",
"336 666 OFFCURVE",
"399 618 OFFCURVE",
"448 550 CURVE SMOOTH",
"497 481 OFFCURVE",
"534 391 OFFCURVE",
"534 271 CURVE SMOOTH"
);
},
{
closed = 1;
nodes = (
"370 75 OFFCURVE",
"419 122 OFFCURVE",
"419 214 CURVE SMOOTH",
"419 278 LINE SMOOTH",
"419 370 OFFCURVE",
"370 417 OFFCURVE",
"293 417 CURVE SMOOTH",
"216 417 OFFCURVE",
"167 370 OFFCURVE",
"167 278 CURVE SMOOTH",
"167 214 LINE SMOOTH",
"167 122 OFFCURVE",
"216 75 OFFCURVE",
"293 75 CURVE SMOOTH"
);
}
);
width = 589;
}
);
unicode = 2202;
},
{
glyphname = cent;
layers = (
{
layerId = "19C89ACC-DE1B-4ED2-AD26-76EE6DB054A2";
name = Regular;
paths = (
{
closed = 1;
nodes = (
"235 -114 LINE",
"235 -8 LINE",
"114 12 OFFCURVE",
"44 110 OFFCURVE",
"44 258 CURVE SMOOTH",
"44 407 OFFCURVE",
"114 505 OFFCURVE",
"235 524 CURVE",
"235 630 LINE",
"322 630 LINE",
"322 526 LINE",
"405 515 OFFCURVE",
"457 470 OFFCURVE",
"485 406 CURVE",
"403 361 LINE",
"387 400 OFFCURVE",
"358 428 OFFCURVE",
"317 437 CURVE",
"317 79 LINE",
"361 87 OFFCURVE",
"394 116 OFFCURVE",
"414 159 CURVE",
"492 111 LINE",
"463 46 OFFCURVE",
"406 -1 OFFCURVE",
"322 -10 CURVE",
"322 -114 LINE"
);
},
{
closed = 1;
nodes = (
"153 215 LINE SMOOTH",
"153 148 OFFCURVE",
"181 97 OFFCURVE",
"240 81 CURVE",
"240 435 LINE",
"183 419 OFFCURVE",
"153 369 OFFCURVE",
"153 301 CURVE SMOOTH"
);
}
);
width = 529;
}
);
unicode = 00A2;
},
{
glyphname = Euro;
layers = (
{
layerId = "19C89ACC-DE1B-4ED2-AD26-76EE6DB054A2";
name = Regular;
paths = (
{
closed = 1;
nodes = (
"258 -12 OFFCURVE",
"185 21 OFFCURVE",
"134 82 CURVE SMOOTH",
"83 143 OFFCURVE",
"55 233 OFFCURVE",
"55 349 CURVE SMOOTH",
"55 465 OFFCURVE",
"83 555 OFFCURVE",
"134 616 CURVE SMOOTH",
"185 677 OFFCURVE",
"258 710 OFFCURVE",
"347 710 CURVE SMOOTH",
"470 710 OFFCURVE",
"538 652 OFFCURVE",
"582 571 CURVE",
"498 514 LINE",
"470 578 OFFCURVE",
"420 616 OFFCURVE",
"347 616 CURVE SMOOTH",
"258 616 OFFCURVE",
"198 558 OFFCURVE",
"179 469 CURVE",
"423 469 LINE",
"423 392 LINE",
"174 392 LINE",
"174 306 LINE",
"423 306 LINE",
"423 229 LINE",
"179 229 LINE",
"198 137 OFFCURVE",
"258 82 OFFCURVE",
"347 82 CURVE SMOOTH",
"423 82 OFFCURVE",
"474 123 OFFCURVE",
"505 191 CURVE",
"589 132 LINE",
"569 93 OFFCURVE",
"541 57 OFFCURVE",
"502 31 CURVE SMOOTH",
"462 5 OFFCURVE",
"412 -12 OFFCURVE",
"347 -12 CURVE SMOOTH"
);
}
);
width = 627;
}
);
unicode = 20AC;
},
{
glyphname = florin;
layers = (
{
layerId = "19C89ACC-DE1B-4ED2-AD26-76EE6DB054A2";
name = Regular;
paths = (
{
closed = 1;
nodes = (
"9 -45 LINE",
"141 -45 LINE",
"174 280 LINE",
"47 280 LINE",
"57 373 LINE",
"183 373 LINE",
"203 565 LINE SMOOTH",
"211 644 OFFCURVE",
"258 698 OFFCURVE",
"349 698 CURVE SMOOTH",
"465 698 LINE",
"455 609 LINE",
"317 609 LINE",
"292 373 LINE",
"443 373 LINE",
"434 280 LINE",
"283 280 LINE",
"255 -2 LINE SMOOTH",
"247 -79 OFFCURVE",
"200 -134 OFFCURVE",
"109 -134 CURVE SMOOTH",
"0 -134 LINE"
);
}
);
width = 484;
}
);
unicode = 0192;
},
{
glyphname = sterling;
layers = (
{
layerId = "19C89ACC-DE1B-4ED2-AD26-76EE6DB054A2";
name = Regular;
paths = (
{
closed = 1;
nodes = (
"75 0 LINE",
"75 115 LINE",
"130 139 OFFCURVE",
"152 190 OFFCURVE",
"152 246 CURVE SMOOTH",
"152 261 OFFCURVE",
"151 275 OFFCURVE",
"148 288 CURVE",
"49 288 LINE",
"49 379 LINE",
"117 379 LINE",
"105 418 OFFCURVE",
"92 455 OFFCURVE",
"92 502 CURVE SMOOTH",
"92 563 OFFCURVE",
"115 616 OFFCURVE",
"156 653 CURVE SMOOTH",
"197 689 OFFCURVE",
"256 710 OFFCURVE",
"331 710 CURVE SMOOTH",
"435 710 OFFCURVE",
"506 669 OFFCURVE",
"554 593 CURVE",
"471 534 LINE",
"436 585 OFFCURVE",
"394 612 OFFCURVE",
"331 612 CURVE SMOOTH",
"252 612 OFFCURVE",
"207 570 OFFCURVE",
"207 487 CURVE SMOOTH",
"207 446 OFFCURVE",
"218 414 OFFCURVE",
"229 379 CURVE",
"437 379 LINE",
"437 288 LINE",
"259 288 LINE",
"261 277 OFFCURVE",
"262 265 OFFCURVE",
"262 253 CURVE SMOOTH",
"262 180 OFFCURVE",
"225 127 OFFCURVE",
"186 104 CURVE",
"186 98 LINE",
"537 98 LINE",
"537 0 LINE"
);
}
);
width = 589;
}
);
unicode = 00A3;
},
{
glyphname = dollar;
layers = (
{
layerId = "19C89ACC-DE1B-4ED2-AD26-76EE6DB054A2";
name = Regular;
paths = (
{
closed = 1;
nodes = (
"261 -82 LINE",
"261 4 LINE",
"160 12 OFFCURVE",
"94 57 OFFCURVE",
"43 117 CURVE",
"116 183 LINE",
"157 132 OFFCURVE",
"204 101 OFFCURVE",
"268 93 CURVE",
"268 317 LINE",
"124 348 OFFCURVE",
"64 408 OFFCURVE",
"64 509 CURVE SMOOTH",
"64 616 OFFCURVE",
"140 680 OFFCURVE",
"261 693 CURVE",
"261 780 LINE",
"346 780 LINE",
"346 693 LINE",
"431 685 OFFCURVE",
"493 650 OFFCURVE",
"540 590 CURVE",
"466 529 LINE",
"437 568 OFFCURVE",
"397 595 OFFCURVE",
"340 604 CURVE",
"340 399 LINE",
"344 398 LINE SMOOTH",
"417 379 OFFCURVE",
"469 358 OFFCURVE",
"502 328 CURVE SMOOTH",
"534 298 OFFCURVE",
"548 259 OFFCURVE",
"548 207 CURVE SMOOTH",
"548 99 OFFCURVE",
"475 22 OFFCURVE",
"346 6 CURVE",
"346 -82 LINE"
);
},
{
closed = 1;
nodes = (
"443 251 OFFCURVE",
"419 282 OFFCURVE",
"340 302 CURVE",
"340 94 LINE",
"405 105 OFFCURVE",
"443 144 OFFCURVE",
"443 200 CURVE SMOOTH"
);
},
{
closed = 1;
nodes = (
"168 458 OFFCURVE",
"200 434 OFFCURVE",
"268 415 CURVE",
"268 605 LINE",
"204 596 OFFCURVE",
"168 565 OFFCURVE",
"168 514 CURVE SMOOTH"
);
}
);
width = 599;
}
);
unicode = 0024;
},
{
glyphname = yen;
layers = (
{
layerId = "19C89ACC-DE1B-4ED2-AD26-76EE6DB054A2";
name = Regular;
paths = (
{
closed = 1;
nodes = (
"368 140 LINE",
"368 0 LINE",
"255 0 LINE",
"255 140 LINE",
"83 140 LINE",
"83 217 LINE",
"255 217 LINE",
"255 301 LINE",
"83 301 LINE",
"83 378 LINE",
"208 378 LINE",
"28 698 LINE",
"156 698 LINE",
"315 400 LINE",
"319 400 LINE",
"473 698 LINE",
"595 698 LINE",
"416 378 LINE",
"540 378 LINE",
"540 301 LINE",
"368 301 LINE",
"368 217 LINE",
"540 217 LINE",
"540 140 LINE"
);
}
);
width = 622;
}
);
unicode = 00A5;
},
{
glyphname = uni0E3F;
layers = (
{
layerId = "19C89ACC-DE1B-4ED2-AD26-76EE6DB054A2";
name = Regular;
paths = (
{
closed = 1;
nodes = (
"367 -85 LINE",
"279 -85 LINE",
"279 21 LINE",
"86 21 LINE",
"86 677 LINE",
"279 677 LINE",
"279 780 LINE",
"367 780 LINE",
"367 677 LINE",
"394 677 LINE SMOOTH",
"507 677 OFFCURVE",
"574 611 OFFCURVE",
"574 508 CURVE SMOOTH",
"574 419 OFFCURVE",
"526 379 OFFCURVE",
"453 368 CURVE",
"453 362 LINE",
"489 358 OFFCURVE",
"526 347 OFFCURVE",
"554 324 CURVE",
"581 300 OFFCURVE",
"599 263 OFFCURVE",
"599 210 CURVE SMOOTH",
"599 157 OFFCURVE",
"580 110 OFFCURVE",
"549 76 CURVE SMOOTH",
"517 42 OFFCURVE",
"472 21 OFFCURVE",
"423 21 CURVE SMOOTH",
"367 21 LINE"
);
},
{
closed = 1;
nodes = (
"284 399 LINE",
"284 583 LINE",
"194 583 LINE",
"194 399 LINE"
);
},
{
closed = 1;
nodes = (
"362 399 LINE",
"380 399 LINE SMOOTH",
"434 399 OFFCURVE",
"461 424 OFFCURVE",
"461 475 CURVE SMOOTH",
"461 507 LINE SMOOTH",
"461 558 OFFCURVE",
"434 583 OFFCURVE",
"380 583 CURVE SMOOTH",
"362 583 LINE"
);
},
{
closed = 1;
nodes = (
"284 115 LINE",
"284 310 LINE",
"194 310 LINE",
"194 115 LINE"
);
},
{
closed = 1;
nodes = (
"362 115 LINE",
"393 115 LINE SMOOTH",
"450 115 OFFCURVE",
"486 141 OFFCURVE",
"486 196 CURVE SMOOTH",
"486 229 LINE SMOOTH",
"486 284 OFFCURVE",
"450 310 OFFCURVE",
"393 310 CURVE SMOOTH",
"362 310 LINE"
);
}
);
width = 652;
}
);
unicode = 0E3F;
},
{
glyphname = uni20A1;
layers = (
{
layerId = "19C89ACC-DE1B-4ED2-AD26-76EE6DB054A2";
name = Regular;
paths = (
{
closed = 1;
nodes = (
"319 3 LINE",
"302 4 OFFCURVE",
"287 7 OFFCURVE",
"272 10 CURVE",
"262 -82 LINE",
"193 -82 LINE",
"205 33 LINE",
"110 81 OFFCURVE",
"55 188 OFFCURVE",
"55 348 CURVE SMOOTH",
"55 543 OFFCURVE",
"136 659 OFFCURVE",
"273 688 CURVE",
"283 780 LINE",
"351 780 LINE",
"342 696 LINE",
"349 696 LINE SMOOTH",
"364 696 OFFCURVE",
"378 695 OFFCURVE",
"391 693 CURVE",
"400 780 LINE",
"468 780 LINE",
"458 677 LINE",
"514 654 OFFCURVE",
"552 614 OFFCURVE",
"583 559 CURVE",
"501 504 LINE",
"486 535 OFFCURVE",
"470 559 OFFCURVE",
"445 575 CURVE",
"396 101 LINE",
"447 116 OFFCURVE",
"482 150 OFFCURVE",
"503 201 CURVE",
"585 144 LINE",
"550 76 OFFCURVE",
"488 17 OFFCURVE",
"387 5 CURVE",
"378 -82 LINE",
"310 -82 LINE"
);
},
{
closed = 1;
nodes = (
"332 604 LINE",
"280 106 LINE",
"296 99 OFFCURVE",
"313 96 OFFCURVE",
"330 95 CURVE",
"382 600 LINE",
"371 603 OFFCURVE",
"359 604 OFFCURVE",
"339 604 CURVE SMOOTH"
);
},
{
closed = 1;
nodes = (
"171 292 LINE SMOOTH",
"171 229 OFFCURVE",
"187 181 OFFCURVE",
"220 147 CURVE",
"264 585 LINE",
"204 557 OFFCURVE",
"171 493 OFFCURVE",
"171 406 CURVE SMOOTH"
);
}
);
width = 623;
}
);
unicode = 20A1;
},
{
glyphname = uni20A4;
layers = (
{
layerId = "19C89ACC-DE1B-4ED2-AD26-76EE6DB054A2";
name = Regular;
paths = (
{
closed = 1;
nodes = (
"537 0 LINE",
"75 0 LINE",
"75 112 LINE",
"124 135 OFFCURVE",
"146 182 OFFCURVE",
"150 233 CURVE",
"49 233 LINE",
"49 310 LINE",
"142 310 LINE",
"139 323 OFFCURVE",
"135 337 OFFCURVE",
"130 350 CURVE SMOOTH",
"125 363 OFFCURVE",
"120 377 OFFCURVE",
"115 390 CURVE",
"49 390 LINE",
"49 467 LINE",
"95 467 LINE",
"93 479 OFFCURVE",
"92 491 OFFCURVE",
"92 502 CURVE SMOOTH",
"92 563 OFFCURVE",
"115 616 OFFCURVE",
"156 653 CURVE SMOOTH",
"197 689 OFFCURVE",
"256 710 OFFCURVE",
"331 710 CURVE SMOOTH",
"435 710 OFFCURVE",
"506 669 OFFCURVE",
"554 593 CURVE",
"471 537 LINE",
"436 588 OFFCURVE",
"394 615 OFFCURVE",
"331 615 CURVE SMOOTH",
"252 615 OFFCURVE",
"207 570 OFFCURVE",
"207 487 CURVE SMOOTH",
"207 484 OFFCURVE",
"207 480 OFFCURVE",
"208 477 CURVE",
"208 474 OFFCURVE",
"208 470 OFFCURVE",
"208 467 CURVE",
"428 467 LINE",
"428 390 LINE",
"227 390 LINE",
"232 377 OFFCURVE",
"237 364 OFFCURVE",
"242 351 CURVE SMOOTH",
"247 338 OFFCURVE",
"251 324 OFFCURVE",
"254 310 CURVE",
"428 310 LINE",
"428 233 LINE",
"260 233 LINE",
"253 172 OFFCURVE",
"221 124 OFFCURVE",
"186 101 CURVE",
"186 95 LINE",
"537 95 LINE"
);
}
);
width = 589;
}
);
unicode = 20A4;
},
{
glyphname = uni20A6;
layers = (
{
layerId = "19C89ACC-DE1B-4ED2-AD26-76EE6DB054A2";
name = Regular;
paths = (
{
closed = 1;
nodes = (
"370 233 LINE",
"203 233 LINE",
"203 0 LINE",
"99 0 LINE",
"99 231 LINE",
"16 231 LINE",
"16 308 LINE",
"99 308 LINE",
"99 392 LINE",
"16 392 LINE",
"16 469 LINE",
"99 469 LINE",
"99 698 LINE",
"228 698 LINE",
"355 467 LINE",
"528 467 LINE",
"528 698 LINE",
"630 698 LINE",
"630 469 LINE",
"714 469 LINE",
"714 392 LINE",
"630 392 LINE",
"630 308 LINE",
"714 308 LINE",
"714 231 LINE",
"630 231 LINE",
"630 0 LINE",
"499 0 LINE"
);
},
{
closed = 1;
nodes = (
"335 306 LINE",
"206 544 LINE",
"203 544 LINE",
"203 306 LINE"
);
},
{
closed = 1;
nodes = (
"525 147 LINE",
"528 147 LINE",
"528 394 LINE",
"391 394 LINE"
);
}
);
width = 730;
}
);
unicode = 20A6;
},
{
glyphname = uni20A8;
layers = (
{
layerId = "19C89ACC-DE1B-4ED2-AD26-76EE6DB054A2";
name = Regular;
paths = (
{
closed = 1;
nodes = (
"86 0 LINE",
"86 698 LINE",
"286 698 LINE SMOOTH",
"410 698 OFFCURVE",
"479 627 OFFCURVE",
"479 503 CURVE SMOOTH",
"479 419 OFFCURVE",
"448 360 OFFCURVE",
"385 329 CURVE",
"469 159 LINE SMOOTH",
"498 102 OFFCURVE",
"529 75 OFFCURVE",
"576 75 CURVE SMOOTH",
"620 75 OFFCURVE",
"646 95 OFFCURVE",
"646 130 CURVE SMOOTH",
"646 143 OFFCURVE",
"644 154 OFFCURVE",
"637 166 CURVE",
"629 177 OFFCURVE",
"618 189 OFFCURVE",
"598 208 CURVE SMOOTH",
"579 227 LINE",
"523 279 OFFCURVE",
"502 318 OFFCURVE",
"502 370 CURVE SMOOTH",
"502 450 OFFCURVE",
"559 502 OFFCURVE",
"648 502 CURVE SMOOTH",
"687 502 OFFCURVE",
"724 496 OFFCURVE",
"759 473 CURVE",
"720 399 LINE",
"701 412 OFFCURVE",
"682 419 OFFCURVE",
"657 419 CURVE SMOOTH",
"626 419 OFFCURVE",
"605 403 OFFCURVE",
"605 372 CURVE SMOOTH",
"605 343 OFFCURVE",
"622 326 OFFCURVE",
"657 291 CURVE",
"674 276 LINE",
"702 248 OFFCURVE",
"722 226 OFFCURVE",
"735 205 CURVE",
"747 184 OFFCURVE",
"752 161 OFFCURVE",
"752 133 CURVE SMOOTH",
"752 92 OFFCURVE",
"739 56 OFFCURVE",
"709 30 CURVE SMOOTH",
"679 4 OFFCURVE",
"631 -12 OFFCURVE",
"566 -12 CURVE SMOOTH",
"475 -12 OFFCURVE",
"414 18 OFFCURVE",
"374 105 CURVE SMOOTH",
"283 301 LINE",
"197 301 LINE",
"197 0 LINE"
);
},
{
closed = 1;
nodes = (
"273 394 LINE SMOOTH",
"330 394 OFFCURVE",
"365 421 OFFCURVE",
"365 477 CURVE SMOOTH",
"365 521 LINE SMOOTH",
"365 577 OFFCURVE",
"330 604 OFFCURVE",
"273 604 CURVE SMOOTH",
"197 604 LINE",
"197 394 LINE"
);
}
);
width = 790;
}
);
unicode = 20A8;
},
{
glyphname = uni20A9;
layers = (
{
layerId = "19C89ACC-DE1B-4ED2-AD26-76EE6DB054A2";
name = Regular;
paths = (
{
closed = 1;
nodes = (
"574 233 LINE",
"402 233 LINE",
"343 0 LINE",
"217 0 LINE",
"163 232 LINE",
"37 232 LINE",
"37 309 LINE",
"144 309 LINE",
"125 392 LINE",
"37 392 LINE",
"37 469 LINE",
"107 469 LINE",
"53 698 LINE",
"165 698 LINE",
"214 467 LINE",
"371 467 LINE",
"429 698 LINE",
"555 698 LINE",
"611 468 LINE",
"770 468 LINE",
"821 698 LINE",
"931 698 LINE",
"874 470 LINE",
"945 470 LINE",
"945 393 LINE",
"855 393 LINE",
"835 309 LINE",
"945 309 LINE",
"945 232 LINE",
"816 232 LINE",
"758 0 LINE",
"632 0 LINE"
);
},
{
closed = 1;
nodes = (
"345 360 LINE",
"353 394 LINE",
"229 394 LINE",
"237 360 LINE",
"286 128 LINE",
"289 128 LINE"
);
},
{
closed = 1;
nodes = (
"696 129 LINE",
"746 359 LINE",
"754 395 LINE",
"629 395 LINE",
"637 362 LINE",
"693 129 LINE"
);
},
{
closed = 1;
nodes = (
"421 306 LINE",
"556 306 LINE",
"545 350 LINE",
"490 578 LINE",
"488 578 LINE",
"432 351 LINE"
);
}
);
width = 982;
}
);
unicode = 20A9;
},
{
glyphname = uni20AA;
layers = (
{
layerId = "19C89ACC-DE1B-4ED2-AD26-76EE6DB054A2";
name = Regular;
paths = (
{
closed = 1;
nodes = (
"271 525 LINE",
"374 525 LINE",
"374 93 LINE",
"551 93 LINE SMOOTH",
"602 93 OFFCURVE",
"641 121 OFFCURVE",
"641 189 CURVE SMOOTH",
"641 698 LINE",
"744 698 LINE",
"744 198 LINE SMOOTH",
"744 65 OFFCURVE",
"668 0 OFFCURVE",
"560 0 CURVE SMOOTH",
"271 0 LINE"
);
},
{
closed = 1;
nodes = (
"86 0 LINE",
"86 698 LINE",
"377 698 LINE SMOOTH",
"485 698 OFFCURVE",
"559 633 OFFCURVE",
"559 500 CURVE SMOOTH",
"559 173 LINE",
"456 173 LINE",
"456 509 LINE SMOOTH",
"456 577 OFFCURVE",
"420 605 OFFCURVE",
"368 605 CURVE SMOOTH",
"189 605 LINE",
"189 0 LINE"
);
}
);
width = 830;
}
);
unicode = 20AA;
},
{
glyphname = uni20AB;
layers = (
{
layerId = "19C89ACC-DE1B-4ED2-AD26-76EE6DB054A2";
name = Regular;
paths = (
{
closed = 1;
nodes = (
"368 222 LINE",
"364 222 LINE",
"339 174 OFFCURVE",
"297 142 OFFCURVE",
"226 142 CURVE SMOOTH",
"122 142 OFFCURVE",
"56 210 OFFCURVE",
"56 347 CURVE SMOOTH",
"56 484 OFFCURVE",
"122 552 OFFCURVE",
"226 552 CURVE SMOOTH",
"297 552 OFFCURVE",
"339 520 OFFCURVE",
"364 472 CURVE",
"368 472 LINE",
"368 608 LINE",
"231 608 LINE",
"231 681 LINE",
"368 681 LINE",
"368 740 LINE",
"475 740 LINE",
"475 681 LINE",
"539 681 LINE",
"539 608 LINE",
"475 608 LINE",
"475 151 LINE",
"368 151 LINE"
);
},
{
closed = 1;
nodes = (
"328 223 OFFCURVE",
"368 256 OFFCURVE",
"368 300 CURVE SMOOTH",
"368 394 LINE SMOOTH",
"368 438 OFFCURVE",
"328 471 OFFCURVE",
"268 471 CURVE SMOOTH",
"203 471 OFFCURVE",
"163 433 OFFCURVE",
"163 373 CURVE SMOOTH",
"163 321 LINE SMOOTH",
"163 261 OFFCURVE",
"203 223 OFFCURVE",
"268 223 CURVE SMOOTH"
);
},
{
closed = 1;
nodes = (
"63 0 LINE",
"63 84 LINE",
"500 84 LINE",
"500 0 LINE"
);
}
);
width = 577;
}
);
unicode = 20AB;
},
{
glyphname = uni20AD;
layers = (
{
layerId = "19C89ACC-DE1B-4ED2-AD26-76EE6DB054A2";
name = Regular;
paths = (
{
closed = 1;
nodes = (
"208 0 LINE",
"95 0 LINE",
"95 312 LINE",
"8 312 LINE",
"8 402 LINE",
"95 402 LINE",
"95 698 LINE",
"208 698 LINE",
"208 402 LINE",
"269 402 LINE",
"477 698 LINE",
"604 698 LINE",
"386 402 LINE",
"586 402 LINE",
"586 312 LINE",
"395 312 LINE",
"625 0 LINE",
"491 0 LINE",
"271 312 LINE",
"208 312 LINE"
);
}
);
width = 646;
}
);
unicode = 20AD;
},
{
glyphname = uni20AE;
layers = (
{
layerId = "19C89ACC-DE1B-4ED2-AD26-76EE6DB054A2";
name = Regular;
paths = (
{
closed = 1;
nodes = (
"360 213 LINE",
"360 0 LINE",
"247 0 LINE",
"247 159 LINE",
"119 98 LINE",
"119 176 LINE",
"247 237 LINE",
"247 318 LINE",
"119 257 LINE",
"119 335 LINE",
"247 396 LINE",
"247 603 LINE",
"39 603 LINE",
"39 698 LINE",
"568 698 LINE",
"568 603 LINE",
"360 603 LINE",
"360 450 LINE",
"488 511 LINE",
"488 433 LINE",
"360 372 LINE",
"360 291 LINE",
"488 353 LINE",
"488 275 LINE"
);
}
);
width = 607;
}
);
unicode = 20AE;
},
{
glyphname = uni20B1;
layers = (
{
layerId = "19C89ACC-DE1B-4ED2-AD26-76EE6DB054A2";
name = Regular;
paths = (
{
closed = 1;
nodes = (
"220 0 LINE",
"107 0 LINE",
"107 323 LINE",
"24 323 LINE",
"24 396 LINE",
"107 396 LINE",
"107 479 LINE",
"24 479 LINE",
"24 552 LINE",
"107 552 LINE",
"107 698 LINE",
"360 698 LINE SMOOTH",
"459 698 OFFCURVE",
"521 649 OFFCURVE",
"546 552 CURVE",
"640 552 LINE",
"640 479 LINE",
"556 479 LINE",
"557 466 OFFCURVE",
"558 453 OFFCURVE",
"558 438 CURVE SMOOTH",
"558 423 OFFCURVE",
"557 409 OFFCURVE",
"556 396 CURVE",
"640 396 LINE",
"640 323 LINE",
"544 323 LINE",
"519 227 OFFCURVE",
"457 175 OFFCURVE",
"360 175 CURVE SMOOTH",
"220 175 LINE"
);
},
{
closed = 1;
nodes = (
"220 548 LINE",
"440 548 LINE",
"428 587 OFFCURVE",
"397 613 OFFCURVE",
"352 613 CURVE SMOOTH",
"220 613 LINE"
);
},
{
closed = 1;
nodes = (
"446 392 LINE",
"446 483 LINE",
"220 483 LINE",
"220 392 LINE"
);
},
{
closed = 1;
nodes = (
"352 260 LINE SMOOTH",
"399 260 OFFCURVE",
"430 286 OFFCURVE",
"441 327 CURVE",
"220 327 LINE",
"220 260 LINE"
);
}
);
width = 657;
}
);
unicode = 20B1;
},
{
glyphname = uni20B2;
layers = (
{
layerId = "19C89ACC-DE1B-4ED2-AD26-76EE6DB054A2";
name = Regular;
paths = (
{
closed = 1;
nodes = (
"211 -82 LINE",
"229 22 LINE",
"224 24 LINE SMOOTH",
"153 53 OFFCURVE",
"103 113 OFFCURVE",
"76 199 CURVE SMOOTH",
"62 242 OFFCURVE",
"55 292 OFFCURVE",
"55 349 CURVE SMOOTH",
"55 462 OFFCURVE",
"84 549 OFFCURVE",
"134 608 CURVE SMOOTH",
"184 667 OFFCURVE",
"256 696 OFFCURVE",
"345 696 CURVE SMOOTH",
"347 696 LINE",
"361 780 LINE",
"451 780 LINE",
"434 684 LINE",
"457 677 OFFCURVE",
"478 668 OFFCURVE",
"497 657 CURVE SMOOTH",
"540 631 OFFCURVE",
"573 593 OFFCURVE",
"596 543 CURVE",
"507 496 LINE",
"494 529 OFFCURVE",
"475 556 OFFCURVE",
"448 575 CURVE",
"437 582 OFFCURVE",
"426 588 OFFCURVE",
"413 593 CURVE",
"374 371 LINE",
"609 371 LINE",
"609 256 LINE SMOOTH",
"609 159 OFFCURVE",
"572 96 OFFCURVE",
"520 57 CURVE SMOOTH",
"468 17 OFFCURVE",
"402 2 OFFCURVE",
"345 2 CURVE SMOOTH",
"335 2 OFFCURVE",
"325 2 OFFCURVE",
"316 3 CURVE",
"301 -82 LINE"
);
},
{
closed = 1;
nodes = (
"187 519 OFFCURVE",
"172 469 OFFCURVE",
"172 404 CURVE SMOOTH",
"172 294 LINE SMOOTH",
"172 229 OFFCURVE",
"187 179 OFFCURVE",
"218 145 CURVE",
"227 134 OFFCURVE",
"238 125 OFFCURVE",
"250 118 CURVE",
"335 604 LINE",
"286 602 OFFCURVE",
"247 585 OFFCURVE",
"218 553 CURVE SMOOTH"
);
},
{
closed = 1;
nodes = (
"345 94 LINE SMOOTH",
"440 94 OFFCURVE",
"504 146 OFFCURVE",
"504 242 CURVE SMOOTH",
"504 278 LINE",
"358 278 LINE",
"326 94 LINE"
);
}
);
width = 673;
}
);
unicode = 20B2;
},
{
glyphname = uni20B4;
layers = (
{
layerId = "19C89ACC-DE1B-4ED2-AD26-76EE6DB054A2";
name = Regular;
paths = (
{
closed = 1;
nodes = (
"256 -12 OFFCURVE",
"201 9 OFFCURVE",
"164 45 CURVE SMOOTH",
"127 81 OFFCURVE",
"107 130 OFFCURVE",
"107 186 CURVE SMOOTH",
"107 207 OFFCURVE",
"111 225 OFFCURVE",
"115 240 CURVE",
"43 240 LINE",
"43 317 LINE",
"160 317 LINE",
"311 400 LINE",
"43 400 LINE",
"43 477 LINE",
"411 477 LINE",
"415 490 OFFCURVE",
"418 504 OFFCURVE",
"418 520 CURVE SMOOTH",
"418 587 OFFCURVE",
"379 616 OFFCURVE",
"311 616 CURVE SMOOTH",
"260 616 OFFCURVE",
"214 600 OFFCURVE",
"178 557 CURVE",
"116 625 LINE",
"167 682 OFFCURVE",
"240 710 OFFCURVE",
"317 710 CURVE SMOOTH",
"380 710 OFFCURVE",
"431 691 OFFCURVE",
"467 659 CURVE SMOOTH",
"503 627 OFFCURVE",
"523 582 OFFCURVE",
"523 530 CURVE SMOOTH",
"523 511 OFFCURVE",
"521 493 OFFCURVE",
"516 477 CURVE",
"592 477 LINE",
"592 400 LINE",
"469 400 LINE",
"321 317 LINE",
"592 317 LINE",
"592 240 LINE",
"223 240 LINE",
"216 225 OFFCURVE",
"212 209 OFFCURVE",
"212 191 CURVE SMOOTH",
"212 119 OFFCURVE",
"258 82 OFFCURVE",
"330 82 CURVE SMOOTH",
"381 82 OFFCURVE",
"426 98 OFFCURVE",
"478 154 CURVE",
"539 85 LINE",
"488 24 OFFCURVE",
"415 -12 OFFCURVE",
"324 -12 CURVE SMOOTH"
);
}
);
width = 635;
}
);
unicode = 20B4;
},
{
glyphname = uni20B5;
layers = (
{
layerId = "19C89ACC-DE1B-4ED2-AD26-76EE6DB054A2";
name = Regular;
paths = (
{
closed = 1;
nodes = (
"211 -82 LINE",
"229 23 LINE",
"228 23 OFFCURVE",
"226 23 OFFCURVE",
"225 24 CURVE",
"154 55 OFFCURVE",
"103 115 OFFCURVE",
"76 201 CURVE SMOOTH",
"62 244 OFFCURVE",
"55 293 OFFCURVE",
"55 349 CURVE SMOOTH",
"55 461 OFFCURVE",
"83 547 OFFCURVE",
"134 607 CURVE SMOOTH",
"185 666 OFFCURVE",
"257 696 OFFCURVE",
"344 696 CURVE SMOOTH",
"347 696 LINE",
"361 780 LINE",
"451 780 LINE",
"434 684 LINE",
"454 678 OFFCURVE",
"472 670 OFFCURVE",
"489 659 CURVE SMOOTH",
"528 634 OFFCURVE",
"558 602 OFFCURVE",
"579 561 CURVE",
"496 505 LINE",
"483 536 OFFCURVE",
"463 561 OFFCURVE",
"437 578 CURVE",
"430 583 OFFCURVE",
"422 587 OFFCURVE",
"413 590 CURVE",
"326 96 LINE",
"344 96 LINE SMOOTH",
"417 96 OFFCURVE",
"471 134 OFFCURVE",
"499 201 CURVE",
"581 145 LINE",
"561 106 OFFCURVE",
"534 71 OFFCURVE",
"495 45 CURVE SMOOTH",
"456 19 OFFCURVE",
"408 2 OFFCURVE",
"344 2 CURVE SMOOTH",
"335 2 OFFCURVE",
"325 2 OFFCURVE",
"316 3 CURVE",
"301 -82 LINE"
);
},
{
closed = 1;
nodes = (
"230 571 OFFCURVE",
"200 536 OFFCURVE",
"184 488 CURVE SMOOTH",
"175 463 OFFCURVE",
"171 436 OFFCURVE",
"171 406 CURVE SMOOTH",
"171 294 LINE SMOOTH",
"171 234 OFFCURVE",
"189 185 OFFCURVE",
"218 150 CURVE",
"228 139 OFFCURVE",
"239 129 OFFCURVE",
"251 121 CURVE",
"335 604 LINE",
"312 603 OFFCURVE",
"292 598 OFFCURVE",
"273 590 CURVE SMOOTH"
);
}
);
width = 619;
}
);
unicode = 20B5;
},
{
glyphname = uni20B8;
layers = (
{
layerId = "19C89ACC-DE1B-4ED2-AD26-76EE6DB054A2";
name = Regular;
paths = (
{
closed = 1;
nodes = (
"39 613 LINE",
"39 698 LINE",
"568 698 LINE",
"568 613 LINE"
);
},
{
closed = 1;
nodes = (
"360 442 LINE",
"360 0 LINE",
"247 0 LINE",
"247 442 LINE",
"39 442 LINE",
"39 527 LINE",
"568 527 LINE",
"568 442 LINE"
);
}
);
width = 607;
}
);
unicode = 20B8;
},
{
glyphname = uni20B9;
layers = (
{
layerId = "19C89ACC-DE1B-4ED2-AD26-76EE6DB054A2";
name = Regular;
paths = (
{
closed = 1;
nodes = (
"374 0 LINE",
"178 263 LINE",
"57 263 LINE",
"57 348 LINE",
"253 348 LINE SMOOTH",
"318 348 OFFCURVE",
"359 378 OFFCURVE",
"362 438 CURVE",
"57 438 LINE",
"57 523 LINE",
"362 523 LINE",
"358 587 OFFCURVE",
"317 613 OFFCURVE",
"253 613 CURVE SMOOTH",
"57 613 LINE",
"57 698 LINE",
"580 698 LINE",
"580 613 LINE",
"398 613 LINE",
"398 609 LINE",
"410 608 OFFCURVE",
"425 601 OFFCURVE",
"438 589 CURVE",
"451 576 OFFCURVE",
"462 555 OFFCURVE",
"469 523 CURVE",
"580 523 LINE",
"580 438 LINE",
"471 438 LINE",
"459 345 OFFCURVE",
"402 282 OFFCURVE",
"302 270 CURVE",
"511 0 LINE"
);
}
);
width = 615;
}
);
unicode = 20B9;
},
{
glyphname = uni20BA;
layers = (
{
layerId = "19C89ACC-DE1B-4ED2-AD26-76EE6DB054A2";
name = Regular;
paths = (
{
closed = 1;
nodes = (
"108 233 LINE",
"15 188 LINE",
"15 266 LINE",
"108 311 LINE",
"108 392 LINE",
"15 347 LINE",
"15 425 LINE",
"108 470 LINE",
"108 698 LINE",
"222 698 LINE",
"222 524 LINE",
"410 614 LINE",
"410 536 LINE",
"222 446 LINE",
"222 365 LINE",
"410 455 LINE",
"410 377 LINE",
"222 287 LINE",
"222 94 LINE",
"304 94 LINE SMOOTH",
"407 94 OFFCURVE",
"463 161 OFFCURVE",
"463 305 CURVE",
"572 305 LINE",
"572 220 OFFCURVE",
"552 144 OFFCURVE",
"509 89 CURVE SMOOTH",
"466 33 OFFCURVE",
"402 0 OFFCURVE",
"315 0 CURVE SMOOTH",
"108 0 LINE"
);
}
);
width = 609;
}
);
unicode = 20BA;
},
{
glyphname = uni20BD;
layers = (
{
layerId = "19C89ACC-DE1B-4ED2-AD26-76EE6DB054A2";
name = Regular;
paths = (
{
closed = 1;
nodes = (
"220 121 LINE",
"220 0 LINE",
"107 0 LINE",
"107 121 LINE",
"24 121 LINE",
"24 206 LINE",
"107 206 LINE",
"107 296 LINE",
"24 296 LINE",
"24 381 LINE",
"107 381 LINE",
"107 698 LINE",
"399 698 LINE SMOOTH",
"527 698 OFFCURVE",
"601 624 OFFCURVE",
"601 497 CURVE SMOOTH",
"601 370 OFFCURVE",
"527 296 OFFCURVE",
"399 296 CURVE SMOOTH",
"220 296 LINE",
"220 206 LINE",
"469 206 LINE",
"469 121 LINE"
);
},
{
closed = 1;
nodes = (
"220 381 LINE",
"391 381 LINE SMOOTH",
"450 381 OFFCURVE",
"482 411 OFFCURVE",
"482 467 CURVE SMOOTH",
"482 517 LINE SMOOTH",
"482 573 OFFCURVE",
"450 603 OFFCURVE",
"391 603 CURVE SMOOTH",
"220 603 LINE"
);
}
);
width = 639;
}
);
unicode = 20BD;
},
{
glyphname = uni20BF;
layers = (
{
layerId = "19C89ACC-DE1B-4ED2-AD26-76EE6DB054A2";
name = Regular;
paths = (
{
closed = 1;
nodes = (
"341 21 LINE",
"278 21 LINE",
"278 -82 LINE",
"191 -82 LINE",
"191 21 LINE",
"86 21 LINE",
"86 677 LINE",
"191 677 LINE",
"191 780 LINE",
"278 780 LINE",
"278 677 LINE",
"341 677 LINE",
"341 780 LINE",
"428 780 LINE",
"428 676 LINE",
"520 663 OFFCURVE",
"574 600 OFFCURVE",
"574 508 CURVE SMOOTH",
"574 419 OFFCURVE",
"526 379 OFFCURVE",
"453 368 CURVE",
"453 362 LINE",
"490 358 OFFCURVE",
"527 347 OFFCURVE",
"555 323 CURVE SMOOTH",
"582 299 OFFCURVE",
"599 263 OFFCURVE",
"599 210 CURVE SMOOTH",
"599 158 OFFCURVE",
"581 111 OFFCURVE",
"550 77 CURVE SMOOTH",
"519 43 OFFCURVE",
"477 22 OFFCURVE",
"428 21 CURVE",
"428 -82 LINE",
"341 -82 LINE"
);
},
{
closed = 1;
nodes = (
"194 399 LINE",
"380 399 LINE SMOOTH",
"434 399 OFFCURVE",
"461 424 OFFCURVE",
"461 475 CURVE SMOOTH",
"461 506 LINE SMOOTH",
"461 557 OFFCURVE",
"434 582 OFFCURVE",
"380 582 CURVE SMOOTH",
"194 582 LINE"
);
},
{
closed = 1;
nodes = (
"194 116 LINE",
"393 116 LINE SMOOTH",
"450 116 OFFCURVE",
"486 144 OFFCURVE",
"486 197 CURVE SMOOTH",
"486 228 LINE SMOOTH",
"486 281 OFFCURVE",
"450 309 OFFCURVE",
"393 309 CURVE SMOOTH",
"194 309 LINE"
);
}
);
width = 652;
}
);
unicode = 20BF;
},
{
glyphname = fi;
layers = (
{
layerId = "19C89ACC-DE1B-4ED2-AD26-76EE6DB054A2";
name = Regular;
paths = (
{
closed = 1;
nodes = (
"105 431 LINE",
"26 431 LINE",
"26 520 LINE",
"105 520 LINE",
"105 606 LINE SMOOTH",
"105 690 OFFCURVE",
"149 740 OFFCURVE",
"237 740 CURVE SMOOTH",
"323 740 LINE",
"323 651 LINE",
"214 651 LINE",
"214 520 LINE",
"523 520 LINE",
"523 0 LINE",
"414 0 LINE",
"414 431 LINE",
"214 431 LINE",
"214 0 LINE",
"105 0 LINE"
);
},
{
closed = 1;
nodes = (
"424 613 OFFCURVE",
"404 637 OFFCURVE",
"404 670 CURVE SMOOTH",
"404 687 LINE SMOOTH",
"404 720 OFFCURVE",
"424 744 OFFCURVE",
"469 744 CURVE SMOOTH",
"514 744 OFFCURVE",
"533 720 OFFCURVE",
"533 687 CURVE SMOOTH",
"533 670 LINE SMOOTH",
"533 637 OFFCURVE",
"514 613 OFFCURVE",
"469 613 CURVE SMOOTH"
);
}
);
width = 601;
}
);
leftKerningGroup = f;
rightKerningGroup = i;
unicode = FB01;
},
{
glyphname = fl;
lastChange = "2018-11-02 14:45:51 +0000";
layers = (
{
layerId = "19C89ACC-DE1B-4ED2-AD26-76EE6DB054A2";
name = Regular;
paths = (
{
closed = 1;
nodes = (
"105 431 LINE",
"26 431 LINE",
"26 520 LINE",
"105 520 LINE",
"105 606 LINE SMOOTH",
"105 690 OFFCURVE",
"149 740 OFFCURVE",
"237 740 CURVE SMOOTH",
"323 740 LINE",
"323 651 LINE",
"214 651 LINE",
"214 520 LINE",
"323 520 LINE",
"323 431 LINE",
"214 431 LINE",
"214 0 LINE",
"105 0 LINE"
);
},
{
closed = 1;
nodes = (
"529 0 LINE SMOOTH",
"454 0 OFFCURVE",
"418 40 OFFCURVE",
"418 108 CURVE SMOOTH",
"418 740 LINE",
"527 740 LINE",
"527 89 LINE",
"599 89 LINE",
"599 0 LINE"
);
}
);
width = 625;
}
);
leftKerningGroup = f;
rightKerningGroup = l;
unicode = FB02;
},
{
glyphname = aacute;
lastChange = "2018-11-02 02:15:23 +0000";
layers = (
{
layerId = "19C89ACC-DE1B-4ED2-AD26-76EE6DB054A2";
name = Regular;
paths = (
{
closed = 1;
nodes = (
"271 582 LINE",
"203 615 LINE",
"294 795 LINE",
"389 749 LINE"
);
},
{
closed = 1;
nodes = (
"155 532 OFFCURVE",
"95 490 OFFCURVE",
"60 431 CURVE",
"125 372 LINE",
"152 413 OFFCURVE",
"188 443 OFFCURVE",
"249 443 CURVE SMOOTH",
"322 443 OFFCURVE",
"356 407 OFFCURVE",
"356 343 CURVE SMOOTH",
"356 299 LINE",
"262 299 LINE SMOOTH",
"117 299 OFFCURVE",
"40 247 OFFCURVE",
"40 143 CURVE SMOOTH",
"40 48 OFFCURVE",
"100 -12 OFFCURVE",
"208 -12 CURVE SMOOTH",
"284 -12 OFFCURVE",
"340 22 OFFCURVE",
"360 87 CURVE",
"365 87 LINE",
"365 0 LINE",
"465 0 LINE",
"465 350 LINE SMOOTH",
"465 467 OFFCURVE",
"391 532 OFFCURVE",
"256 532 CURVE SMOOTH"
);
},
{
closed = 1;
nodes = (
"356 103 OFFCURVE",
"307 71 OFFCURVE",
"239 71 CURVE SMOOTH",
"184 71 OFFCURVE",
"151 94 OFFCURVE",
"151 141 CURVE SMOOTH",
"151 159 LINE SMOOTH",
"151 206 OFFCURVE",
"189 229 OFFCURVE",
"264 229 CURVE SMOOTH",
"356 229 LINE",
"356 154 LINE SMOOTH"
);
}
);
width = 538;
}
);
leftKerningGroup = a;
rightKerningGroup = a;
unicode = 00E1;
},
{
glyphname = abreve;
lastChange = "2018-11-02 02:15:24 +0000";
layers = (
{
layerId = "19C89ACC-DE1B-4ED2-AD26-76EE6DB054A2";
name = Regular;
paths = (
{
closed = 1;
nodes = (
"203 589 OFFCURVE",
"166 610 OFFCURVE",
"141 638 CURVE SMOOTH",
"116 666 OFFCURVE",
"102 702 OFFCURVE",
"91 733 CURVE",
"151 763 LINE",
"172 730 LINE SMOOTH",
"195 693 OFFCURVE",
"215 669 OFFCURVE",
"259 669 CURVE SMOOTH",
"303 669 OFFCURVE",
"323 693 OFFCURVE",
"346 730 CURVE SMOOTH",
"367 763 LINE",
"427 733 LINE",
"416 702 OFFCURVE",
"402 666 OFFCURVE",
"377 638 CURVE SMOOTH",
"352 610 OFFCURVE",
"315 589 OFFCURVE",
"259 589 CURVE SMOOTH"
);
},
{
closed = 1;
nodes = (
"155 532 OFFCURVE",
"95 490 OFFCURVE",
"60 431 CURVE",
"125 372 LINE",
"152 413 OFFCURVE",
"188 443 OFFCURVE",
"249 443 CURVE SMOOTH",
"322 443 OFFCURVE",
"356 407 OFFCURVE",
"356 343 CURVE SMOOTH",
"356 299 LINE",
"262 299 LINE SMOOTH",
"117 299 OFFCURVE",
"40 247 OFFCURVE",
"40 143 CURVE SMOOTH",
"40 48 OFFCURVE",
"100 -12 OFFCURVE",
"208 -12 CURVE SMOOTH",
"284 -12 OFFCURVE",
"340 22 OFFCURVE",
"360 87 CURVE",
"365 87 LINE",
"365 0 LINE",
"465 0 LINE",
"465 350 LINE SMOOTH",
"465 467 OFFCURVE",
"391 532 OFFCURVE",
"256 532 CURVE SMOOTH"
);
},
{
closed = 1;
nodes = (
"356 103 OFFCURVE",
"307 71 OFFCURVE",
"239 71 CURVE SMOOTH",
"184 71 OFFCURVE",
"151 94 OFFCURVE",
"151 141 CURVE SMOOTH",
"151 159 LINE SMOOTH",
"151 206 OFFCURVE",
"189 229 OFFCURVE",
"264 229 CURVE SMOOTH",
"356 229 LINE",
"356 154 LINE SMOOTH"
);
}
);
width = 538;
}
);
leftKerningGroup = a;
rightKerningGroup = a;
unicode = 0103;
},
{
glyphname = acircumflex;
lastChange = "2018-11-02 02:15:24 +0000";
layers = (
{
layerId = "19C89ACC-DE1B-4ED2-AD26-76EE6DB054A2";
name = Regular;
paths = (
{
closed = 1;
nodes = (
"315 778 LINE",
"435 628 LINE",
"379 585 LINE",
"260 702 LINE",
"141 585 LINE",
"85 628 LINE",
"205 778 LINE"
);
},
{
closed = 1;
nodes = (
"155 532 OFFCURVE",
"95 490 OFFCURVE",
"60 431 CURVE",
"125 372 LINE",
"152 413 OFFCURVE",
"188 443 OFFCURVE",
"249 443 CURVE SMOOTH",
"322 443 OFFCURVE",
"356 407 OFFCURVE",
"356 343 CURVE SMOOTH",
"356 299 LINE",
"262 299 LINE SMOOTH",
"117 299 OFFCURVE",
"40 247 OFFCURVE",
"40 143 CURVE SMOOTH",
"40 48 OFFCURVE",
"100 -12 OFFCURVE",
"208 -12 CURVE SMOOTH",
"284 -12 OFFCURVE",
"340 22 OFFCURVE",
"360 87 CURVE",
"365 87 LINE",
"365 0 LINE",
"465 0 LINE",
"465 350 LINE SMOOTH",
"465 467 OFFCURVE",
"391 532 OFFCURVE",
"256 532 CURVE SMOOTH"
);
},
{
closed = 1;
nodes = (
"356 103 OFFCURVE",
"307 71 OFFCURVE",
"239 71 CURVE SMOOTH",
"184 71 OFFCURVE",
"151 94 OFFCURVE",
"151 141 CURVE SMOOTH",
"151 159 LINE SMOOTH",
"151 206 OFFCURVE",
"189 229 OFFCURVE",
"264 229 CURVE SMOOTH",
"356 229 LINE",
"356 154 LINE SMOOTH"
);
}
);
width = 538;
}
);
leftKerningGroup = a;
rightKerningGroup = a;
unicode = 00E2;
},
{
glyphname = adieresis;
lastChange = "2018-11-02 02:15:25 +0000";
layers = (
{
layerId = "19C89ACC-DE1B-4ED2-AD26-76EE6DB054A2";
name = Regular;
paths = (
{
closed = 1;
nodes = (
"115 610 OFFCURVE",
"98 632 OFFCURVE",
"98 663 CURVE SMOOTH",
"98 681 LINE SMOOTH",
"98 712 OFFCURVE",
"115 734 OFFCURVE",
"160 734 CURVE SMOOTH",
"205 734 OFFCURVE",
"222 712 OFFCURVE",
"222 681 CURVE SMOOTH",
"222 663 LINE SMOOTH",
"222 632 OFFCURVE",
"205 610 OFFCURVE",
"160 610 CURVE SMOOTH"
);
},
{
closed = 1;
nodes = (
"315 610 OFFCURVE",
"298 632 OFFCURVE",
"298 663 CURVE SMOOTH",
"298 681 LINE SMOOTH",
"298 712 OFFCURVE",
"315 734 OFFCURVE",
"360 734 CURVE SMOOTH",
"405 734 OFFCURVE",
"422 712 OFFCURVE",
"422 681 CURVE SMOOTH",
"422 663 LINE SMOOTH",
"422 632 OFFCURVE",
"405 610 OFFCURVE",
"360 610 CURVE SMOOTH"
);
},
{
closed = 1;
nodes = (
"155 532 OFFCURVE",
"95 490 OFFCURVE",
"60 431 CURVE",
"125 372 LINE",
"152 413 OFFCURVE",
"188 443 OFFCURVE",
"249 443 CURVE SMOOTH",
"322 443 OFFCURVE",
"356 407 OFFCURVE",
"356 343 CURVE SMOOTH",
"356 299 LINE",
"262 299 LINE SMOOTH",
"117 299 OFFCURVE",
"40 247 OFFCURVE",
"40 143 CURVE SMOOTH",
"40 48 OFFCURVE",
"100 -12 OFFCURVE",
"208 -12 CURVE SMOOTH",
"284 -12 OFFCURVE",
"340 22 OFFCURVE",
"360 87 CURVE",
"365 87 LINE",
"365 0 LINE",
"465 0 LINE",
"465 350 LINE SMOOTH",
"465 467 OFFCURVE",
"391 532 OFFCURVE",
"256 532 CURVE SMOOTH"
);
},
{
closed = 1;
nodes = (
"356 103 OFFCURVE",
"307 71 OFFCURVE",
"239 71 CURVE SMOOTH",
"184 71 OFFCURVE",
"151 94 OFFCURVE",
"151 141 CURVE SMOOTH",
"151 159 LINE SMOOTH",
"151 206 OFFCURVE",
"189 229 OFFCURVE",
"264 229 CURVE SMOOTH",
"356 229 LINE",
"356 154 LINE SMOOTH"
);
}
);
width = 538;
}
);
leftKerningGroup = a;
rightKerningGroup = a;
unicode = 00E4;
},
{
glyphname = uni1EA1;
lastChange = "2018-11-02 02:15:25 +0000";
layers = (
{
layerId = "19C89ACC-DE1B-4ED2-AD26-76EE6DB054A2";
name = Regular;
paths = (
{
closed = 1;
nodes = (
"210 -184 OFFCURVE",
"191 -162 OFFCURVE",
"191 -131 CURVE SMOOTH",
"191 -113 LINE SMOOTH",
"191 -82 OFFCURVE",
"210 -60 OFFCURVE",
"255 -60 CURVE SMOOTH",
"300 -60 OFFCURVE",
"319 -82 OFFCURVE",
"319 -113 CURVE SMOOTH",
"319 -131 LINE SMOOTH",
"319 -162 OFFCURVE",
"300 -184 OFFCURVE",
"255 -184 CURVE SMOOTH"
);
},
{
closed = 1;
nodes = (
"155 532 OFFCURVE",
"95 490 OFFCURVE",
"60 431 CURVE",
"125 372 LINE",
"152 413 OFFCURVE",
"188 443 OFFCURVE",
"249 443 CURVE SMOOTH",
"322 443 OFFCURVE",
"356 407 OFFCURVE",
"356 343 CURVE SMOOTH",
"356 299 LINE",
"262 299 LINE SMOOTH",
"117 299 OFFCURVE",
"40 247 OFFCURVE",
"40 143 CURVE SMOOTH",
"40 48 OFFCURVE",
"100 -12 OFFCURVE",
"208 -12 CURVE SMOOTH",
"284 -12 OFFCURVE",
"340 22 OFFCURVE",
"360 87 CURVE",
"365 87 LINE",
"365 0 LINE",
"465 0 LINE",
"465 350 LINE SMOOTH",
"465 467 OFFCURVE",
"391 532 OFFCURVE",
"256 532 CURVE SMOOTH"
);
},
{
closed = 1;
nodes = (
"356 103 OFFCURVE",
"307 71 OFFCURVE",
"239 71 CURVE SMOOTH",
"184 71 OFFCURVE",
"151 94 OFFCURVE",
"151 141 CURVE SMOOTH",
"151 159 LINE SMOOTH",
"151 206 OFFCURVE",
"189 229 OFFCURVE",
"264 229 CURVE SMOOTH",
"356 229 LINE",
"356 154 LINE SMOOTH"
);
}
);
width = 538;
}
);
leftKerningGroup = a;
rightKerningGroup = a;
unicode = 1EA1;
},
{
glyphname = agrave;
lastChange = "2018-11-02 02:15:25 +0000";
layers = (
{
layerId = "19C89ACC-DE1B-4ED2-AD26-76EE6DB054A2";
name = Regular;
paths = (
{
closed = 1;
nodes = (
"131 749 LINE",
"226 795 LINE",
"317 615 LINE",
"249 582 LINE"
);
},
{
closed = 1;
nodes = (
"155 532 OFFCURVE",
"95 490 OFFCURVE",
"60 431 CURVE",
"125 372 LINE",
"152 413 OFFCURVE",
"188 443 OFFCURVE",
"249 443 CURVE SMOOTH",
"322 443 OFFCURVE",
"356 407 OFFCURVE",
"356 343 CURVE SMOOTH",
"356 299 LINE",
"262 299 LINE SMOOTH",
"117 299 OFFCURVE",
"40 247 OFFCURVE",
"40 143 CURVE SMOOTH",
"40 48 OFFCURVE",
"100 -12 OFFCURVE",
"208 -12 CURVE SMOOTH",
"284 -12 OFFCURVE",
"340 22 OFFCURVE",
"360 87 CURVE",
"365 87 LINE",
"365 0 LINE",
"465 0 LINE",
"465 350 LINE SMOOTH",
"465 467 OFFCURVE",
"391 532 OFFCURVE",
"256 532 CURVE SMOOTH"
);
},
{
closed = 1;
nodes = (
"356 103 OFFCURVE",
"307 71 OFFCURVE",
"239 71 CURVE SMOOTH",
"184 71 OFFCURVE",
"151 94 OFFCURVE",
"151 141 CURVE SMOOTH",
"151 159 LINE SMOOTH",
"151 206 OFFCURVE",
"189 229 OFFCURVE",
"264 229 CURVE SMOOTH",
"356 229 LINE",
"356 154 LINE SMOOTH"
);
}
);
width = 538;
}
);
leftKerningGroup = a;
rightKerningGroup = a;
unicode = 00E0;
},
{
glyphname = uni1EA3;
lastChange = "2018-11-02 02:15:26 +0000";
layers = (
{
layerId = "19C89ACC-DE1B-4ED2-AD26-76EE6DB054A2";
name = Regular;
paths = (
{
closed = 1;
nodes = (
"160 781 LINE",
"283 781 LINE SMOOTH",
"344 781 OFFCURVE",
"365 753 OFFCURVE",
"365 718 CURVE SMOOTH",
"365 685 OFFCURVE",
"345 645 OFFCURVE",
"313 605 CURVE SMOOTH",
"287 574 LINE",
"229 602 LINE",
"279 701 LINE",
"160 701 LINE"
);
},
{
closed = 1;
nodes = (
"155 532 OFFCURVE",
"95 490 OFFCURVE",
"60 431 CURVE",
"125 372 LINE",
"152 413 OFFCURVE",
"188 443 OFFCURVE",
"249 443 CURVE SMOOTH",
"322 443 OFFCURVE",
"356 407 OFFCURVE",
"356 343 CURVE SMOOTH",
"356 299 LINE",
"262 299 LINE SMOOTH",
"117 299 OFFCURVE",
"40 247 OFFCURVE",
"40 143 CURVE SMOOTH",
"40 48 OFFCURVE",
"100 -12 OFFCURVE",
"208 -12 CURVE SMOOTH",
"284 -12 OFFCURVE",
"340 22 OFFCURVE",
"360 87 CURVE",
"365 87 LINE",
"365 0 LINE",
"465 0 LINE",
"465 350 LINE SMOOTH",
"465 467 OFFCURVE",
"391 532 OFFCURVE",
"256 532 CURVE SMOOTH"
);
},
{
closed = 1;
nodes = (
"356 103 OFFCURVE",
"307 71 OFFCURVE",
"239 71 CURVE SMOOTH",
"184 71 OFFCURVE",
"151 94 OFFCURVE",
"151 141 CURVE SMOOTH",
"151 159 LINE SMOOTH",
"151 206 OFFCURVE",
"189 229 OFFCURVE",
"264 229 CURVE SMOOTH",
"356 229 LINE",
"356 154 LINE SMOOTH"
);
}
);
width = 538;
}
);
leftKerningGroup = a;
rightKerningGroup = a;
unicode = 1EA3;
},
{
glyphname = amacron;
lastChange = "2018-11-02 02:15:26 +0000";
layers = (
{
layerId = "19C89ACC-DE1B-4ED2-AD26-76EE6DB054A2";
name = Regular;
paths = (
{
closed = 1;
nodes = (
"114 714 LINE",
"406 714 LINE",
"406 631 LINE",
"114 631 LINE"
);
},
{
closed = 1;
nodes = (
"155 532 OFFCURVE",
"95 490 OFFCURVE",
"60 431 CURVE",
"125 372 LINE",
"152 413 OFFCURVE",
"188 443 OFFCURVE",
"249 443 CURVE SMOOTH",
"322 443 OFFCURVE",
"356 407 OFFCURVE",
"356 343 CURVE SMOOTH",
"356 299 LINE",
"262 299 LINE SMOOTH",
"117 299 OFFCURVE",
"40 247 OFFCURVE",
"40 143 CURVE SMOOTH",
"40 48 OFFCURVE",
"100 -12 OFFCURVE",
"208 -12 CURVE SMOOTH",
"284 -12 OFFCURVE",
"340 22 OFFCURVE",
"360 87 CURVE",
"365 87 LINE",
"365 0 LINE",
"465 0 LINE",
"465 350 LINE SMOOTH",
"465 467 OFFCURVE",
"391 532 OFFCURVE",
"256 532 CURVE SMOOTH"
);
},
{
closed = 1;
nodes = (
"356 103 OFFCURVE",
"307 71 OFFCURVE",
"239 71 CURVE SMOOTH",
"184 71 OFFCURVE",
"151 94 OFFCURVE",
"151 141 CURVE SMOOTH",
"151 159 LINE SMOOTH",
"151 206 OFFCURVE",
"189 229 OFFCURVE",
"264 229 CURVE SMOOTH",
"356 229 LINE",
"356 154 LINE SMOOTH"
);
}
);
width = 538;
}
);
leftKerningGroup = a;
rightKerningGroup = a;
unicode = 0101;
},
{
glyphname = aogonek;
lastChange = "2018-11-02 02:30:54 +0000";
layers = (
{
layerId = "19C89ACC-DE1B-4ED2-AD26-76EE6DB054A2";
name = Regular;
paths = (
{
closed = 1;
nodes = (
"356 103 OFFCURVE",
"307 71 OFFCURVE",
"239 71 CURVE SMOOTH",
"184 71 OFFCURVE",
"151 94 OFFCURVE",
"151 141 CURVE SMOOTH",
"151 159 LINE SMOOTH",
"151 206 OFFCURVE",
"189 229 OFFCURVE",
"264 229 CURVE SMOOTH",
"356 229 LINE",
"356 154 LINE SMOOTH"
);
},
{
closed = 1;
nodes = (
"390 -4 LINE",
"327 -41 OFFCURVE",
"281 -76 OFFCURVE",
"281 -129 CURVE SMOOTH",
"281 -158 OFFCURVE",
"293 -178 OFFCURVE",
"313 -190 CURVE",
"332 -203 OFFCURVE",
"359 -209 OFFCURVE",
"388 -209 CURVE SMOOTH",
"443 -209 OFFCURVE",
"476 -192 OFFCURVE",
"491 -165 CURVE",
"445 -121 LINE",
"432 -136 OFFCURVE",
"415 -147 OFFCURVE",
"394 -147 CURVE SMOOTH",
"375 -147 OFFCURVE",
"360 -139 OFFCURVE",
"360 -115 CURVE SMOOTH",
"360 -103 OFFCURVE",
"363 -92 OFFCURVE",
"379 -75 CURVE SMOOTH",
"394 -58 OFFCURVE",
"420 -35 OFFCURVE",
"465 0 CURVE",
"465 350 LINE SMOOTH",
"465 467 OFFCURVE",
"391 532 OFFCURVE",
"256 532 CURVE SMOOTH",
"155 532 OFFCURVE",
"95 490 OFFCURVE",
"60 431 CURVE",
"125 372 LINE",
"152 413 OFFCURVE",
"188 443 OFFCURVE",
"249 443 CURVE SMOOTH",
"322 443 OFFCURVE",
"356 407 OFFCURVE",
"356 343 CURVE SMOOTH",
"356 299 LINE",
"262 299 LINE SMOOTH",
"117 299 OFFCURVE",
"40 247 OFFCURVE",
"40 143 CURVE SMOOTH",
"40 48 OFFCURVE",
"100 -12 OFFCURVE",
"208 -12 CURVE SMOOTH",
"284 -12 OFFCURVE",
"340 22 OFFCURVE",
"360 87 CURVE",
"365 87 LINE",
"365 0 LINE",
"389 0 LINE"
);
}
);
width = 538;
}
);
leftKerningGroup = a;
rightKerningGroup = a;
unicode = 0105;
},
{
glyphname = aring;
lastChange = "2018-11-02 02:15:27 +0000";
layers = (
{
layerId = "19C89ACC-DE1B-4ED2-AD26-76EE6DB054A2";
name = Regular;
paths = (
{
closed = 1;
nodes = (
"224 568 OFFCURVE",
"191 581 OFFCURVE",
"168 604 CURVE SMOOTH",
"144 627 OFFCURVE",
"130 659 OFFCURVE",
"130 695 CURVE SMOOTH",
"130 731 OFFCURVE",
"144 763 OFFCURVE",
"168 786 CURVE SMOOTH",
"191 809 OFFCURVE",
"224 822 OFFCURVE",
"260 822 CURVE SMOOTH",
"296 822 OFFCURVE",
"329 809 OFFCURVE",
"353 786 CURVE SMOOTH",
"376 763 OFFCURVE",
"390 731 OFFCURVE",
"390 695 CURVE SMOOTH",
"390 659 OFFCURVE",
"376 627 OFFCURVE",
"353 604 CURVE SMOOTH",
"329 581 OFFCURVE",
"296 568 OFFCURVE",
"260 568 CURVE SMOOTH"
);
},
{
closed = 1;
nodes = (
"297 628 OFFCURVE",
"315 646 OFFCURVE",
"315 681 CURVE SMOOTH",
"315 709 LINE SMOOTH",
"315 744 OFFCURVE",
"297 762 OFFCURVE",
"260 762 CURVE SMOOTH",
"223 762 OFFCURVE",
"205 744 OFFCURVE",
"205 709 CURVE SMOOTH",
"205 681 LINE SMOOTH",
"205 646 OFFCURVE",
"223 628 OFFCURVE",
"260 628 CURVE SMOOTH"
);
},
{
closed = 1;
nodes = (
"155 532 OFFCURVE",
"95 490 OFFCURVE",
"60 431 CURVE",
"125 372 LINE",
"152 413 OFFCURVE",
"188 443 OFFCURVE",
"249 443 CURVE SMOOTH",
"322 443 OFFCURVE",
"356 407 OFFCURVE",
"356 343 CURVE SMOOTH",
"356 299 LINE",
"262 299 LINE SMOOTH",
"117 299 OFFCURVE",
"40 247 OFFCURVE",
"40 143 CURVE SMOOTH",
"40 48 OFFCURVE",
"100 -12 OFFCURVE",
"208 -12 CURVE SMOOTH",
"284 -12 OFFCURVE",
"340 22 OFFCURVE",
"360 87 CURVE",
"365 87 LINE",
"365 0 LINE",
"465 0 LINE",
"465 350 LINE SMOOTH",
"465 467 OFFCURVE",
"391 532 OFFCURVE",
"256 532 CURVE SMOOTH"
);
},
{
closed = 1;
nodes = (
"356 103 OFFCURVE",
"307 71 OFFCURVE",
"239 71 CURVE SMOOTH",
"184 71 OFFCURVE",
"151 94 OFFCURVE",
"151 141 CURVE SMOOTH",
"151 159 LINE SMOOTH",
"151 206 OFFCURVE",
"189 229 OFFCURVE",
"264 229 CURVE SMOOTH",
"356 229 LINE",
"356 154 LINE SMOOTH"
);
}
);
width = 538;
}
);
leftKerningGroup = a;
rightKerningGroup = a;
unicode = 00E5;
},
{
glyphname = aringacute;
lastChange = "2018-11-02 02:15:28 +0000";
layers = (
{
layerId = "19C89ACC-DE1B-4ED2-AD26-76EE6DB054A2";
name = Regular;
paths = (
{
closed = 1;
nodes = (
"263 814 LINE",
"217 854 LINE",
"315 970 LINE",
"381 914 LINE"
);
},
{
closed = 1;
nodes = (
"185 565 OFFCURVE",
"129 610 OFFCURVE",
"129 682 CURVE SMOOTH",
"129 754 OFFCURVE",
"185 799 OFFCURVE",
"260 799 CURVE SMOOTH",
"335 799 OFFCURVE",
"391 754 OFFCURVE",
"391 682 CURVE SMOOTH",
"391 610 OFFCURVE",
"335 565 OFFCURVE",
"260 565 CURVE SMOOTH"
);
},
{
closed = 1;
nodes = (
"296 623 OFFCURVE",
"317 640 OFFCURVE",
"317 673 CURVE SMOOTH",
"317 691 LINE SMOOTH",
"317 724 OFFCURVE",
"296 741 OFFCURVE",
"260 741 CURVE SMOOTH",
"224 741 OFFCURVE",
"203 724 OFFCURVE",
"203 691 CURVE SMOOTH",
"203 673 LINE SMOOTH",
"203 640 OFFCURVE",
"224 623 OFFCURVE",
"260 623 CURVE SMOOTH"
);
},
{
closed = 1;
nodes = (
"155 532 OFFCURVE",
"95 490 OFFCURVE",
"60 431 CURVE",
"125 372 LINE",
"152 413 OFFCURVE",
"188 443 OFFCURVE",
"249 443 CURVE SMOOTH",
"322 443 OFFCURVE",
"356 407 OFFCURVE",
"356 343 CURVE SMOOTH",
"356 299 LINE",
"262 299 LINE SMOOTH",
"117 299 OFFCURVE",
"40 247 OFFCURVE",
"40 143 CURVE SMOOTH",
"40 48 OFFCURVE",
"100 -12 OFFCURVE",
"208 -12 CURVE SMOOTH",
"284 -12 OFFCURVE",
"340 22 OFFCURVE",
"360 87 CURVE",
"365 87 LINE",
"365 0 LINE",
"465 0 LINE",
"465 350 LINE SMOOTH",
"465 467 OFFCURVE",
"391 532 OFFCURVE",
"256 532 CURVE SMOOTH"
);
},
{
closed = 1;
nodes = (
"356 103 OFFCURVE",
"307 71 OFFCURVE",
"239 71 CURVE SMOOTH",
"184 71 OFFCURVE",
"151 94 OFFCURVE",
"151 141 CURVE SMOOTH",
"151 159 LINE SMOOTH",
"151 206 OFFCURVE",
"189 229 OFFCURVE",
"264 229 CURVE SMOOTH",
"356 229 LINE",
"356 154 LINE SMOOTH"
);
}
);
width = 538;
}
);
leftKerningGroup = a;
rightKerningGroup = a;
unicode = 01FB;
},
{
glyphname = atilde;
lastChange = "2018-11-02 02:15:28 +0000";
layers = (
{
layerId = "19C89ACC-DE1B-4ED2-AD26-76EE6DB054A2";
name = Regular;
paths = (
{
closed = 1;
nodes = (
"301 607 OFFCURVE",
"279 620 OFFCURVE",
"256 631 CURVE SMOOTH",
"225 646 OFFCURVE",
"203 655 OFFCURVE",
"182 655 CURVE SMOOTH",
"159 655 OFFCURVE",
"144 645 OFFCURVE",
"124 628 CURVE",
"83 680 LINE",
"103 711 OFFCURVE",
"137 738 OFFCURVE",
"186 738 CURVE SMOOTH",
"219 738 OFFCURVE",
"241 725 OFFCURVE",
"264 714 CURVE SMOOTH",
"295 699 OFFCURVE",
"317 690 OFFCURVE",
"338 690 CURVE SMOOTH",
"361 690 OFFCURVE",
"376 700 OFFCURVE",
"396 717 CURVE",
"437 665 LINE",
"417 634 OFFCURVE",
"383 607 OFFCURVE",
"334 607 CURVE SMOOTH"
);
},
{
closed = 1;
nodes = (
"155 532 OFFCURVE",
"95 490 OFFCURVE",
"60 431 CURVE",
"125 372 LINE",
"152 413 OFFCURVE",
"188 443 OFFCURVE",
"249 443 CURVE SMOOTH",
"322 443 OFFCURVE",
"356 407 OFFCURVE",
"356 343 CURVE SMOOTH",
"356 299 LINE",
"262 299 LINE SMOOTH",
"117 299 OFFCURVE",
"40 247 OFFCURVE",
"40 143 CURVE SMOOTH",
"40 48 OFFCURVE",
"100 -12 OFFCURVE",
"208 -12 CURVE SMOOTH",
"284 -12 OFFCURVE",
"340 22 OFFCURVE",
"360 87 CURVE",
"365 87 LINE",
"365 0 LINE",
"465 0 LINE",
"465 350 LINE SMOOTH",
"465 467 OFFCURVE",
"391 532 OFFCURVE",
"256 532 CURVE SMOOTH"
);
},
{
closed = 1;
nodes = (
"356 103 OFFCURVE",
"307 71 OFFCURVE",
"239 71 CURVE SMOOTH",
"184 71 OFFCURVE",
"151 94 OFFCURVE",
"151 141 CURVE SMOOTH",
"151 159 LINE SMOOTH",
"151 206 OFFCURVE",
"189 229 OFFCURVE",
"264 229 CURVE SMOOTH",
"356 229 LINE",
"356 154 LINE SMOOTH"
);
}
);
width = 538;
}
);
leftKerningGroup = a;
rightKerningGroup = a;
unicode = 00E3;
},
{
glyphname = uni1EAF;
lastChange = "2018-11-02 02:15:29 +0000";
layers = (
{
layerId = "19C89ACC-DE1B-4ED2-AD26-76EE6DB054A2";
name = Regular;
paths = (
{
closed = 1;
nodes = (
"204 579 OFFCURVE",
"167 599 OFFCURVE",
"140 625 CURVE SMOOTH",
"113 651 OFFCURVE",
"97 684 OFFCURVE",
"86 715 CURVE",
"144 748 LINE",
"165 716 LINE SMOOTH",
"190 677 OFFCURVE",
"216 656 OFFCURVE",
"259 656 CURVE SMOOTH",
"302 656 OFFCURVE",
"328 677 OFFCURVE",
"353 716 CURVE SMOOTH",
"374 748 LINE",
"432 715 LINE",
"421 684 OFFCURVE",
"405 651 OFFCURVE",
"378 625 CURVE SMOOTH",
"351 599 OFFCURVE",
"314 579 OFFCURVE",
"259 579 CURVE SMOOTH"
);
},
{
closed = 1;
nodes = (
"270 713 LINE",
"208 743 LINE",
"298 923 LINE",
"386 879 LINE"
);
},
{
closed = 1;
nodes = (
"155 532 OFFCURVE",
"95 490 OFFCURVE",
"60 431 CURVE",
"125 372 LINE",
"152 413 OFFCURVE",
"188 443 OFFCURVE",
"249 443 CURVE SMOOTH",
"322 443 OFFCURVE",
"356 407 OFFCURVE",
"356 343 CURVE SMOOTH",
"356 299 LINE",
"262 299 LINE SMOOTH",
"117 299 OFFCURVE",
"40 247 OFFCURVE",
"40 143 CURVE SMOOTH",
"40 48 OFFCURVE",
"100 -12 OFFCURVE",
"208 -12 CURVE SMOOTH",
"284 -12 OFFCURVE",
"340 22 OFFCURVE",
"360 87 CURVE",
"365 87 LINE",
"365 0 LINE",
"465 0 LINE",
"465 350 LINE SMOOTH",
"465 467 OFFCURVE",
"391 532 OFFCURVE",
"256 532 CURVE SMOOTH"
);
},
{
closed = 1;
nodes = (
"356 103 OFFCURVE",
"307 71 OFFCURVE",
"239 71 CURVE SMOOTH",
"184 71 OFFCURVE",
"151 94 OFFCURVE",
"151 141 CURVE SMOOTH",
"151 159 LINE SMOOTH",
"151 206 OFFCURVE",
"189 229 OFFCURVE",
"264 229 CURVE SMOOTH",
"356 229 LINE",
"356 154 LINE SMOOTH"
);
}
);
width = 538;
}
);
leftKerningGroup = a;
rightKerningGroup = a;
unicode = 1EAF;
},
{
glyphname = uni1EB7;
lastChange = "2018-11-02 02:15:29 +0000";
layers = (
{
layerId = "19C89ACC-DE1B-4ED2-AD26-76EE6DB054A2";
name = Regular;
paths = (
{
closed = 1;
nodes = (
"203 589 OFFCURVE",
"166 610 OFFCURVE",
"141 638 CURVE SMOOTH",
"116 666 OFFCURVE",
"102 702 OFFCURVE",
"91 733 CURVE",
"151 763 LINE",
"172 730 LINE SMOOTH",
"195 693 OFFCURVE",
"215 669 OFFCURVE",
"259 669 CURVE SMOOTH",
"303 669 OFFCURVE",
"323 693 OFFCURVE",
"346 730 CURVE SMOOTH",
"367 763 LINE",
"427 733 LINE",
"416 702 OFFCURVE",
"402 666 OFFCURVE",
"377 638 CURVE SMOOTH",
"352 610 OFFCURVE",
"315 589 OFFCURVE",
"259 589 CURVE SMOOTH"
);
},
{
closed = 1;
nodes = (
"210 -184 OFFCURVE",
"191 -162 OFFCURVE",
"191 -131 CURVE SMOOTH",
"191 -113 LINE SMOOTH",
"191 -82 OFFCURVE",
"210 -60 OFFCURVE",
"255 -60 CURVE SMOOTH",
"300 -60 OFFCURVE",
"319 -82 OFFCURVE",
"319 -113 CURVE SMOOTH",
"319 -131 LINE SMOOTH",
"319 -162 OFFCURVE",
"300 -184 OFFCURVE",
"255 -184 CURVE SMOOTH"
);
},
{
closed = 1;
nodes = (
"155 532 OFFCURVE",
"95 490 OFFCURVE",
"60 431 CURVE",
"125 372 LINE",
"152 413 OFFCURVE",
"188 443 OFFCURVE",
"249 443 CURVE SMOOTH",
"322 443 OFFCURVE",
"356 407 OFFCURVE",
"356 343 CURVE SMOOTH",
"356 299 LINE",
"262 299 LINE SMOOTH",
"117 299 OFFCURVE",
"40 247 OFFCURVE",
"40 143 CURVE SMOOTH",
"40 48 OFFCURVE",
"100 -12 OFFCURVE",
"208 -12 CURVE SMOOTH",
"284 -12 OFFCURVE",
"340 22 OFFCURVE",
"360 87 CURVE",
"365 87 LINE",
"365 0 LINE",
"465 0 LINE",
"465 350 LINE SMOOTH",
"465 467 OFFCURVE",
"391 532 OFFCURVE",
"256 532 CURVE SMOOTH"
);
},
{
closed = 1;
nodes = (
"356 103 OFFCURVE",
"307 71 OFFCURVE",
"239 71 CURVE SMOOTH",
"184 71 OFFCURVE",
"151 94 OFFCURVE",
"151 141 CURVE SMOOTH",
"151 159 LINE SMOOTH",
"151 206 OFFCURVE",
"189 229 OFFCURVE",
"264 229 CURVE SMOOTH",
"356 229 LINE",
"356 154 LINE SMOOTH"
);
}
);
width = 538;
}
);
leftKerningGroup = a;
rightKerningGroup = a;
unicode = 1EB7;
},
{
glyphname = uni1EB1;
lastChange = "2018-11-02 02:15:30 +0000";
layers = (
{
layerId = "19C89ACC-DE1B-4ED2-AD26-76EE6DB054A2";
name = Regular;
paths = (
{
closed = 1;
nodes = (
"204 579 OFFCURVE",
"167 599 OFFCURVE",
"140 625 CURVE SMOOTH",
"113 651 OFFCURVE",
"97 684 OFFCURVE",
"86 715 CURVE",
"144 748 LINE",
"165 716 LINE SMOOTH",
"190 677 OFFCURVE",
"216 656 OFFCURVE",
"259 656 CURVE SMOOTH",
"302 656 OFFCURVE",
"328 677 OFFCURVE",
"353 716 CURVE SMOOTH",
"374 748 LINE",
"432 715 LINE",
"421 684 OFFCURVE",
"405 651 OFFCURVE",
"378 625 CURVE SMOOTH",
"351 599 OFFCURVE",
"314 579 OFFCURVE",
"259 579 CURVE SMOOTH"
);
},
{
closed = 1;
nodes = (
"133 879 LINE",
"221 923 LINE",
"310 744 LINE",
"248 713 LINE"
);
},
{
closed = 1;
nodes = (
"155 532 OFFCURVE",
"95 490 OFFCURVE",
"60 431 CURVE",
"125 372 LINE",
"152 413 OFFCURVE",
"188 443 OFFCURVE",
"249 443 CURVE SMOOTH",
"322 443 OFFCURVE",
"356 407 OFFCURVE",
"356 343 CURVE SMOOTH",
"356 299 LINE",
"262 299 LINE SMOOTH",
"117 299 OFFCURVE",
"40 247 OFFCURVE",
"40 143 CURVE SMOOTH",
"40 48 OFFCURVE",
"100 -12 OFFCURVE",
"208 -12 CURVE SMOOTH",
"284 -12 OFFCURVE",
"340 22 OFFCURVE",
"360 87 CURVE",
"365 87 LINE",
"365 0 LINE",
"465 0 LINE",
"465 350 LINE SMOOTH",
"465 467 OFFCURVE",
"391 532 OFFCURVE",
"256 532 CURVE SMOOTH"
);
},
{
closed = 1;
nodes = (
"356 103 OFFCURVE",
"307 71 OFFCURVE",
"239 71 CURVE SMOOTH",
"184 71 OFFCURVE",
"151 94 OFFCURVE",
"151 141 CURVE SMOOTH",
"151 159 LINE SMOOTH",
"151 206 OFFCURVE",
"189 229 OFFCURVE",
"264 229 CURVE SMOOTH",
"356 229 LINE",
"356 154 LINE SMOOTH"
);
}
);
width = 538;
}
);
leftKerningGroup = a;
rightKerningGroup = a;
unicode = 1EB1;
},
{
glyphname = uni1EB3;
lastChange = "2018-11-02 02:15:31 +0000";
layers = (
{
layerId = "19C89ACC-DE1B-4ED2-AD26-76EE6DB054A2";
name = Regular;
paths = (
{
closed = 1;
nodes = (
"204 579 OFFCURVE",
"167 599 OFFCURVE",
"140 625 CURVE SMOOTH",
"113 651 OFFCURVE",
"97 684 OFFCURVE",
"86 715 CURVE",
"144 748 LINE",
"165 716 LINE SMOOTH",
"190 677 OFFCURVE",
"216 656 OFFCURVE",
"259 656 CURVE SMOOTH",
"302 656 OFFCURVE",
"328 677 OFFCURVE",
"353 716 CURVE SMOOTH",
"374 748 LINE",
"432 715 LINE",
"421 684 OFFCURVE",
"405 651 OFFCURVE",
"378 625 CURVE SMOOTH",
"351 599 OFFCURVE",
"314 579 OFFCURVE",
"259 579 CURVE SMOOTH"
);
},
{
closed = 1;
nodes = (
"152 911 LINE",
"264 911 LINE SMOOTH",
"327 911 OFFCURVE",
"346 883 OFFCURVE",
"346 848 CURVE SMOOTH",
"346 815 OFFCURVE",
"324 775 OFFCURVE",
"292 735 CURVE SMOOTH",
"267 704 LINE",
"213 731 LINE",
"266 834 LINE",
"152 834 LINE"
);
},
{
closed = 1;
nodes = (
"155 532 OFFCURVE",
"95 490 OFFCURVE",
"60 431 CURVE",
"125 372 LINE",
"152 413 OFFCURVE",
"188 443 OFFCURVE",
"249 443 CURVE SMOOTH",
"322 443 OFFCURVE",
"356 407 OFFCURVE",
"356 343 CURVE SMOOTH",
"356 299 LINE",
"262 299 LINE SMOOTH",
"117 299 OFFCURVE",
"40 247 OFFCURVE",
"40 143 CURVE SMOOTH",
"40 48 OFFCURVE",
"100 -12 OFFCURVE",
"208 -12 CURVE SMOOTH",
"284 -12 OFFCURVE",
"340 22 OFFCURVE",
"360 87 CURVE",
"365 87 LINE",
"365 0 LINE",
"465 0 LINE",
"465 350 LINE SMOOTH",
"465 467 OFFCURVE",
"391 532 OFFCURVE",
"256 532 CURVE SMOOTH"
);
},
{
closed = 1;
nodes = (
"356 103 OFFCURVE",
"307 71 OFFCURVE",
"239 71 CURVE SMOOTH",
"184 71 OFFCURVE",
"151 94 OFFCURVE",
"151 141 CURVE SMOOTH",
"151 159 LINE SMOOTH",
"151 206 OFFCURVE",
"189 229 OFFCURVE",
"264 229 CURVE SMOOTH",
"356 229 LINE",
"356 154 LINE SMOOTH"
);
}
);
width = 538;
}
);
leftKerningGroup = a;
rightKerningGroup = a;
unicode = 1EB3;
},
{
glyphname = uni1EB5;
lastChange = "2018-11-02 02:15:31 +0000";
layers = (
{
layerId = "19C89ACC-DE1B-4ED2-AD26-76EE6DB054A2";
name = Regular;
paths = (
{
closed = 1;
nodes = (
"204 579 OFFCURVE",
"167 599 OFFCURVE",
"140 625 CURVE SMOOTH",
"113 651 OFFCURVE",
"97 684 OFFCURVE",
"86 715 CURVE",
"144 748 LINE",
"165 716 LINE SMOOTH",
"190 677 OFFCURVE",
"216 656 OFFCURVE",
"259 656 CURVE SMOOTH",
"302 656 OFFCURVE",
"328 677 OFFCURVE",
"353 716 CURVE SMOOTH",
"374 748 LINE",
"432 715 LINE",
"421 684 OFFCURVE",
"405 651 OFFCURVE",
"378 625 CURVE SMOOTH",
"351 599 OFFCURVE",
"314 579 OFFCURVE",
"259 579 CURVE SMOOTH"
);
},
{
closed = 1;
nodes = (
"299 779 OFFCURVE",
"277 790 OFFCURVE",
"254 801 CURVE SMOOTH",
"223 816 OFFCURVE",
"202 825 OFFCURVE",
"181 825 CURVE SMOOTH",
"158 825 OFFCURVE",
"143 816 OFFCURVE",
"123 799 CURVE",
"84 847 LINE",
"104 878 OFFCURVE",
"138 904 OFFCURVE",
"187 904 CURVE SMOOTH",
"219 904 OFFCURVE",
"241 892 OFFCURVE",
"264 881 CURVE SMOOTH",
"295 866 OFFCURVE",
"316 858 OFFCURVE",
"336 858 CURVE SMOOTH",
"359 858 OFFCURVE",
"374 867 OFFCURVE",
"395 884 CURVE",
"434 837 LINE",
"413 806 OFFCURVE",
"380 779 OFFCURVE",
"331 779 CURVE SMOOTH"
);
},
{
closed = 1;
nodes = (
"155 532 OFFCURVE",
"95 490 OFFCURVE",
"60 431 CURVE",
"125 372 LINE",
"152 413 OFFCURVE",
"188 443 OFFCURVE",
"249 443 CURVE SMOOTH",
"322 443 OFFCURVE",
"356 407 OFFCURVE",
"356 343 CURVE SMOOTH",
"356 299 LINE",
"262 299 LINE SMOOTH",
"117 299 OFFCURVE",
"40 247 OFFCURVE",
"40 143 CURVE SMOOTH",
"40 48 OFFCURVE",
"100 -12 OFFCURVE",
"208 -12 CURVE SMOOTH",
"284 -12 OFFCURVE",
"340 22 OFFCURVE",
"360 87 CURVE",
"365 87 LINE",
"365 0 LINE",
"465 0 LINE",
"465 350 LINE SMOOTH",
"465 467 OFFCURVE",
"391 532 OFFCURVE",
"256 532 CURVE SMOOTH"
);
},
{
closed = 1;
nodes = (
"356 103 OFFCURVE",
"307 71 OFFCURVE",
"239 71 CURVE SMOOTH",
"184 71 OFFCURVE",
"151 94 OFFCURVE",
"151 141 CURVE SMOOTH",
"151 159 LINE SMOOTH",
"151 206 OFFCURVE",
"189 229 OFFCURVE",
"264 229 CURVE SMOOTH",
"356 229 LINE",
"356 154 LINE SMOOTH"
);
}
);
width = 538;
}
);
leftKerningGroup = a;
rightKerningGroup = a;
unicode = 1EB5;
},
{
glyphname = uni1EA5;
lastChange = "2018-11-02 02:15:32 +0000";
layers = (
{
layerId = "19C89ACC-DE1B-4ED2-AD26-76EE6DB054A2";
name = Regular;
paths = (
{
closed = 1;
nodes = (
"421 713 LINE",
"359 743 LINE",
"450 923 LINE",
"539 879 LINE"
);
},
{
closed = 1;
nodes = (
"308 760 LINE",
"433 621 LINE",
"380 576 LINE",
"259 685 LINE",
"138 576 LINE",
"85 621 LINE",
"210 760 LINE"
);
},
{
closed = 1;
nodes = (
"155 532 OFFCURVE",
"95 490 OFFCURVE",
"60 431 CURVE",
"125 372 LINE",
"152 413 OFFCURVE",
"188 443 OFFCURVE",
"249 443 CURVE SMOOTH",
"322 443 OFFCURVE",
"356 407 OFFCURVE",
"356 343 CURVE SMOOTH",
"356 299 LINE",
"262 299 LINE SMOOTH",
"117 299 OFFCURVE",
"40 247 OFFCURVE",
"40 143 CURVE SMOOTH",
"40 48 OFFCURVE",
"100 -12 OFFCURVE",
"208 -12 CURVE SMOOTH",
"284 -12 OFFCURVE",
"340 22 OFFCURVE",
"360 87 CURVE",
"365 87 LINE",
"365 0 LINE",
"465 0 LINE",
"465 350 LINE SMOOTH",
"465 467 OFFCURVE",
"391 532 OFFCURVE",
"256 532 CURVE SMOOTH"
);
},
{
closed = 1;
nodes = (
"356 103 OFFCURVE",
"307 71 OFFCURVE",
"239 71 CURVE SMOOTH",
"184 71 OFFCURVE",
"151 94 OFFCURVE",
"151 141 CURVE SMOOTH",
"151 159 LINE SMOOTH",
"151 206 OFFCURVE",
"189 229 OFFCURVE",
"264 229 CURVE SMOOTH",
"356 229 LINE",
"356 154 LINE SMOOTH"
);
}
);
width = 538;
}
);
leftKerningGroup = a;
rightKerningGroup = a;
unicode = 1EA5;
},
{
glyphname = uni1EAD;
lastChange = "2018-11-02 02:15:32 +0000";
layers = (
{
layerId = "19C89ACC-DE1B-4ED2-AD26-76EE6DB054A2";
name = Regular;
paths = (
{
closed = 1;
nodes = (
"315 778 LINE",
"435 628 LINE",
"379 585 LINE",
"260 702 LINE",
"141 585 LINE",
"85 628 LINE",
"205 778 LINE"
);
},
{
closed = 1;
nodes = (
"210 -184 OFFCURVE",
"191 -162 OFFCURVE",
"191 -131 CURVE SMOOTH",
"191 -113 LINE SMOOTH",
"191 -82 OFFCURVE",
"210 -60 OFFCURVE",
"255 -60 CURVE SMOOTH",
"300 -60 OFFCURVE",
"319 -82 OFFCURVE",
"319 -113 CURVE SMOOTH",
"319 -131 LINE SMOOTH",
"319 -162 OFFCURVE",
"300 -184 OFFCURVE",
"255 -184 CURVE SMOOTH"
);
},
{
closed = 1;
nodes = (
"155 532 OFFCURVE",
"95 490 OFFCURVE",
"60 431 CURVE",
"125 372 LINE",
"152 413 OFFCURVE",
"188 443 OFFCURVE",
"249 443 CURVE SMOOTH",
"322 443 OFFCURVE",
"356 407 OFFCURVE",
"356 343 CURVE SMOOTH",
"356 299 LINE",
"262 299 LINE SMOOTH",
"117 299 OFFCURVE",
"40 247 OFFCURVE",
"40 143 CURVE SMOOTH",
"40 48 OFFCURVE",
"100 -12 OFFCURVE",
"208 -12 CURVE SMOOTH",
"284 -12 OFFCURVE",
"340 22 OFFCURVE",
"360 87 CURVE",
"365 87 LINE",
"365 0 LINE",
"465 0 LINE",
"465 350 LINE SMOOTH",
"465 467 OFFCURVE",
"391 532 OFFCURVE",
"256 532 CURVE SMOOTH"
);
},
{
closed = 1;
nodes = (
"356 103 OFFCURVE",
"307 71 OFFCURVE",
"239 71 CURVE SMOOTH",
"184 71 OFFCURVE",
"151 94 OFFCURVE",
"151 141 CURVE SMOOTH",
"151 159 LINE SMOOTH",
"151 206 OFFCURVE",
"189 229 OFFCURVE",
"264 229 CURVE SMOOTH",
"356 229 LINE",
"356 154 LINE SMOOTH"
);
}
);
width = 538;
}
);
leftKerningGroup = a;
rightKerningGroup = a;
unicode = 1EAD;
},
{
glyphname = uni1EA7;
lastChange = "2018-11-02 02:15:33 +0000";
layers = (
{
layerId = "19C89ACC-DE1B-4ED2-AD26-76EE6DB054A2";
name = Regular;
paths = (
{
closed = 1;
nodes = (
"-21 879 LINE",
"68 923 LINE",
"159 743 LINE",
"97 713 LINE"
);
},
{
closed = 1;
nodes = (
"308 760 LINE",
"433 621 LINE",
"380 576 LINE",
"259 685 LINE",
"138 576 LINE",
"85 621 LINE",
"210 760 LINE"
);
},
{
closed = 1;
nodes = (
"155 532 OFFCURVE",
"95 490 OFFCURVE",
"60 431 CURVE",
"125 372 LINE",
"152 413 OFFCURVE",
"188 443 OFFCURVE",
"249 443 CURVE SMOOTH",
"322 443 OFFCURVE",
"356 407 OFFCURVE",
"356 343 CURVE SMOOTH",
"356 299 LINE",
"262 299 LINE SMOOTH",
"117 299 OFFCURVE",
"40 247 OFFCURVE",
"40 143 CURVE SMOOTH",
"40 48 OFFCURVE",
"100 -12 OFFCURVE",
"208 -12 CURVE SMOOTH",
"284 -12 OFFCURVE",
"340 22 OFFCURVE",
"360 87 CURVE",
"365 87 LINE",
"365 0 LINE",
"465 0 LINE",
"465 350 LINE SMOOTH",
"465 467 OFFCURVE",
"391 532 OFFCURVE",
"256 532 CURVE SMOOTH"
);
},
{
closed = 1;
nodes = (
"356 103 OFFCURVE",
"307 71 OFFCURVE",
"239 71 CURVE SMOOTH",
"184 71 OFFCURVE",
"151 94 OFFCURVE",
"151 141 CURVE SMOOTH",
"151 159 LINE SMOOTH",
"151 206 OFFCURVE",
"189 229 OFFCURVE",
"264 229 CURVE SMOOTH",
"356 229 LINE",
"356 154 LINE SMOOTH"
);
}
);
width = 538;
}
);
leftKerningGroup = a;
rightKerningGroup = a;
unicode = 1EA7;
},
{
glyphname = uni1EA9;
lastChange = "2018-11-02 02:15:34 +0000";
layers = (
{
layerId = "19C89ACC-DE1B-4ED2-AD26-76EE6DB054A2";
name = Regular;
paths = (
{
closed = 1;
nodes = (
"304 911 LINE",
"424 911 LINE SMOOTH",
"484 911 OFFCURVE",
"506 883 OFFCURVE",
"506 848 CURVE SMOOTH",
"506 815 OFFCURVE",
"482 775 OFFCURVE",
"451 735 CURVE",
"425 704 LINE",
"372 732 LINE",
"425 834 LINE",
"304 834 LINE"
);
},
{
closed = 1;
nodes = (
"308 760 LINE",
"433 621 LINE",
"380 576 LINE",
"259 685 LINE",
"138 576 LINE",
"85 621 LINE",
"210 760 LINE"
);
},
{
closed = 1;
nodes = (
"155 532 OFFCURVE",
"95 490 OFFCURVE",
"60 431 CURVE",
"125 372 LINE",
"152 413 OFFCURVE",
"188 443 OFFCURVE",
"249 443 CURVE SMOOTH",
"322 443 OFFCURVE",
"356 407 OFFCURVE",
"356 343 CURVE SMOOTH",
"356 299 LINE",
"262 299 LINE SMOOTH",
"117 299 OFFCURVE",
"40 247 OFFCURVE",
"40 143 CURVE SMOOTH",
"40 48 OFFCURVE",
"100 -12 OFFCURVE",
"208 -12 CURVE SMOOTH",
"284 -12 OFFCURVE",
"340 22 OFFCURVE",
"360 87 CURVE",
"365 87 LINE",
"365 0 LINE",
"465 0 LINE",
"465 350 LINE SMOOTH",
"465 467 OFFCURVE",
"391 532 OFFCURVE",
"256 532 CURVE SMOOTH"
);
},
{
closed = 1;
nodes = (
"356 103 OFFCURVE",
"307 71 OFFCURVE",
"239 71 CURVE SMOOTH",
"184 71 OFFCURVE",
"151 94 OFFCURVE",
"151 141 CURVE SMOOTH",
"151 159 LINE SMOOTH",
"151 206 OFFCURVE",
"189 229 OFFCURVE",
"264 229 CURVE SMOOTH",
"356 229 LINE",
"356 154 LINE SMOOTH"
);
}
);
width = 538;
}
);
leftKerningGroup = a;
rightKerningGroup = a;
unicode = 1EA9;
},
{
glyphname = uni1EAB;
lastChange = "2018-11-02 02:15:34 +0000";
layers = (
{
layerId = "19C89ACC-DE1B-4ED2-AD26-76EE6DB054A2";
name = Regular;
paths = (
{
closed = 1;
nodes = (
"219 908 OFFCURVE",
"241 896 OFFCURVE",
"264 885 CURVE SMOOTH",
"295 870 OFFCURVE",
"317 862 OFFCURVE",
"338 862 CURVE SMOOTH",
"361 862 OFFCURVE",
"376 871 OFFCURVE",
"396 888 CURVE",
"435 840 LINE",
"415 809 OFFCURVE",
"381 783 OFFCURVE",
"332 783 CURVE SMOOTH",
"299 783 OFFCURVE",
"277 795 OFFCURVE",
"254 806 CURVE SMOOTH",
"223 821 OFFCURVE",
"201 829 OFFCURVE",
"180 829 CURVE SMOOTH",
"157 829 OFFCURVE",
"142 820 OFFCURVE",
"122 803 CURVE",
"83 851 LINE",
"103 882 OFFCURVE",
"137 908 OFFCURVE",
"186 908 CURVE SMOOTH"
);
},
{
closed = 1;
nodes = (
"308 755 LINE",
"432 621 LINE",
"380 576 LINE",
"259 681 LINE",
"138 576 LINE",
"86 621 LINE",
"210 755 LINE"
);
},
{
closed = 1;
nodes = (
"155 532 OFFCURVE",
"95 490 OFFCURVE",
"60 431 CURVE",
"125 372 LINE",
"152 413 OFFCURVE",
"188 443 OFFCURVE",
"249 443 CURVE SMOOTH",
"322 443 OFFCURVE",
"356 407 OFFCURVE",
"356 343 CURVE SMOOTH",
"356 299 LINE",
"262 299 LINE SMOOTH",
"117 299 OFFCURVE",
"40 247 OFFCURVE",
"40 143 CURVE SMOOTH",
"40 48 OFFCURVE",
"100 -12 OFFCURVE",
"208 -12 CURVE SMOOTH",
"284 -12 OFFCURVE",
"340 22 OFFCURVE",
"360 87 CURVE",
"365 87 LINE",
"365 0 LINE",
"465 0 LINE",
"465 350 LINE SMOOTH",
"465 467 OFFCURVE",
"391 532 OFFCURVE",
"256 532 CURVE SMOOTH"
);
},
{
closed = 1;
nodes = (
"356 103 OFFCURVE",
"307 71 OFFCURVE",
"239 71 CURVE SMOOTH",
"184 71 OFFCURVE",
"151 94 OFFCURVE",
"151 141 CURVE SMOOTH",
"151 159 LINE SMOOTH",
"151 206 OFFCURVE",
"189 229 OFFCURVE",
"264 229 CURVE SMOOTH",
"356 229 LINE",
"356 154 LINE SMOOTH"
);
}
);
width = 538;
}
);
leftKerningGroup = a;
rightKerningGroup = a;
unicode = 1EAB;
},
{
glyphname = ae;
layers = (
{
layerId = "19C89ACC-DE1B-4ED2-AD26-76EE6DB054A2";
name = Regular;
paths = (
{
closed = 1;
nodes = (
"264 232 LINE SMOOTH",
"189 231 OFFCURVE",
"151 207 OFFCURVE",
"151 161 CURVE SMOOTH",
"151 143 LINE SMOOTH",
"151 96 OFFCURVE",
"184 71 OFFCURVE",
"241 71 CURVE SMOOTH",
"305 71 OFFCURVE",
"356 103 OFFCURVE",
"356 154 CURVE SMOOTH",
"356 232 LINE"
);
},
{
closed = 1;
nodes = (
"707 304 LINE",
"707 314 LINE SMOOTH",
"707 394 OFFCURVE",
"663 447 OFFCURVE",
"591 447 CURVE SMOOTH",
"554 447 OFFCURVE",
"522 433 OFFCURVE",
"500 409 CURVE SMOOTH",
"478 385 OFFCURVE",
"465 351 OFFCURVE",
"465 311 CURVE SMOOTH",
"465 304 LINE"
);
},
{
closed = 1;
nodes = (
"668 78 OFFCURVE",
"712 108 OFFCURVE",
"740 155 CURVE",
"804 93 LINE",
"765 29 OFFCURVE",
"691 -12 OFFCURVE",
"599 -12 CURVE SMOOTH",
"547 -12 OFFCURVE",
"502 3 OFFCURVE",
"468 24 CURVE SMOOTH",
"434 45 OFFCURVE",
"411 73 OFFCURVE",
"402 98 CURVE",
"396 98 LINE",
"389 74 OFFCURVE",
"370 46 OFFCURVE",
"339 25 CURVE SMOOTH",
"308 4 OFFCURVE",
"264 -12 OFFCURVE",
"208 -12 CURVE SMOOTH",
"103 -12 OFFCURVE",
"40 51 OFFCURVE",
"40 143 CURVE SMOOTH",
"40 248 OFFCURVE",
"121 304 OFFCURVE",
"262 304 CURVE SMOOTH",
"356 304 LINE",
"356 343 LINE SMOOTH",
"356 407 OFFCURVE",
"322 443 OFFCURVE",
"250 443 CURVE SMOOTH",
"186 443 OFFCURVE",
"152 414 OFFCURVE",
"125 373 CURVE",
"60 431 LINE",
"95 490 OFFCURVE",
"155 532 OFFCURVE",
"256 532 CURVE SMOOTH",
"304 532 OFFCURVE",
"338 519 OFFCURVE",
"363 500 CURVE SMOOTH",
"387 481 OFFCURVE",
"401 457 OFFCURVE",
"412 434 CURVE",
"418 434 LINE",
"429 458 OFFCURVE",
"451 482 OFFCURVE",
"481 501 CURVE SMOOTH",
"511 520 OFFCURVE",
"550 532 OFFCURVE",
"597 532 CURVE SMOOTH",
"672 532 OFFCURVE",
"728 504 OFFCURVE",
"766 457 CURVE SMOOTH",
"804 409 OFFCURVE",
"822 345 OFFCURVE",
"822 273 CURVE SMOOTH",
"822 232 LINE",
"465 232 LINE",
"465 215 LINE SMOOTH",
"465 135 OFFCURVE",
"516 78 OFFCURVE",
"604 78 CURVE SMOOTH"
);
}
);
width = 865;
}
);
leftKerningGroup = a;
rightKerningGroup = e;
unicode = 00E6;
},
{
glyphname = aeacute;
layers = (
{
layerId = "19C89ACC-DE1B-4ED2-AD26-76EE6DB054A2";
name = Regular;
paths = (
{
closed = 1;
nodes = (
"264 232 LINE SMOOTH",
"189 231 OFFCURVE",
"151 207 OFFCURVE",
"151 161 CURVE SMOOTH",
"151 143 LINE SMOOTH",
"151 96 OFFCURVE",
"184 71 OFFCURVE",
"241 71 CURVE SMOOTH",
"305 71 OFFCURVE",
"356 103 OFFCURVE",
"356 154 CURVE SMOOTH",
"356 232 LINE"
);
},
{
closed = 1;
nodes = (
"707 304 LINE",
"707 314 LINE SMOOTH",
"707 394 OFFCURVE",
"663 447 OFFCURVE",
"591 447 CURVE SMOOTH",
"554 447 OFFCURVE",
"522 433 OFFCURVE",
"500 409 CURVE SMOOTH",
"478 385 OFFCURVE",
"465 351 OFFCURVE",
"465 311 CURVE SMOOTH",
"465 304 LINE"
);
},
{
closed = 1;
nodes = (
"668 78 OFFCURVE",
"712 108 OFFCURVE",
"740 155 CURVE",
"804 93 LINE",
"765 29 OFFCURVE",
"691 -12 OFFCURVE",
"599 -12 CURVE SMOOTH",
"547 -12 OFFCURVE",
"502 3 OFFCURVE",
"468 24 CURVE SMOOTH",
"434 45 OFFCURVE",
"411 73 OFFCURVE",
"402 98 CURVE",
"396 98 LINE",
"389 74 OFFCURVE",
"370 46 OFFCURVE",
"339 25 CURVE SMOOTH",
"308 4 OFFCURVE",
"264 -12 OFFCURVE",
"208 -12 CURVE SMOOTH",
"103 -12 OFFCURVE",
"40 51 OFFCURVE",
"40 143 CURVE SMOOTH",
"40 248 OFFCURVE",
"121 304 OFFCURVE",
"262 304 CURVE SMOOTH",
"356 304 LINE",
"356 343 LINE SMOOTH",
"356 407 OFFCURVE",
"322 443 OFFCURVE",
"250 443 CURVE SMOOTH",
"186 443 OFFCURVE",
"152 414 OFFCURVE",
"125 373 CURVE",
"60 431 LINE",
"95 490 OFFCURVE",
"155 532 OFFCURVE",
"256 532 CURVE SMOOTH",
"304 532 OFFCURVE",
"338 519 OFFCURVE",
"363 500 CURVE SMOOTH",
"387 481 OFFCURVE",
"401 457 OFFCURVE",
"412 434 CURVE",
"418 434 LINE",
"429 458 OFFCURVE",
"451 482 OFFCURVE",
"481 501 CURVE SMOOTH",
"511 520 OFFCURVE",
"550 532 OFFCURVE",
"597 532 CURVE SMOOTH",
"672 532 OFFCURVE",
"728 504 OFFCURVE",
"766 457 CURVE SMOOTH",
"804 409 OFFCURVE",
"822 345 OFFCURVE",
"822 273 CURVE SMOOTH",
"822 232 LINE",
"465 232 LINE",
"465 215 LINE SMOOTH",
"465 135 OFFCURVE",
"516 78 OFFCURVE",
"604 78 CURVE SMOOTH"
);
},
{
closed = 1;
nodes = (
"433 582 LINE",
"365 615 LINE",
"456 795 LINE",
"551 749 LINE"
);
}
);
width = 865;
}
);
leftKerningGroup = a;
rightKerningGroup = e;
unicode = 01FD;
},
{
glyphname = cacute;
layers = (
{
layerId = "19C89ACC-DE1B-4ED2-AD26-76EE6DB054A2";
name = Regular;
paths = (
{
closed = 1;
nodes = (
"204 -12 OFFCURVE",
"145 14 OFFCURVE",
"105 62 CURVE SMOOTH",
"65 109 OFFCURVE",
"43 177 OFFCURVE",
"43 260 CURVE SMOOTH",
"43 343 OFFCURVE",
"65 411 OFFCURVE",
"105 459 CURVE SMOOTH",
"145 506 OFFCURVE",
"204 532 OFFCURVE",
"279 532 CURVE SMOOTH",
"383 532 OFFCURVE",
"449 481 OFFCURVE",
"480 404 CURVE",
"390 362 LINE",
"375 410 OFFCURVE",
"339 441 OFFCURVE",
"279 441 CURVE SMOOTH",
"199 441 OFFCURVE",
"158 386 OFFCURVE",
"158 306 CURVE SMOOTH",
"158 213 LINE SMOOTH",
"158 133 OFFCURVE",
"199 78 OFFCURVE",
"279 78 CURVE SMOOTH",
"343 78 OFFCURVE",
"378 112 OFFCURVE",
"401 164 CURVE",
"484 120 LINE",
"449 35 OFFCURVE",
"379 -12 OFFCURVE",
"279 -12 CURVE SMOOTH"
);
},
{
closed = 1;
nodes = (
"288 582 LINE",
"220 615 LINE",
"311 795 LINE",
"406 749 LINE"
);
}
);
width = 510;
}
);
leftKerningGroup = c;
rightKerningGroup = c;
unicode = 0107;
},
{
glyphname = ccaron;
layers = (
{
layerId = "19C89ACC-DE1B-4ED2-AD26-76EE6DB054A2";
name = Regular;
paths = (
{
closed = 1;
nodes = (
"204 -12 OFFCURVE",
"145 14 OFFCURVE",
"105 62 CURVE SMOOTH",
"65 109 OFFCURVE",
"43 177 OFFCURVE",
"43 260 CURVE SMOOTH",
"43 343 OFFCURVE",
"65 411 OFFCURVE",
"105 459 CURVE SMOOTH",
"145 506 OFFCURVE",
"204 532 OFFCURVE",
"279 532 CURVE SMOOTH",
"383 532 OFFCURVE",
"449 481 OFFCURVE",
"480 404 CURVE",
"390 362 LINE",
"375 410 OFFCURVE",
"339 441 OFFCURVE",
"279 441 CURVE SMOOTH",
"199 441 OFFCURVE",
"158 386 OFFCURVE",
"158 306 CURVE SMOOTH",
"158 213 LINE SMOOTH",
"158 133 OFFCURVE",
"199 78 OFFCURVE",
"279 78 CURVE SMOOTH",
"343 78 OFFCURVE",
"378 112 OFFCURVE",
"401 164 CURVE",
"484 120 LINE",
"449 35 OFFCURVE",
"379 -12 OFFCURVE",
"279 -12 CURVE SMOOTH"
);
},
{
closed = 1;
nodes = (
"222 594 LINE",
"102 744 LINE",
"158 786 LINE",
"277 670 LINE",
"396 786 LINE",
"452 744 LINE",
"332 594 LINE"
);
}
);
width = 510;
}
);
leftKerningGroup = c;
rightKerningGroup = c;
unicode = 010D;
},
{
glyphname = ccedilla;
layers = (
{
layerId = "19C89ACC-DE1B-4ED2-AD26-76EE6DB054A2";
name = Regular;
paths = (
{
closed = 1;
nodes = (
"383 532 OFFCURVE",
"449 481 OFFCURVE",
"480 404 CURVE",
"390 362 LINE",
"375 410 OFFCURVE",
"339 441 OFFCURVE",
"279 441 CURVE SMOOTH",
"199 441 OFFCURVE",
"158 386 OFFCURVE",
"158 306 CURVE SMOOTH",
"158 213 LINE SMOOTH",
"158 133 OFFCURVE",
"199 78 OFFCURVE",
"279 78 CURVE SMOOTH",
"343 78 OFFCURVE",
"378 112 OFFCURVE",
"401 164 CURVE",
"484 120 LINE",
"452 40 OFFCURVE",
"388 -5 OFFCURVE",
"296 -12 CURVE",
"287 -58 LINE",
"290 -62 LINE",
"305 -58 OFFCURVE",
"318 -55 OFFCURVE",
"333 -55 CURVE SMOOTH",
"372 -55 OFFCURVE",
"403 -76 OFFCURVE",
"403 -123 CURVE SMOOTH",
"403 -154 OFFCURVE",
"389 -174 OFFCURVE",
"367 -188 CURVE SMOOTH",
"345 -202 OFFCURVE",
"315 -209 OFFCURVE",
"283 -209 CURVE SMOOTH",
"223 -209 OFFCURVE",
"189 -186 OFFCURVE",
"173 -167 CURVE",
"215 -119 LINE",
"227 -135 OFFCURVE",
"247 -148 OFFCURVE",
"278 -148 CURVE SMOOTH",
"303 -148 OFFCURVE",
"322 -139 OFFCURVE",
"322 -119 CURVE SMOOTH",
"322 -111 OFFCURVE",
"317 -103 OFFCURVE",
"308 -95 CURVE",
"299 -88 OFFCURVE",
"280 -82 OFFCURVE",
"251 -79 CURVE SMOOTH",
"226 -76 LINE",
"239 -9 LINE",
"114 8 OFFCURVE",
"43 108 OFFCURVE",
"43 260 CURVE SMOOTH",
"43 343 OFFCURVE",
"65 411 OFFCURVE",
"105 459 CURVE SMOOTH",
"145 506 OFFCURVE",
"204 532 OFFCURVE",
"279 532 CURVE SMOOTH"
);
}
);
width = 510;
}
);
leftKerningGroup = c;
rightKerningGroup = c;
unicode = 00E7;
},
{
glyphname = ccircumflex;
layers = (
{
layerId = "19C89ACC-DE1B-4ED2-AD26-76EE6DB054A2";
name = Regular;
paths = (
{
closed = 1;
nodes = (
"204 -12 OFFCURVE",
"145 14 OFFCURVE",
"105 62 CURVE SMOOTH",
"65 109 OFFCURVE",
"43 177 OFFCURVE",
"43 260 CURVE SMOOTH",
"43 343 OFFCURVE",
"65 411 OFFCURVE",
"105 459 CURVE SMOOTH",
"145 506 OFFCURVE",
"204 532 OFFCURVE",
"279 532 CURVE SMOOTH",
"383 532 OFFCURVE",
"449 481 OFFCURVE",
"480 404 CURVE",
"390 362 LINE",
"375 410 OFFCURVE",
"339 441 OFFCURVE",
"279 441 CURVE SMOOTH",
"199 441 OFFCURVE",
"158 386 OFFCURVE",
"158 306 CURVE SMOOTH",
"158 213 LINE SMOOTH",
"158 133 OFFCURVE",
"199 78 OFFCURVE",
"279 78 CURVE SMOOTH",
"343 78 OFFCURVE",
"378 112 OFFCURVE",
"401 164 CURVE",
"484 120 LINE",
"449 35 OFFCURVE",
"379 -12 OFFCURVE",
"279 -12 CURVE SMOOTH"
);
},
{
closed = 1;
nodes = (
"332 778 LINE",
"452 628 LINE",
"396 585 LINE",
"277 702 LINE",
"158 585 LINE",
"102 628 LINE",
"222 778 LINE"
);
}
);
width = 510;
}
);
leftKerningGroup = c;
rightKerningGroup = c;
unicode = 0109;
},
{
glyphname = cdotaccent;
layers = (
{
layerId = "19C89ACC-DE1B-4ED2-AD26-76EE6DB054A2";
name = Regular;
paths = (
{
closed = 1;
nodes = (
"204 -12 OFFCURVE",
"145 14 OFFCURVE",
"105 62 CURVE SMOOTH",
"65 109 OFFCURVE",
"43 177 OFFCURVE",
"43 260 CURVE SMOOTH",
"43 343 OFFCURVE",
"65 411 OFFCURVE",
"105 459 CURVE SMOOTH",
"145 506 OFFCURVE",
"204 532 OFFCURVE",
"279 532 CURVE SMOOTH",
"383 532 OFFCURVE",
"449 481 OFFCURVE",
"480 404 CURVE",
"390 362 LINE",
"375 410 OFFCURVE",
"339 441 OFFCURVE",
"279 441 CURVE SMOOTH",
"199 441 OFFCURVE",
"158 386 OFFCURVE",
"158 306 CURVE SMOOTH",
"158 213 LINE SMOOTH",
"158 133 OFFCURVE",
"199 78 OFFCURVE",
"279 78 CURVE SMOOTH",
"343 78 OFFCURVE",
"378 112 OFFCURVE",
"401 164 CURVE",
"484 120 LINE",
"449 35 OFFCURVE",
"379 -12 OFFCURVE",
"279 -12 CURVE SMOOTH"
);
},
{
closed = 1;
nodes = (
"229 605 OFFCURVE",
"210 629 OFFCURVE",
"210 662 CURVE SMOOTH",
"210 680 LINE SMOOTH",
"210 713 OFFCURVE",
"229 737 OFFCURVE",
"277 737 CURVE SMOOTH",
"325 737 OFFCURVE",
"344 713 OFFCURVE",
"344 680 CURVE SMOOTH",
"344 662 LINE SMOOTH",
"344 629 OFFCURVE",
"325 605 OFFCURVE",
"277 605 CURVE SMOOTH"
);
}
);
width = 510;
}
);
leftKerningGroup = c;
rightKerningGroup = c;
unicode = 010B;
},
{
glyphname = dcaron;
layers = (
{
layerId = "19C89ACC-DE1B-4ED2-AD26-76EE6DB054A2";
name = Regular;
paths = (
{
closed = 1;
nodes = (
"642 542 LINE",
"570 542 LINE",
"580 740 LINE",
"700 740 LINE"
);
},
{
closed = 1;
nodes = (
"405 86 LINE",
"400 86 LINE",
"377 25 OFFCURVE",
"323 -12 OFFCURVE",
"254 -12 CURVE SMOOTH",
"122 -12 OFFCURVE",
"47 88 OFFCURVE",
"47 260 CURVE SMOOTH",
"47 432 OFFCURVE",
"122 532 OFFCURVE",
"254 532 CURVE SMOOTH",
"323 532 OFFCURVE",
"377 497 OFFCURVE",
"400 434 CURVE",
"405 434 LINE",
"405 740 LINE",
"514 740 LINE",
"514 0 LINE",
"405 0 LINE"
);
},
{
closed = 1;
nodes = (
"354 82 OFFCURVE",
"405 118 OFFCURVE",
"405 171 CURVE SMOOTH",
"405 349 LINE SMOOTH",
"405 402 OFFCURVE",
"354 438 OFFCURVE",
"287 438 CURVE SMOOTH",
"211 438 OFFCURVE",
"162 385 OFFCURVE",
"162 305 CURVE SMOOTH",
"162 215 LINE SMOOTH",
"162 135 OFFCURVE",
"211 82 OFFCURVE",
"287 82 CURVE SMOOTH"
);
}
);
width = 636;
}
);
leftKerningGroup = d;
rightKerningGroup = dcaron;
unicode = 010F;
},
{
glyphname = dcroat;
layers = (
{
layerId = "19C89ACC-DE1B-4ED2-AD26-76EE6DB054A2";
name = Regular;
paths = (
{
closed = 1;
nodes = (
"405 86 LINE",
"400 86 LINE",
"377 25 OFFCURVE",
"323 -12 OFFCURVE",
"254 -12 CURVE SMOOTH",
"122 -12 OFFCURVE",
"47 88 OFFCURVE",
"47 260 CURVE SMOOTH",
"47 432 OFFCURVE",
"122 532 OFFCURVE",
"254 532 CURVE SMOOTH",
"323 532 OFFCURVE",
"377 497 OFFCURVE",
"400 434 CURVE",
"405 434 LINE",
"405 600 LINE",
"259 600 LINE",
"259 679 LINE",
"405 679 LINE",
"405 740 LINE",
"514 740 LINE",
"514 679 LINE",
"577 679 LINE",
"577 600 LINE",
"514 600 LINE",
"514 0 LINE",
"405 0 LINE"
);
},
{
closed = 1;
nodes = (
"354 82 OFFCURVE",
"405 118 OFFCURVE",
"405 171 CURVE SMOOTH",
"405 349 LINE SMOOTH",
"405 402 OFFCURVE",
"354 438 OFFCURVE",
"287 438 CURVE SMOOTH",
"211 438 OFFCURVE",
"162 385 OFFCURVE",
"162 305 CURVE SMOOTH",
"162 215 LINE SMOOTH",
"162 135 OFFCURVE",
"211 82 OFFCURVE",
"287 82 CURVE SMOOTH"
);
}
);
width = 592;
}
);
leftKerningGroup = d;
unicode = 0111;
},
{
glyphname = eth;
layers = (
{
layerId = "19C89ACC-DE1B-4ED2-AD26-76EE6DB054A2";
name = Regular;
paths = (
{
closed = 1;
nodes = (
"443 704 LINE",
"367 653 LINE",
"411 608 OFFCURVE",
"451 554 OFFCURVE",
"480 491 CURVE SMOOTH",
"508 427 OFFCURVE",
"525 355 OFFCURVE",
"525 274 CURVE SMOOTH",
"525 177 OFFCURVE",
"501 106 OFFCURVE",
"459 59 CURVE SMOOTH",
"417 11 OFFCURVE",
"357 -12 OFFCURVE",
"286 -12 CURVE SMOOTH",
"210 -12 OFFCURVE",
"151 14 OFFCURVE",
"109 60 CURVE SMOOTH",
"67 106 OFFCURVE",
"44 170 OFFCURVE",
"44 249 CURVE SMOOTH",
"44 325 OFFCURVE",
"65 388 OFFCURVE",
"102 432 CURVE SMOOTH",
"139 476 OFFCURVE",
"194 502 OFFCURVE",
"259 502 CURVE SMOOTH",
"328 502 OFFCURVE",
"375 465 OFFCURVE",
"400 404 CURVE",
"406 407 LINE",
"390 478 OFFCURVE",
"345 543 OFFCURVE",
"285 600 CURVE",
"201 546 LINE",
"162 595 LINE",
"236 644 LINE",
"191 680 OFFCURVE",
"142 712 OFFCURVE",
"93 740 CURVE",
"260 740 LINE",
"279 728 OFFCURVE",
"299 714 OFFCURVE",
"319 697 CURVE",
"403 753 LINE"
);
},
{
closed = 1;
nodes = (
"361 75 OFFCURVE",
"411 126 OFFCURVE",
"411 214 CURVE SMOOTH",
"411 276 LINE SMOOTH",
"411 364 OFFCURVE",
"361 415 OFFCURVE",
"285 415 CURVE SMOOTH",
"209 415 OFFCURVE",
"159 364 OFFCURVE",
"159 276 CURVE SMOOTH",
"159 214 LINE SMOOTH",
"159 126 OFFCURVE",
"209 75 OFFCURVE",
"285 75 CURVE SMOOTH"
);
}
);
width = 574;
}
);
leftKerningGroup = d;
rightKerningGroup = o;
unicode = 00F0;
},
{
glyphname = eacute;
layers = (
{
layerId = "19C89ACC-DE1B-4ED2-AD26-76EE6DB054A2";
name = Regular;
paths = (
{
closed = 1;
nodes = (
"207 -12 OFFCURVE",
"148 14 OFFCURVE",
"107 62 CURVE SMOOTH",
"66 109 OFFCURVE",
"43 177 OFFCURVE",
"43 260 CURVE SMOOTH",
"43 343 OFFCURVE",
"66 411 OFFCURVE",
"107 459 CURVE SMOOTH",
"148 506 OFFCURVE",
"207 532 OFFCURVE",
"282 532 CURVE SMOOTH",
"358 532 OFFCURVE",
"416 504 OFFCURVE",
"455 457 CURVE SMOOTH",
"494 409 OFFCURVE",
"513 345 OFFCURVE",
"513 273 CURVE SMOOTH",
"513 232 LINE",
"156 232 LINE",
"156 215 LINE SMOOTH",
"156 135 OFFCURVE",
"205 78 OFFCURVE",
"293 78 CURVE SMOOTH",
"357 78 OFFCURVE",
"399 108 OFFCURVE",
"430 156 CURVE",
"494 93 LINE",
"455 29 OFFCURVE",
"379 -12 OFFCURVE",
"282 -12 CURVE SMOOTH"
);
},
{
closed = 1;
nodes = (
"245 447 OFFCURVE",
"213 433 OFFCURVE",
"191 409 CURVE SMOOTH",
"169 385 OFFCURVE",
"156 351 OFFCURVE",
"156 311 CURVE SMOOTH",
"156 304 LINE",
"398 304 LINE",
"398 314 LINE SMOOTH",
"398 394 OFFCURVE",
"354 447 OFFCURVE",
"282 447 CURVE SMOOTH"
);
},
{
closed = 1;
nodes = (
"295 582 LINE",
"227 615 LINE",
"318 795 LINE",
"413 749 LINE"
);
}
);
width = 556;
}
);
leftKerningGroup = c;
rightKerningGroup = e;
unicode = 00E9;
},
{
glyphname = ebreve;
layers = (
{
layerId = "19C89ACC-DE1B-4ED2-AD26-76EE6DB054A2";
name = Regular;
paths = (
{
closed = 1;
nodes = (
"207 -12 OFFCURVE",
"148 14 OFFCURVE",
"107 62 CURVE SMOOTH",
"66 109 OFFCURVE",
"43 177 OFFCURVE",
"43 260 CURVE SMOOTH",
"43 343 OFFCURVE",
"66 411 OFFCURVE",
"107 459 CURVE SMOOTH",
"148 506 OFFCURVE",
"207 532 OFFCURVE",
"282 532 CURVE SMOOTH",
"358 532 OFFCURVE",
"416 504 OFFCURVE",
"455 457 CURVE SMOOTH",
"494 409 OFFCURVE",
"513 345 OFFCURVE",
"513 273 CURVE SMOOTH",
"513 232 LINE",
"156 232 LINE",
"156 215 LINE SMOOTH",
"156 135 OFFCURVE",
"205 78 OFFCURVE",
"293 78 CURVE SMOOTH",
"357 78 OFFCURVE",
"399 108 OFFCURVE",
"430 156 CURVE",
"494 93 LINE",
"455 29 OFFCURVE",
"379 -12 OFFCURVE",
"282 -12 CURVE SMOOTH"
);
},
{
closed = 1;
nodes = (
"245 447 OFFCURVE",
"213 433 OFFCURVE",
"191 409 CURVE SMOOTH",
"169 385 OFFCURVE",
"156 351 OFFCURVE",
"156 311 CURVE SMOOTH",
"156 304 LINE",
"398 304 LINE",
"398 314 LINE SMOOTH",
"398 394 OFFCURVE",
"354 447 OFFCURVE",
"282 447 CURVE SMOOTH"
);
},
{
closed = 1;
nodes = (
"227 589 OFFCURVE",
"190 610 OFFCURVE",
"165 638 CURVE SMOOTH",
"140 666 OFFCURVE",
"126 702 OFFCURVE",
"115 733 CURVE",
"175 763 LINE",
"196 730 LINE SMOOTH",
"219 693 OFFCURVE",
"239 669 OFFCURVE",
"283 669 CURVE SMOOTH",
"327 669 OFFCURVE",
"347 693 OFFCURVE",
"370 730 CURVE SMOOTH",
"391 763 LINE",
"451 733 LINE",
"440 702 OFFCURVE",
"426 666 OFFCURVE",
"401 638 CURVE SMOOTH",
"376 610 OFFCURVE",
"339 589 OFFCURVE",
"283 589 CURVE SMOOTH"
);
}
);
width = 556;
}
);
leftKerningGroup = c;
rightKerningGroup = e;
unicode = 0115;
},
{
glyphname = ecaron;
layers = (
{
layerId = "19C89ACC-DE1B-4ED2-AD26-76EE6DB054A2";
name = Regular;
paths = (
{
closed = 1;
nodes = (
"207 -12 OFFCURVE",
"148 14 OFFCURVE",
"107 62 CURVE SMOOTH",
"66 109 OFFCURVE",
"43 177 OFFCURVE",
"43 260 CURVE SMOOTH",
"43 343 OFFCURVE",
"66 411 OFFCURVE",
"107 459 CURVE SMOOTH",
"148 506 OFFCURVE",
"207 532 OFFCURVE",
"282 532 CURVE SMOOTH",
"358 532 OFFCURVE",
"416 504 OFFCURVE",
"455 457 CURVE SMOOTH",
"494 409 OFFCURVE",
"513 345 OFFCURVE",
"513 273 CURVE SMOOTH",
"513 232 LINE",
"156 232 LINE",
"156 215 LINE SMOOTH",
"156 135 OFFCURVE",
"205 78 OFFCURVE",
"293 78 CURVE SMOOTH",
"357 78 OFFCURVE",
"399 108 OFFCURVE",
"430 156 CURVE",
"494 93 LINE",
"455 29 OFFCURVE",
"379 -12 OFFCURVE",
"282 -12 CURVE SMOOTH"
);
},
{
closed = 1;
nodes = (
"245 447 OFFCURVE",
"213 433 OFFCURVE",
"191 409 CURVE SMOOTH",
"169 385 OFFCURVE",
"156 351 OFFCURVE",
"156 311 CURVE SMOOTH",
"156 304 LINE",
"398 304 LINE",
"398 314 LINE SMOOTH",
"398 394 OFFCURVE",
"354 447 OFFCURVE",
"282 447 CURVE SMOOTH"
);
},
{
closed = 1;
nodes = (
"229 594 LINE",
"109 744 LINE",
"165 786 LINE",
"284 670 LINE",
"403 786 LINE",
"459 744 LINE",
"339 594 LINE"
);
}
);
width = 556;
}
);
leftKerningGroup = c;
rightKerningGroup = e;
unicode = 011B;
},
{
glyphname = ecircumflex;
layers = (
{
layerId = "19C89ACC-DE1B-4ED2-AD26-76EE6DB054A2";
name = Regular;
paths = (
{
closed = 1;
nodes = (
"207 -12 OFFCURVE",
"148 14 OFFCURVE",
"107 62 CURVE SMOOTH",
"66 109 OFFCURVE",
"43 177 OFFCURVE",
"43 260 CURVE SMOOTH",
"43 343 OFFCURVE",
"66 411 OFFCURVE",
"107 459 CURVE SMOOTH",
"148 506 OFFCURVE",
"207 532 OFFCURVE",
"282 532 CURVE SMOOTH",
"358 532 OFFCURVE",
"416 504 OFFCURVE",
"455 457 CURVE SMOOTH",
"494 409 OFFCURVE",
"513 345 OFFCURVE",
"513 273 CURVE SMOOTH",
"513 232 LINE",
"156 232 LINE",
"156 215 LINE SMOOTH",
"156 135 OFFCURVE",
"205 78 OFFCURVE",
"293 78 CURVE SMOOTH",
"357 78 OFFCURVE",
"399 108 OFFCURVE",
"430 156 CURVE",
"494 93 LINE",
"455 29 OFFCURVE",
"379 -12 OFFCURVE",
"282 -12 CURVE SMOOTH"
);
},
{
closed = 1;
nodes = (
"245 447 OFFCURVE",
"213 433 OFFCURVE",
"191 409 CURVE SMOOTH",
"169 385 OFFCURVE",
"156 351 OFFCURVE",
"156 311 CURVE SMOOTH",
"156 304 LINE",
"398 304 LINE",
"398 314 LINE SMOOTH",
"398 394 OFFCURVE",
"354 447 OFFCURVE",
"282 447 CURVE SMOOTH"
);
},
{
closed = 1;
nodes = (
"339 778 LINE",
"459 628 LINE",
"403 585 LINE",
"284 702 LINE",
"165 585 LINE",
"109 628 LINE",
"229 778 LINE"
);
}
);
width = 556;
}
);
leftKerningGroup = c;
rightKerningGroup = e;
unicode = 00EA;
},
{
glyphname = edieresis;
layers = (
{
layerId = "19C89ACC-DE1B-4ED2-AD26-76EE6DB054A2";
name = Regular;
paths = (
{
closed = 1;
nodes = (
"207 -12 OFFCURVE",
"148 14 OFFCURVE",
"107 62 CURVE SMOOTH",
"66 109 OFFCURVE",
"43 177 OFFCURVE",
"43 260 CURVE SMOOTH",
"43 343 OFFCURVE",
"66 411 OFFCURVE",
"107 459 CURVE SMOOTH",
"148 506 OFFCURVE",
"207 532 OFFCURVE",
"282 532 CURVE SMOOTH",
"358 532 OFFCURVE",
"416 504 OFFCURVE",
"455 457 CURVE SMOOTH",
"494 409 OFFCURVE",
"513 345 OFFCURVE",
"513 273 CURVE SMOOTH",
"513 232 LINE",
"156 232 LINE",
"156 215 LINE SMOOTH",
"156 135 OFFCURVE",
"205 78 OFFCURVE",
"293 78 CURVE SMOOTH",
"357 78 OFFCURVE",
"399 108 OFFCURVE",
"430 156 CURVE",
"494 93 LINE",
"455 29 OFFCURVE",
"379 -12 OFFCURVE",
"282 -12 CURVE SMOOTH"
);
},
{
closed = 1;
nodes = (
"245 447 OFFCURVE",
"213 433 OFFCURVE",
"191 409 CURVE SMOOTH",
"169 385 OFFCURVE",
"156 351 OFFCURVE",
"156 311 CURVE SMOOTH",
"156 304 LINE",
"398 304 LINE",
"398 314 LINE SMOOTH",
"398 394 OFFCURVE",
"354 447 OFFCURVE",
"282 447 CURVE SMOOTH"
);
},
{
closed = 1;
nodes = (
"139 610 OFFCURVE",
"122 632 OFFCURVE",
"122 663 CURVE SMOOTH",
"122 681 LINE SMOOTH",
"122 712 OFFCURVE",
"139 734 OFFCURVE",
"184 734 CURVE SMOOTH",
"229 734 OFFCURVE",
"246 712 OFFCURVE",
"246 681 CURVE SMOOTH",
"246 663 LINE SMOOTH",
"246 632 OFFCURVE",
"229 610 OFFCURVE",
"184 610 CURVE SMOOTH"
);
},
{
closed = 1;
nodes = (
"339 610 OFFCURVE",
"322 632 OFFCURVE",
"322 663 CURVE SMOOTH",
"322 681 LINE SMOOTH",
"322 712 OFFCURVE",
"339 734 OFFCURVE",
"384 734 CURVE SMOOTH",
"429 734 OFFCURVE",
"446 712 OFFCURVE",
"446 681 CURVE SMOOTH",
"446 663 LINE SMOOTH",
"446 632 OFFCURVE",
"429 610 OFFCURVE",
"384 610 CURVE SMOOTH"
);
}
);
width = 556;
}
);
leftKerningGroup = c;
rightKerningGroup = e;
unicode = 00EB;
},
{
glyphname = edotaccent;
layers = (
{
layerId = "19C89ACC-DE1B-4ED2-AD26-76EE6DB054A2";
name = Regular;
paths = (
{
closed = 1;
nodes = (
"207 -12 OFFCURVE",
"148 14 OFFCURVE",
"107 62 CURVE SMOOTH",
"66 109 OFFCURVE",
"43 177 OFFCURVE",
"43 260 CURVE SMOOTH",
"43 343 OFFCURVE",
"66 411 OFFCURVE",
"107 459 CURVE SMOOTH",
"148 506 OFFCURVE",
"207 532 OFFCURVE",
"282 532 CURVE SMOOTH",
"358 532 OFFCURVE",
"416 504 OFFCURVE",
"455 457 CURVE SMOOTH",
"494 409 OFFCURVE",
"513 345 OFFCURVE",
"513 273 CURVE SMOOTH",
"513 232 LINE",
"156 232 LINE",
"156 215 LINE SMOOTH",
"156 135 OFFCURVE",
"205 78 OFFCURVE",
"293 78 CURVE SMOOTH",
"357 78 OFFCURVE",
"399 108 OFFCURVE",
"430 156 CURVE",
"494 93 LINE",
"455 29 OFFCURVE",
"379 -12 OFFCURVE",
"282 -12 CURVE SMOOTH"
);
},
{
closed = 1;
nodes = (
"245 447 OFFCURVE",
"213 433 OFFCURVE",
"191 409 CURVE SMOOTH",
"169 385 OFFCURVE",
"156 351 OFFCURVE",
"156 311 CURVE SMOOTH",
"156 304 LINE",
"398 304 LINE",
"398 314 LINE SMOOTH",
"398 394 OFFCURVE",
"354 447 OFFCURVE",
"282 447 CURVE SMOOTH"
);
},
{
closed = 1;
nodes = (
"236 605 OFFCURVE",
"217 629 OFFCURVE",
"217 662 CURVE SMOOTH",
"217 680 LINE SMOOTH",
"217 713 OFFCURVE",
"236 737 OFFCURVE",
"284 737 CURVE SMOOTH",
"332 737 OFFCURVE",
"351 713 OFFCURVE",
"351 680 CURVE SMOOTH",
"351 662 LINE SMOOTH",
"351 629 OFFCURVE",
"332 605 OFFCURVE",
"284 605 CURVE SMOOTH"
);
}
);
width = 556;
}
);
leftKerningGroup = c;
rightKerningGroup = e;
unicode = 0117;
},
{
glyphname = uni1EB9;
layers = (
{
layerId = "19C89ACC-DE1B-4ED2-AD26-76EE6DB054A2";
name = Regular;
paths = (
{
closed = 1;
nodes = (
"207 -12 OFFCURVE",
"148 14 OFFCURVE",
"107 62 CURVE SMOOTH",
"66 109 OFFCURVE",
"43 177 OFFCURVE",
"43 260 CURVE SMOOTH",
"43 343 OFFCURVE",
"66 411 OFFCURVE",
"107 459 CURVE SMOOTH",
"148 506 OFFCURVE",
"207 532 OFFCURVE",
"282 532 CURVE SMOOTH",
"358 532 OFFCURVE",
"416 504 OFFCURVE",
"455 457 CURVE SMOOTH",
"494 409 OFFCURVE",
"513 345 OFFCURVE",
"513 273 CURVE SMOOTH",
"513 232 LINE",
"156 232 LINE",
"156 215 LINE SMOOTH",
"156 135 OFFCURVE",
"205 78 OFFCURVE",
"293 78 CURVE SMOOTH",
"357 78 OFFCURVE",
"399 108 OFFCURVE",
"430 156 CURVE",
"494 93 LINE",
"455 29 OFFCURVE",
"379 -12 OFFCURVE",
"282 -12 CURVE SMOOTH"
);
},
{
closed = 1;
nodes = (
"245 447 OFFCURVE",
"213 433 OFFCURVE",
"191 409 CURVE SMOOTH",
"169 385 OFFCURVE",
"156 351 OFFCURVE",
"156 311 CURVE SMOOTH",
"156 304 LINE",
"398 304 LINE",
"398 314 LINE SMOOTH",
"398 394 OFFCURVE",
"354 447 OFFCURVE",
"282 447 CURVE SMOOTH"
);
},
{
closed = 1;
nodes = (
"238 -184 OFFCURVE",
"219 -162 OFFCURVE",
"219 -131 CURVE SMOOTH",
"219 -113 LINE SMOOTH",
"219 -82 OFFCURVE",
"238 -60 OFFCURVE",
"283 -60 CURVE SMOOTH",
"328 -60 OFFCURVE",
"347 -82 OFFCURVE",
"347 -113 CURVE SMOOTH",
"347 -131 LINE SMOOTH",
"347 -162 OFFCURVE",
"328 -184 OFFCURVE",
"283 -184 CURVE SMOOTH"
);
}
);
width = 556;
}
);
leftKerningGroup = c;
rightKerningGroup = e;
unicode = 1EB9;
},
{
glyphname = egrave;
layers = (
{
layerId = "19C89ACC-DE1B-4ED2-AD26-76EE6DB054A2";
name = Regular;
paths = (
{
closed = 1;
nodes = (
"207 -12 OFFCURVE",
"148 14 OFFCURVE",
"107 62 CURVE SMOOTH",
"66 109 OFFCURVE",
"43 177 OFFCURVE",
"43 260 CURVE SMOOTH",
"43 343 OFFCURVE",
"66 411 OFFCURVE",
"107 459 CURVE SMOOTH",
"148 506 OFFCURVE",
"207 532 OFFCURVE",
"282 532 CURVE SMOOTH",
"358 532 OFFCURVE",
"416 504 OFFCURVE",
"455 457 CURVE SMOOTH",
"494 409 OFFCURVE",
"513 345 OFFCURVE",
"513 273 CURVE SMOOTH",
"513 232 LINE",
"156 232 LINE",
"156 215 LINE SMOOTH",
"156 135 OFFCURVE",
"205 78 OFFCURVE",
"293 78 CURVE SMOOTH",
"357 78 OFFCURVE",
"399 108 OFFCURVE",
"430 156 CURVE",
"494 93 LINE",
"455 29 OFFCURVE",
"379 -12 OFFCURVE",
"282 -12 CURVE SMOOTH"
);
},
{
closed = 1;
nodes = (
"245 447 OFFCURVE",
"213 433 OFFCURVE",
"191 409 CURVE SMOOTH",
"169 385 OFFCURVE",
"156 351 OFFCURVE",
"156 311 CURVE SMOOTH",
"156 304 LINE",
"398 304 LINE",
"398 314 LINE SMOOTH",
"398 394 OFFCURVE",
"354 447 OFFCURVE",
"282 447 CURVE SMOOTH"
);
},
{
closed = 1;
nodes = (
"155 749 LINE",
"250 795 LINE",
"341 615 LINE",
"273 582 LINE"
);
}
);
width = 556;
}
);
leftKerningGroup = c;
rightKerningGroup = e;
unicode = 00E8;
},
{
glyphname = uni1EBB;
layers = (
{
layerId = "19C89ACC-DE1B-4ED2-AD26-76EE6DB054A2";
name = Regular;
paths = (
{
closed = 1;
nodes = (
"207 -12 OFFCURVE",
"148 14 OFFCURVE",
"107 62 CURVE SMOOTH",
"66 109 OFFCURVE",
"43 177 OFFCURVE",
"43 260 CURVE SMOOTH",
"43 343 OFFCURVE",
"66 411 OFFCURVE",
"107 459 CURVE SMOOTH",
"148 506 OFFCURVE",
"207 532 OFFCURVE",
"282 532 CURVE SMOOTH",
"358 532 OFFCURVE",
"416 504 OFFCURVE",
"455 457 CURVE SMOOTH",
"494 409 OFFCURVE",
"513 345 OFFCURVE",
"513 273 CURVE SMOOTH",
"513 232 LINE",
"156 232 LINE",
"156 215 LINE SMOOTH",
"156 135 OFFCURVE",
"205 78 OFFCURVE",
"293 78 CURVE SMOOTH",
"357 78 OFFCURVE",
"399 108 OFFCURVE",
"430 156 CURVE",
"494 93 LINE",
"455 29 OFFCURVE",
"379 -12 OFFCURVE",
"282 -12 CURVE SMOOTH"
);
},
{
closed = 1;
nodes = (
"245 447 OFFCURVE",
"213 433 OFFCURVE",
"191 409 CURVE SMOOTH",
"169 385 OFFCURVE",
"156 351 OFFCURVE",
"156 311 CURVE SMOOTH",
"156 304 LINE",
"398 304 LINE",
"398 314 LINE SMOOTH",
"398 394 OFFCURVE",
"354 447 OFFCURVE",
"282 447 CURVE SMOOTH"
);
},
{
closed = 1;
nodes = (
"184 781 LINE",
"307 781 LINE SMOOTH",
"368 781 OFFCURVE",
"389 753 OFFCURVE",
"389 718 CURVE SMOOTH",
"389 685 OFFCURVE",
"369 645 OFFCURVE",
"337 605 CURVE SMOOTH",
"311 574 LINE",
"253 602 LINE",
"303 701 LINE",
"184 701 LINE"
);
}
);
width = 556;
}
);
leftKerningGroup = c;
rightKerningGroup = e;
unicode = 1EBB;
},
{
glyphname = emacron;
layers = (
{
layerId = "19C89ACC-DE1B-4ED2-AD26-76EE6DB054A2";
name = Regular;
paths = (
{
closed = 1;
nodes = (
"207 -12 OFFCURVE",
"148 14 OFFCURVE",
"107 62 CURVE SMOOTH",
"66 109 OFFCURVE",
"43 177 OFFCURVE",
"43 260 CURVE SMOOTH",
"43 343 OFFCURVE",
"66 411 OFFCURVE",
"107 459 CURVE SMOOTH",
"148 506 OFFCURVE",
"207 532 OFFCURVE",
"282 532 CURVE SMOOTH",
"358 532 OFFCURVE",
"416 504 OFFCURVE",
"455 457 CURVE SMOOTH",
"494 409 OFFCURVE",
"513 345 OFFCURVE",
"513 273 CURVE SMOOTH",
"513 232 LINE",
"156 232 LINE",
"156 215 LINE SMOOTH",
"156 135 OFFCURVE",
"205 78 OFFCURVE",
"293 78 CURVE SMOOTH",
"357 78 OFFCURVE",
"399 108 OFFCURVE",
"430 156 CURVE",
"494 93 LINE",
"455 29 OFFCURVE",
"379 -12 OFFCURVE",
"282 -12 CURVE SMOOTH"
);
},
{
closed = 1;
nodes = (
"245 447 OFFCURVE",
"213 433 OFFCURVE",
"191 409 CURVE SMOOTH",
"169 385 OFFCURVE",
"156 351 OFFCURVE",
"156 311 CURVE SMOOTH",
"156 304 LINE",
"398 304 LINE",
"398 314 LINE SMOOTH",
"398 394 OFFCURVE",
"354 447 OFFCURVE",
"282 447 CURVE SMOOTH"
);
},
{
closed = 1;
nodes = (
"138 714 LINE",
"430 714 LINE",
"430 631 LINE",
"138 631 LINE"
);
}
);
width = 556;
}
);
leftKerningGroup = c;
rightKerningGroup = e;
unicode = 0113;
},
{
glyphname = eogonek;
layers = (
{
layerId = "19C89ACC-DE1B-4ED2-AD26-76EE6DB054A2";
name = Regular;
paths = (
{
closed = 1;
nodes = (
"319 -209 OFFCURVE",
"292 -203 OFFCURVE",
"273 -190 CURVE",
"253 -178 OFFCURVE",
"241 -158 OFFCURVE",
"241 -129 CURVE SMOOTH",
"241 -100 OFFCURVE",
"254 -77 OFFCURVE",
"274 -57 CURVE SMOOTH",
"293 -37 OFFCURVE",
"320 -21 OFFCURVE",
"348 -5 CURVE",
"346 -1 LINE",
"327 -8 OFFCURVE",
"308 -12 OFFCURVE",
"281 -12 CURVE SMOOTH",
"206 -12 OFFCURVE",
"147 14 OFFCURVE",
"107 62 CURVE SMOOTH",
"66 109 OFFCURVE",
"43 177 OFFCURVE",
"43 260 CURVE SMOOTH",
"43 343 OFFCURVE",
"65 410 OFFCURVE",
"106 458 CURVE SMOOTH",
"147 505 OFFCURVE",
"205 532 OFFCURVE",
"280 532 CURVE SMOOTH",
"357 532 OFFCURVE",
"415 504 OFFCURVE",
"454 457 CURVE SMOOTH",
"493 409 OFFCURVE",
"512 345 OFFCURVE",
"512 273 CURVE SMOOTH",
"512 232 LINE",
"156 232 LINE",
"156 215 LINE SMOOTH",
"156 135 OFFCURVE",
"203 78 OFFCURVE",
"294 78 CURVE SMOOTH",
"357 78 OFFCURVE",
"402 108 OFFCURVE",
"430 155 CURVE",
"494 93 LINE",
"481 73 OFFCURVE",
"462 55 OFFCURVE",
"429 26 CURVE",
"417 14 OFFCURVE",
"405 2 OFFCURVE",
"392 -9 CURVE",
"367 -33 OFFCURVE",
"345 -56 OFFCURVE",
"331 -79 CURVE SMOOTH",
"324 -91 OFFCURVE",
"320 -103 OFFCURVE",
"320 -115 CURVE SMOOTH",
"320 -138 OFFCURVE",
"335 -147 OFFCURVE",
"354 -147 CURVE SMOOTH",
"374 -147 OFFCURVE",
"392 -136 OFFCURVE",
"405 -121 CURVE",
"449 -165 LINE",
"434 -192 OFFCURVE",
"402 -209 OFFCURVE",
"347 -209 CURVE SMOOTH"
);
},
{
closed = 1;
nodes = (
"397 304 LINE",
"397 314 LINE SMOOTH",
"397 394 OFFCURVE",
"354 447 OFFCURVE",
"281 447 CURVE SMOOTH",
"205 447 OFFCURVE",
"156 391 OFFCURVE",
"156 311 CURVE SMOOTH",
"156 304 LINE"
);
}
);
width = 555;
}
);
leftKerningGroup = c;
rightKerningGroup = e;
unicode = 0119;
},
{
glyphname = uni1EBD;
layers = (
{
layerId = "19C89ACC-DE1B-4ED2-AD26-76EE6DB054A2";
name = Regular;
paths = (
{
closed = 1;
nodes = (
"207 -12 OFFCURVE",
"148 14 OFFCURVE",
"107 62 CURVE SMOOTH",
"66 109 OFFCURVE",
"43 177 OFFCURVE",
"43 260 CURVE SMOOTH",
"43 343 OFFCURVE",
"66 411 OFFCURVE",
"107 459 CURVE SMOOTH",
"148 506 OFFCURVE",
"207 532 OFFCURVE",
"282 532 CURVE SMOOTH",
"358 532 OFFCURVE",
"416 504 OFFCURVE",
"455 457 CURVE SMOOTH",
"494 409 OFFCURVE",
"513 345 OFFCURVE",
"513 273 CURVE SMOOTH",
"513 232 LINE",
"156 232 LINE",
"156 215 LINE SMOOTH",
"156 135 OFFCURVE",
"205 78 OFFCURVE",
"293 78 CURVE SMOOTH",
"357 78 OFFCURVE",
"399 108 OFFCURVE",
"430 156 CURVE",
"494 93 LINE",
"455 29 OFFCURVE",
"379 -12 OFFCURVE",
"282 -12 CURVE SMOOTH"
);
},
{
closed = 1;
nodes = (
"245 447 OFFCURVE",
"213 433 OFFCURVE",
"191 409 CURVE SMOOTH",
"169 385 OFFCURVE",
"156 351 OFFCURVE",
"156 311 CURVE SMOOTH",
"156 304 LINE",
"398 304 LINE",
"398 314 LINE SMOOTH",
"398 394 OFFCURVE",
"354 447 OFFCURVE",
"282 447 CURVE SMOOTH"
);
},
{
closed = 1;
nodes = (
"325 607 OFFCURVE",
"303 620 OFFCURVE",
"280 631 CURVE SMOOTH",
"249 646 OFFCURVE",
"227 655 OFFCURVE",
"206 655 CURVE SMOOTH",
"183 655 OFFCURVE",
"168 645 OFFCURVE",
"148 628 CURVE",
"107 680 LINE",
"127 711 OFFCURVE",
"161 738 OFFCURVE",
"210 738 CURVE SMOOTH",
"243 738 OFFCURVE",
"265 725 OFFCURVE",
"288 714 CURVE SMOOTH",
"319 699 OFFCURVE",
"341 690 OFFCURVE",
"362 690 CURVE SMOOTH",
"385 690 OFFCURVE",
"400 700 OFFCURVE",
"420 717 CURVE",
"461 665 LINE",
"441 634 OFFCURVE",
"407 607 OFFCURVE",
"358 607 CURVE SMOOTH"
);
}
);
width = 556;
}
);
leftKerningGroup = c;
rightKerningGroup = e;
unicode = 1EBD;
},
{
glyphname = uni1EBF;
layers = (
{
layerId = "19C89ACC-DE1B-4ED2-AD26-76EE6DB054A2";
name = Regular;
paths = (
{
closed = 1;
nodes = (
"207 -12 OFFCURVE",
"148 14 OFFCURVE",
"107 62 CURVE SMOOTH",
"66 109 OFFCURVE",
"43 177 OFFCURVE",
"43 260 CURVE SMOOTH",
"43 343 OFFCURVE",
"66 411 OFFCURVE",
"107 459 CURVE SMOOTH",
"148 506 OFFCURVE",
"207 532 OFFCURVE",
"282 532 CURVE SMOOTH",
"358 532 OFFCURVE",
"416 504 OFFCURVE",
"455 457 CURVE SMOOTH",
"494 409 OFFCURVE",
"513 345 OFFCURVE",
"513 273 CURVE SMOOTH",
"513 232 LINE",
"156 232 LINE",
"156 215 LINE SMOOTH",
"156 135 OFFCURVE",
"205 78 OFFCURVE",
"293 78 CURVE SMOOTH",
"357 78 OFFCURVE",
"399 108 OFFCURVE",
"430 156 CURVE",
"494 93 LINE",
"455 29 OFFCURVE",
"379 -12 OFFCURVE",
"282 -12 CURVE SMOOTH"
);
},
{
closed = 1;
nodes = (
"245 447 OFFCURVE",
"213 433 OFFCURVE",
"191 409 CURVE SMOOTH",
"169 385 OFFCURVE",
"156 351 OFFCURVE",
"156 311 CURVE SMOOTH",
"156 304 LINE",
"398 304 LINE",
"398 314 LINE SMOOTH",
"398 394 OFFCURVE",
"354 447 OFFCURVE",
"282 447 CURVE SMOOTH"
);
},
{
closed = 1;
nodes = (
"445 713 LINE",
"383 743 LINE",
"474 923 LINE",
"563 879 LINE"
);
},
{
closed = 1;
nodes = (
"332 760 LINE",
"457 621 LINE",
"404 576 LINE",
"283 685 LINE",
"162 576 LINE",
"109 621 LINE",
"234 760 LINE"
);
}
);
width = 556;
}
);
leftKerningGroup = c;
rightKerningGroup = e;
unicode = 1EBF;
},
